<?xml version="1.0" encoding="iso-8859-1"?>
<!-- Generator: Adobe Illustrator 26.2.1, SVG Export Plug-In . SVG Version: 6.00 Build 0)  -->
<svg version="1.1" id="Calque_1" xmlns="http://www.w3.org/2000/svg" xmlns:xlink="http://www.w3.org/1999/xlink" x="0px" y="0px"
	 viewBox="0 0 96 1406" style="enable-background:new 0 0 96 1406;" xml:space="preserve">
<style type="text/css">
	.st0{fill:#FFECAE;}
	.st1{fill:#FFFFFF;}
	.st2{fill:#A3D4FF;}
	.st3{fill:#4C4C4C;}
</style>
<path class="st0" d="M54.3-0.1L54.3-0.1c-9.6,0-17.4,7.8-17.4,17.4l0,7.2l0-0.2c0-5.9-4.7-10.6-10.6-10.6h0
	c-5.8,0-10.6,4.7-10.6,10.6v1273.7h55.9V17.3C71.7,7.7,63.9-0.1,54.3-0.1z"/>
<g>
	<path class="st1" d="M35.8,1360l4.4-6.8v-6.4c0-7.1,5.6-12.9,12.7-13.2l30.3-1.3c2.1-0.1,3.7-1.8,3.7-3.9v-11.1
		c0-2.3-1.9-4.1-4.1-4L7.1,1315l-5.8-1v-6.5l5.4-1.9h73.7h1.1c6.9,0,12.4,5.6,12.4,12.4v9.7c0,6.2-4.8,11.3-11,11.7l-30.7,2
		c-2.4,0.2-4.3,2.2-4.4,4.6l-0.1,6.9l5,6.8L35.8,1360z"/>
	<g>
		<path class="st0" d="M78,1321.4c0.8-0.8,1.2-1.9,1.2-3v-16.2c-0.1-2.3-1.9-4.1-4.2-4.2H11.9c-2.3,0-4.2,1.9-4.2,4.2c0,0,0,0,0,0
			l0,16.2c0.1,2.3,1.9,4.1,4.2,4.2H75C76.1,1322.6,77.2,1322.2,78,1321.4z"/>
		<path class="st2" d="M54.5,1396.6l-0.3-0.5c-0.2-0.3-0.4-0.6-0.5-0.9l-0.4-1.2l0.4-1.2c0.1-0.3,0.3-0.6,0.5-0.9l0.3-0.5l0-22
			l-0.3-0.5c-0.2-0.3-0.4-0.6-0.5-0.9l-0.4-1.2l0.4-1.2c0.1-0.3,0.3-0.6,0.5-0.9l0.3-0.5v-4.9l-19.7,0l0,4.9l0.3,0.5
			c0.2,0.3,0.4,0.6,0.5,0.9l0.4,1.2l-0.4,1.2c-0.1,0.3-0.3,0.6-0.5,0.9l-0.3,0.5l0,22l0.3,0.5c0.2,0.3,0.4,0.6,0.5,0.9l0.4,1.2
			l-0.4,1.2c-0.1,0.3-0.3,0.6-0.5,0.9l-0.3,0.5l0,4.9l2.5,2.5l14.8,0l2.5-2.5L54.5,1396.6z"/>
		<g>
			<path class="st3" d="M56.3,1401.5L56.3,1401.5l0-4.9c0-0.5-0.2-0.9-0.5-1.2c-0.7-0.7-0.7-1.8,0-2.5c0.3-0.3,0.5-0.8,0.5-1.2
				l0-22.2c0-0.5-0.2-0.9-0.5-1.2c-0.7-0.7-0.7-1.8,0-2.5c0.3-0.3,0.5-0.8,0.5-1.2l0-4.9c0-0.5-0.2-0.9-0.5-1.2l-5.7-5.7l0-7.4
				c0-1.4,1.1-2.5,2.5-2.5c0,0,0,0,0,0l28.7-1.2c7.9,0,14.3-6.4,14.3-14.3c0,0,0,0,0,0l0-9.2c0-8-6.5-14.4-14.4-14.4h-0.4v-1.4
				c-0.1-3.3-2.7-5.9-5.9-5.9l-63.1,0c-3.3,0-5.9,2.7-5.9,5.9v1.8l-4.8,1c-0.8,0.2-1.4,0.9-1.4,1.7l0,7.3c0,0.9,0.7,1.7,1.6,1.9
				l4.6,0.9v1.8c0,3.3,2.7,5.9,5.9,5.9h23.6h4.9H75c3.3,0,5.9-2.7,5.9-5.9v-3.9h1.4c1.4,0,2.4,1.1,2.5,2.5v11.3
				c0,1.4-1.1,2.4-2.5,2.4c0,0,0,0,0,0l-28.7,1.2c-8,0-14.4,6.5-14.4,14.4l0,6.3l-5.6,5.7c-0.3,0.3-0.5,0.8-0.5,1.2l0,4.9
				c0,0.5,0.2,0.9,0.5,1.2c0.7,0.7,0.7,1.8,0,2.5c-0.3,0.3-0.5,0.8-0.5,1.2l0,22.2c0,0.5,0.2,0.9,0.5,1.2c0.7,0.7,0.7,1.8,0,2.5
				c-0.3,0.3-0.5,0.8-0.5,1.2l0,4.9c0,0.5,0.2,0.9,0.5,1.2l2.5,2.5c0.3,0.3,0.8,0.5,1.2,0.5l7.1,0c0.1,0,0.2,0,0.3,0h7.4
				c0.5,0,0.9-0.2,1.2-0.5l2.5-2.5C56.1,1402.4,56.3,1402,56.3,1401.5z M3.3,1312.6l0-4.5l2.7-0.5l0,5.6L3.3,1312.6z M77.5,1318.4
				c0,0.7-0.3,1.3-0.7,1.7c-0.5,0.5-1.1,0.7-1.7,0.7H11.9c-1.3,0-2.4-1.1-2.5-2.5v-16.2c0-1.4,1.1-2.5,2.5-2.5H75
				c1.4,0,2.5,1.1,2.5,2.5L77.5,1318.4z M42.7,1346.4c0-6.1,4.9-11,11-10.9c0,0,0,0,0,0l28.7-1.2c3.3,0,5.9-2.7,5.9-5.9l0-11.3
				c-0.1-3.3-2.7-5.9-6-6h-1.4l0-3.9h0.4c6,0,10.9,4.9,10.9,10.9l0,9.2c0,6-4.9,10.9-10.9,10.9c0,0,0,0-0.1,0l-28.7,1.2
				c-3.3,0-6,2.7-6,6l0,6.3l-3.9,0L42.7,1346.4z M39,1357.9l2.7-2.7l5.9,0l2.7,2.7L39,1357.9z M36.6,1363.9l0-2.5h16.2l0,2.6
				c-0.3,0.4-0.5,0.9-0.7,1.3H37.3C37.1,1364.8,36.9,1364.3,36.6,1363.9z M36.6,1391l0-20.9c0.3-0.4,0.5-0.9,0.7-1.4h14.8
				c0.2,0.5,0.4,1,0.7,1.4l0,20.9c-0.3,0.4-0.5,0.9-0.7,1.3H37.3C37.1,1391.9,36.9,1391.4,36.6,1391z M51.3,1402.2h-6.4
				c-0.1,0-0.2,0-0.3,0l-6.7,0l-1.4-1.4l0-3.6c0.3-0.4,0.5-0.9,0.7-1.4h14.8c0.2,0.5,0.4,1,0.7,1.4l0,3.6L51.3,1402.2z"/>
		</g>
	</g>
</g>
</svg>
