<svg xmlns="http://www.w3.org/2000/svg" viewBox="0 0 95.9 109.4"><defs><style>.cls-1{fill:#fff;}.cls-2{fill:#ffecae;}.cls-3{fill:#a3d4ff;}.cls-4{fill:#4c4c4c;}</style></defs><g id="Calque_2" data-name="Calque 2"><g id="Calque_1-2" data-name="Calque 1"><path class="cls-1" d="M36.1,63.5l4.4-6.8V50.3A13.22,13.22,0,0,1,53.2,37.1l30.3-1.3a3.87,3.87,0,0,0,3.7-3.9V20.8a4,4,0,0,0-4.1-4L7.4,18.5l-5.8-1V11L7,9.1H81.8A12.4,12.4,0,0,1,94.2,21.5v9.7a11.72,11.72,0,0,1-11,11.7l-30.7,2a4.84,4.84,0,0,0-4.4,4.6L48,56.4l5,6.8Z"/><path class="cls-2" d="M78.3,24.9a4.23,4.23,0,0,0,1.2-3V5.7a4.36,4.36,0,0,0-4.2-4.2H12.2A4.23,4.23,0,0,0,8,5.7H8V21.9a4.36,4.36,0,0,0,4.2,4.2H75.3A4.23,4.23,0,0,0,78.3,24.9Z"/><path class="cls-3" d="M54.8,100.1l-.3-.5a4.05,4.05,0,0,1-.5-.9l-.4-1.2.4-1.2a4.05,4.05,0,0,1,.5-.9l.3-.5v-22l-.3-.5a4.05,4.05,0,0,1-.5-.9l-.4-1.2.4-1.2a4.05,4.05,0,0,1,.5-.9l.3-.5V62.8H35.1v4.9l.3.5a4.05,4.05,0,0,1,.5.9l.4,1.2-.4,1.2a4.05,4.05,0,0,1-.5.9l-.3.5v22l.3.5a4.05,4.05,0,0,1,.5.9l.4,1.2-.4,1.2a4.05,4.05,0,0,1-.5.9l-.3.5V105l2.5,2.5H52.4l2.5-2.5Z"/><path class="cls-4" d="M56.6,105h0v-4.9a1.66,1.66,0,0,0-.5-1.2,1.75,1.75,0,0,1,0-2.5,1.85,1.85,0,0,0,.5-1.2V73a1.66,1.66,0,0,0-.5-1.2,1.75,1.75,0,0,1,0-2.5,1.85,1.85,0,0,0,.5-1.2V63.2a1.66,1.66,0,0,0-.5-1.2l-5.7-5.7V48.9a2.48,2.48,0,0,1,2.5-2.5h0l28.7-1.2A14.3,14.3,0,0,0,95.9,30.9h0V21.7A14.4,14.4,0,0,0,81.5,7.3h-.4V5.9A6,6,0,0,0,75.2,0H12.1A5.91,5.91,0,0,0,6.2,5.9V7.7l-4.8,1A1.81,1.81,0,0,0,0,10.4v7.3a2,2,0,0,0,1.6,1.9l4.6.9v1.8a5.91,5.91,0,0,0,5.9,5.9H75.3a5.91,5.91,0,0,0,5.9-5.9V18.4h1.4a2.54,2.54,0,0,1,2.5,2.5V32.2a2.39,2.39,0,0,1-2.5,2.4h0L53.9,35.8A14.4,14.4,0,0,0,39.5,50.2v6.3l-5.6,5.7a1.85,1.85,0,0,0-.5,1.2v4.9a1.66,1.66,0,0,0,.5,1.2,1.75,1.75,0,0,1,0,2.5,1.85,1.85,0,0,0-.5,1.2V95.4a1.66,1.66,0,0,0,.5,1.2,1.75,1.75,0,0,1,0,2.5,1.85,1.85,0,0,0-.5,1.2v4.9a1.66,1.66,0,0,0,.5,1.2l2.5,2.5a1.85,1.85,0,0,0,1.2.5H52.4a1.66,1.66,0,0,0,1.2-.5l2.5-2.5A2.65,2.65,0,0,0,56.6,105ZM3.6,16.1V11.6l2.7-.5v5.6Zm74.2,5.8a2.41,2.41,0,0,1-.7,1.7,2.34,2.34,0,0,1-1.7.7H12.2a2.61,2.61,0,0,1-2.5-2.5V5.6a2.48,2.48,0,0,1,2.5-2.5H75.3a2.48,2.48,0,0,1,2.5,2.5ZM43,49.9A10.82,10.82,0,0,1,54,39h0l28.7-1.2a5.91,5.91,0,0,0,5.9-5.9V20.6a6.15,6.15,0,0,0-6-6H81.2V10.7h.4A10.93,10.93,0,0,1,92.5,21.6v9.2A10.93,10.93,0,0,1,81.6,41.7h-.1L52.8,42.9a6,6,0,0,0-6,6v6.3H42.9ZM39.3,61.4,42,58.7h5.9l2.7,2.7Zm-2.4,6V64.9H53.1v2.6a8.26,8.26,0,0,0-.7,1.3H37.6A6.11,6.11,0,0,0,36.9,67.4Zm0,27.1V73.6a6.11,6.11,0,0,0,.7-1.4H52.4a6.11,6.11,0,0,0,.7,1.4V94.5a8.26,8.26,0,0,0-.7,1.3H37.6A8.26,8.26,0,0,0,36.9,94.5Zm14.7,11.2H38.2l-1.4-1.4v-3.6a6.11,6.11,0,0,0,.7-1.4H52.3a6.11,6.11,0,0,0,.7,1.4v3.6Z"/></g></g></svg>