<svg xmlns="http://www.w3.org/2000/svg" viewBox="0 0 112.13 77.5"><defs><style>.cls-1{fill:#429d35;fill-rule:evenodd;opacity:0.3;}</style></defs><title>feuille</title><g id="Calque_2" data-name="Calque 2"><g id="Calque_1-2" data-name="Calque 1"><path class="cls-1" d="M28.62,66.1,29.8,66l.44,0-.44,0c5.66-.22,8.78,0,9.45,0,25.22,1,36.34-.59,41.22-1.92A27.57,27.57,0,0,0,99.82,46c1.77-5.12,2.9-13.5,1.59-19.33a28.61,28.61,0,0,0-1.32-4.44c10.7-8.54,11.82-19,12-21.07s-1.2-.61-1.2-.56v.1A43.32,43.32,0,0,1,98,17.59l0-.09c0-.08-2.11-2.48-2.11-2.46h0l-.23-.16s0,.32,0,.49a2,2,0,0,0,0,.26h0c0,.09.18,3.26.18,3.31h0a.31.31,0,0,1-.09.06,48.94,48.94,0,0,1-6.78,3.52c-6,2.6-9.77,2.87-16.13,4.35-2.89.67-6.23,1.51-9.67,2.48C50.61,32.89,40.9,36.54,32.43,46.89a38.24,38.24,0,0,0-7.9,16l-.15.65-1.22.19A38.79,38.79,0,0,0,0,77.08v.42a1.34,1.34,0,0,1,.25-.15C14.69,67.21,23.41,66.76,23.63,66.71l.34,0m5.32-4.57c5-18.57,27.7-24.26,28.26-24.4,5-1.29,30-7.7,30-7.66v.14h-.09v.09h.1A90.59,90.59,0,0,1,58.06,45.16C53.58,46.5,36,52,33,59a.79.79,0,0,0,0,.33l.44.11C41.33,51.64,62,47.32,62.14,47.22l.21-.11v0c0,.09-1.08,7.45-12.28,12.82v.32a2.75,2.75,0,0,0,.8,0C60.29,58.22,64.45,47,64.54,46.8l.06-.13c0-.08,10.2-3.33,10.2-3.36h0l.27-.09h0s-1.62,11.92-9.38,17.53l0,.05s-.31.7.7.39A26.93,26.93,0,0,0,76.77,42.77v-.05l.06-.29c4.42-2.58,8.61-5.73,8.75-5.71s-.17,6.19-.21,6.81c-.16,2.38-.89,8.55-4.38,12.34h0l0,.06c-1.12,1.63.83.53.84.52,4.56-5,5.48-12.55,5.63-16.77.06-1.87.3-4.27.31-4.28.41-.56,9.38-10.73,9.5-10.81l0,0A35.86,35.86,0,0,1,98,31.25a30.85,30.85,0,0,1-3.43,14.37C89.43,55.25,81.83,60,69.44,61.49c-7,.87-18.09,1.06-29.76,1-3.53.1-7.12.23-10.47.39A1.51,1.51,0,0,1,29.29,62.1Z"/></g></g></svg>