<svg xmlns="http://www.w3.org/2000/svg" viewBox="0 0 289.33 59.36"><defs><style>.cls-1{fill:#429d35;fill-rule:evenodd;opacity:0.7;}</style></defs><g id="Calque_2" data-name="Calque 2"><g id="Calque_1-2" data-name="Calque 1"><g id="Calque_2-2-2" data-name="Calque 2-2-2"><g id="Calque_1-2-2-2" data-name="Calque 1-2-2-2"><path class="cls-1" d="M59.25,47.15a78.43,78.43,0,0,1,10,.61h0c7.9.73,15.72,1.66,23.41,2.79,55.08,7.68,80.58,8.93,92,8.8,21.43-.07,41.31-5.37,52.67-14,6.72-4.93,13.8-13.44,14.14-20a15,15,0,0,0-.49-5.06c28.27-6.18,36.48-16.89,38-19s-2.31-.95-2.33-.9l-.1.18c-9.88,6.21-22.85,11.16-37.74,14.38l0,0c0-.08-3.26-3.18-3.28-3.15l-.2,0c-.12.15-.15.15-.31.36a.93.93,0,0,0-.21.23c0,.07-1.35,3.4-1.4,3.46l-.46.06c-5.5.84-11.12,1.48-16.81,1.93-14.64,1.16-23.1.45-37.93.33-6.73-.06-14.55-.05-22.67.07-29.52.47-52.93,1.76-77.28,10.43-11,3.86-20,8.91-26.2,14.75l-.69.65-2.78-.13c-20.83-.72-41.52,2.1-58.38,8L0,52.26a3.19,3.19,0,0,1,.63-.09C38,45.28,57.46,47.12,58,47.1l.9,0M73,43.77c21.22-18.22,74.31-18.27,75.68-18.26,11.73,0,70.34-.23,70.31-.18l-.07.14-.19,0-.05.1.23,0a404.11,404.11,0,0,1-73.23,7.92c-10.6.24-52.36,1.42-62.81,8a.48.48,0,0,0-.18.35l.89.23c21.68-6.13,69.67-5.25,70-5.33l.51-.06c0,.09-6.47,7.55-34.1,10.26l-.18.34a12.78,12.78,0,0,0,1.77.21,69.59,69.59,0,0,0,37.6-10.55l.19-.12c0-.09,24.31-.83,24.33-.86h0l.89,0h0s-10.41,12.12-30.58,16l0,.06s-1.08.65,1.33.59c15.29-3.19,27.2-9.21,33-16.69l.29-.29C199.74,34,210.72,31.82,211,31.88s-3.78,6.46-4.2,7.1a31.39,31.39,0,0,1-16.44,11.84l0,.06c-3.36,1.42,1.54.77,1.56.77,12.91-4,19-11.77,21.63-16.17a52.72,52.72,0,0,1,3-4.42c1.2-.47,25.85-8.59,26.83-8.86,0,0,0-.05,0-.07l0,.05,0,0a20,20,0,0,1-2,7.15c-2.66,5.27-8,10.14-15.43,14.22-16.53,8.79-36,11.75-64.11,10.1-15.93-.87-40.44-3.63-66.13-6.75-7.84-.82-15.81-1.63-23.28-2.34A1.29,1.29,0,0,1,73,43.77Z"/></g></g></g></g></svg>