<svg xmlns="http://www.w3.org/2000/svg" viewBox="0 0 690.02 121.75"><defs><style>.cls-1{fill:#429d35;}.cls-1,.cls-2{fill-rule:evenodd;}</style></defs><title>Fichier 2</title><g id="Calque_2" data-name="Calque 2"><g id="Calque_1-2" data-name="Calque 1"><path class="cls-1" d="M102.63,63.13c1.57-3.3,5.74-6.14,10.4-8.46C122.4,50.38,131.11,47,131.17,47s.23-.44.1-.62c-8.44-1.06-22.81,3.51-24.4,4.11-8.64,3.23-16.56,8.73-16.6,18.07-.33,5.58,4.62,9.35,9.3,11.66a70.55,70.55,0,0,0,8.36,3.07c5,1.49,18.31,5.82,17.83,10.81.42,7.53-32.66,20.69-64.13,12.63l-3.4-.88c-.13,0-1.89.1-.35,1l0,0c14,6.77,34.22,4.79,34.82,4.74,2.26-.19,4.72-.45,7.44-.8,11.88-1.53,22.84-5.17,28.17-11.7C133.48,91.9,124.51,86.31,124,86c-7.6-4.66-22.81-6.88-26.93-11.35-5.87-4.95-2.69-11-1.22-13.15,3.17-4.9,10.18-8.2,15.92-10.19a77,77,0,0,1,14.77-3.42h.38c-1.59.33-10.57,3.22-11.61,3.61-7.85,2.94-17,7.89-16.71,14.86a9.71,9.71,0,0,0,3.3,6c2,2,7.45,3.51,7.54,3.53,20.53,6,26.09,9.55,28,11.24.32.28,4.39,4,3.44,9.33C139,106.73,123.09,113.11,111.38,116a107.75,107.75,0,0,1-31.13,2.23,119.06,119.06,0,0,1-16-3,73.51,73.51,0,0,1-12.8-5.47C26,93.09,27.9,71.08,28.44,67.31l.18-1.21a96,96,0,0,1,10.63,0c25.22,1,36.34-.59,41.22-1.92A27.57,27.57,0,0,0,99.82,46c1.77-5.12,2.9-13.5,1.59-19.33a28.61,28.61,0,0,0-1.32-4.44c10.7-8.54,11.82-19,12-21.07s-1.2-.61-1.2-.56v.1A43.32,43.32,0,0,1,98,17.59l0-.09c0-.08-2.11-2.5-2.11-2.48v0h-.09a1.53,1.53,0,0,1,0,.46c0,.07-.08.08-.1.13h0c0,.06.19,3.29.18,3.34v0H95.7a51.09,51.09,0,0,1-6.78,3.52c-6,2.6-9.77,2.87-16.13,4.35-2.89.67-6.23,1.51-9.67,2.48C50.61,32.89,40.9,36.54,32.43,46.89a38.24,38.24,0,0,0-7.9,16l-.15.65-1.22.19A38.79,38.79,0,0,0,0,77.08v.42a1.34,1.34,0,0,1,.25-.15C14.69,67.21,23.4,66.78,23.63,66.71l.34,0-.08.54c0,.32-6,29.27,28.13,47.13,9.92,4.88,21,6.83,31.51,7.26,13,.75,29.28-1.32,40.9-5.81a44.79,44.79,0,0,0,17.2-11.42c3.82-4.82,5.49-10.42,1.93-15.9-2.38-3.66-8.85-9-26.48-13.48-3.48-.87-6-1.65-7.92-2.33a13,13,0,0,1-6.23-4.24c-2.22-3.06.92-7.87-.3-5.29ZM97.24,24.57A35.86,35.86,0,0,1,98,31.25a30.85,30.85,0,0,1-3.43,14.37C89.43,55.25,81.83,60,69.44,61.49c-7,.87-18.09,1.06-29.76,1-3.53.1-7.12.23-10.47.39a1.51,1.51,0,0,1,.08-.79c5-18.57,27.7-24.26,28.26-24.4,5-1.29,30-7.7,30-7.66v.14h-.09v.09h.1A90.59,90.59,0,0,1,58.06,45.16C53.58,46.5,36,52,33,59a.79.79,0,0,0,0,.33l.44.11C41.33,51.64,62,47.32,62.14,47.22l.21-.11v0c0,.09-1.08,7.45-12.28,12.82v.32a2.75,2.75,0,0,0,.8,0C60.29,58.22,64.45,47,64.54,46.8l.06-.13c0-.08,10.2-3.33,10.2-3.36v-.25L75,43v.09h.1v0s-1.64,12.06-9.4,17.67l0,.05s-.31.7.7.39A26.93,26.93,0,0,0,76.77,42.77v-.05l.06-.29c4.42-2.58,8.61-5.73,8.75-5.71s-.17,6.19-.21,6.81c-.16,2.38-.89,8.55-4.38,12.34h0l0,.06c-1.12,1.63.83.53.84.52,4.56-5,5.48-12.55,5.63-16.77.06-1.87.3-4.27.31-4.28.41-.56,9.38-10.73,9.5-10.81l0,0Z"/><polygon class="cls-1" points="139.92 21.77 137.29 21.77 137.29 26.26 139.92 26.26 139.92 21.77 139.92 21.77"/><polygon class="cls-1" points="127.21 21.55 124.58 21.55 124.58 26.04 127.21 26.04 127.21 21.55 127.21 21.55"/><path class="cls-1" d="M146.4,33.66v11h3V36.4l.11-2.74,12.5.11,9.42-9.1L180.5,34V45H182V31.47l-8.55-9.21L163,22.37l-5.92-5.81-26.31.11L128.46,19l-2.56-.1,1.59,1.65,0-.05.84.81v7h-5V24l-9.51,9.38h4.49v11h3V38.76l0-5.43,19.19.22,14.91-14.47,3.29,3.07-3.73.22L144.05,33.66Zm-10.27-5.15v-7l2.46-2.41,2.5,2.38v7Z"/><polygon class="cls-1" points="178.36 35.2 168.6 35.2 168.6 44.95 178.36 44.95 178.36 35.2 178.36 35.2"/><polygon class="cls-1" points="134 35.39 127.48 35.39 127.48 44.41 134 44.41 134 35.39 134 35.39"/><path class="cls-2" d="M229.72,55.51a12.15,12.15,0,0,1,6.43,4A10.21,10.21,0,0,1,238.32,66,10.42,10.42,0,0,1,235,74.09q-3.36,3.07-9.41,3.08-5.36,0-8.31-2.68a8.82,8.82,0,0,1-2.94-6.83,5.93,5.93,0,0,1,1.2-3.94,3.83,3.83,0,0,1,3.09-1.43,3.69,3.69,0,0,1,2.78,1.13,4,4,0,0,1,1.08,2.83,4.13,4.13,0,0,1-2.23,3.66,5.17,5.17,0,0,0-1.14.84,1.14,1.14,0,0,0-.2.68,2.28,2.28,0,0,0,1.23,1.83,7.09,7.09,0,0,0,4.06,1.22,5.55,5.55,0,0,0,4.6-2.11q1.68-2.1,1.68-6.53c0-2.92-.52-5.09-1.55-6.49a4.73,4.73,0,0,0-4-2.11,7.93,7.93,0,0,0-1.51.2,8.4,8.4,0,0,1-1.38.17,1.53,1.53,0,0,1-1.14-.43A1.66,1.66,0,0,1,220.5,56a1.75,1.75,0,0,1,.44-1.29,1.93,1.93,0,0,1,1.36-.43,8.52,8.52,0,0,1,1,.09,11.45,11.45,0,0,0,1.35.11,4.41,4.41,0,0,0,3.68-1.72c.86-1.13,1.3-3,1.3-5.65s-.49-4.56-1.46-5.74a5.93,5.93,0,0,0-6.89-1.14,1.75,1.75,0,0,0-.95,1.36,1,1,0,0,0,.13.57,4.46,4.46,0,0,0,.76.73,7,7,0,0,1,1.65,1.82,3.75,3.75,0,0,1,.4,1.79,3.82,3.82,0,0,1-1.05,2.75,3.65,3.65,0,0,1-5.45-.25,5.21,5.21,0,0,1-1.13-3.47A8.13,8.13,0,0,1,217.79,40q2.72-3.19,7.92-3.19a13.15,13.15,0,0,1,6,1.29,9.11,9.11,0,0,1,5.17,8.32,8.49,8.49,0,0,1-1.65,5.12,13.11,13.11,0,0,1-5.54,4Z"/><path class="cls-2" d="M243.55,37.93V35.35h19.77v2.58H260a2.8,2.8,0,0,0-2,.58,2.64,2.64,0,0,0-.57,1.89V70.88a3.41,3.41,0,0,0,.55,2.37,4.17,4.17,0,0,0,2.57.51h5.55q3.1,0,5.79-3.13c1.78-2.09,3.16-5.42,4.11-10h2.35l-.89,15.71H243.55V73.76h3.39a2.2,2.2,0,0,0,1.69-.61,2.43,2.43,0,0,0,.57-1.72V40.09a2.11,2.11,0,0,0-.58-1.65,3.11,3.11,0,0,0-2-.51Z"/><path class="cls-2" d="M316.88,34.33,331.33,71.1a5.1,5.1,0,0,0,1.35,2.11,3.11,3.11,0,0,0,1.93.55H336v2.58H317.94V73.76h1.7a5.74,5.74,0,0,0,2.76-.47,1.42,1.42,0,0,0,.75-1.25,3.92,3.92,0,0,0-.31-1.41l-3-7.59H305.45l-1.37,3.46a9.68,9.68,0,0,0-.86,3.21,3.73,3.73,0,0,0,1.25,2.93,4.91,4.91,0,0,0,3.42,1.12h1.22v2.58H294.47V73.76h.84a3.62,3.62,0,0,0,2.48-.94,8.87,8.87,0,0,0,2.36-3.41L314,34.33ZM312.69,44.7l-6.17,15.62h12.29L312.69,44.7Z"/><path class="cls-2" d="M386.94,73.76v2.58H372.23V73.76h1.51a2.63,2.63,0,0,0,1.94-.58,2.54,2.54,0,0,0,.56-1.8V60.12A7.3,7.3,0,0,0,375,55.5a4.11,4.11,0,0,0-3.38-1.5,5.26,5.26,0,0,0-3,.85,6.61,6.61,0,0,0-2.18,2.82,9.35,9.35,0,0,0-.91,3.89V71.71a2.09,2.09,0,0,0,.52,1.52,1.91,1.91,0,0,0,1.41.53h2v2.58h-15V73.76h1.66a2.63,2.63,0,0,0,1.83-.47,2.4,2.4,0,0,0,.6-1.75V59.85a6.55,6.55,0,0,0-1.31-4.35A4.1,4.1,0,0,0,354,54a5.24,5.24,0,0,0-2.91.86,6.84,6.84,0,0,0-2.29,2.66,7.2,7.2,0,0,0-.95,3.29V70.93a3.13,3.13,0,0,0,.52,2.11,2.64,2.64,0,0,0,2,.72h1.43v2.58H336.7V73.76h1.72a2.64,2.64,0,0,0,1.91-.54,2.55,2.55,0,0,0,.53-1.84V55.8a3.21,3.21,0,0,0-.37-1.67,2.37,2.37,0,0,0-1.19-1,7.81,7.81,0,0,0-2.45-.25V50.4l10.06-.58a38.27,38.27,0,0,1,.75,5.76,17.26,17.26,0,0,1,4.81-4.74,9.76,9.76,0,0,1,5-1.35,7.37,7.37,0,0,1,4.84,1.57,9.3,9.3,0,0,1,2.82,4.74,17,17,0,0,1,4.92-4.92,9.77,9.77,0,0,1,5.1-1.45A7.32,7.32,0,0,1,381,51.9q2.14,2.49,2.14,7.06V71.38a2.57,2.57,0,0,0,.54,1.83,2.22,2.22,0,0,0,1.66.55Z"/><path class="cls-2" d="M414.81,63.54H397.73c0,3.63.74,6.32,2.06,8a6.17,6.17,0,0,0,5.11,2.6,7.58,7.58,0,0,0,4.24-1.33A15,15,0,0,0,413.25,68l1.9,1.25a15.15,15.15,0,0,1-5.06,5.94,14.21,14.21,0,0,1-16.66-2.09,13.8,13.8,0,0,1-3.7-10A14.49,14.49,0,0,1,393.45,53,12,12,0,0,1,402.6,49,12.16,12.16,0,0,1,409,50.59a10.93,10.93,0,0,1,4.2,4.78,19.79,19.79,0,0,1,1.57,8.17ZM397.73,61h8.13a2,2,0,0,0,1.64-.61,3.69,3.69,0,0,0,.49-2.21,7.91,7.91,0,0,0-1.38-5,4.28,4.28,0,0,0-3.51-1.76,4.2,4.2,0,0,0-3.85,2.39A16.23,16.23,0,0,0,397.73,61Zm.15-15.6-.73-.63,4.22-6.41q2-3,4.12-3a3,3,0,0,1,2.12.92,2.71,2.71,0,0,1,.95,2,3,3,0,0,1-.69,1.95,9.37,9.37,0,0,1-3.11,2l-6.88,3.27Z"/><path class="cls-2" d="M452.71,73.76v2.58H438.05V73.76h1.53a2.35,2.35,0,0,0,1.83-.66,2.82,2.82,0,0,0,.6-1.94V59.91a6.91,6.91,0,0,0-1.23-4.42A3.93,3.93,0,0,0,437.55,54a5.37,5.37,0,0,0-4.43,2.17q-1.71,2.18-1.71,6.36v8.68A2.77,2.77,0,0,0,432,73.1a2,2,0,0,0,1.57.66h1.85v2.58H420.21V73.76h2a2.2,2.2,0,0,0,1.73-.66,2.86,2.86,0,0,0,.58-1.94V55.72a2.77,2.77,0,0,0-.84-2.12,3.14,3.14,0,0,0-2.23-.79h-1V50.4l10.18-.58a42.5,42.5,0,0,1,.84,5.68A16.3,16.3,0,0,1,436,50.9,9.36,9.36,0,0,1,441,49.38,7,7,0,0,1,446.78,52q2.09,2.58,2.08,7.18v12a2.77,2.77,0,0,0,.6,2,2.55,2.55,0,0,0,1.9.61Z"/><path class="cls-2" d="M484.83,73.12l1.1,2a11.81,11.81,0,0,1-2.85,1.61,8.53,8.53,0,0,1-2.78.44,6,6,0,0,1-3.62-1,8.92,8.92,0,0,1-2.53-3.81,17.81,17.81,0,0,1-4.76,3.81,11,11,0,0,1-4.77,1,8.41,8.41,0,0,1-5.73-1.8,5.82,5.82,0,0,1-2.06-4.57,7.71,7.71,0,0,1,3.81-6.71q3-2,13.36-4V56.36a4.77,4.77,0,0,0-5.08-5,6,6,0,0,0-3.13.81c-.6.35-.91.7-.91,1.05a1.84,1.84,0,0,0,.34.83A4.81,4.81,0,0,1,466,56.5a3.36,3.36,0,0,1-1,2.5,3.52,3.52,0,0,1-2.58,1,3.73,3.73,0,0,1-2.76-1,3.59,3.59,0,0,1-1-2.67,5.9,5.9,0,0,1,2.74-4.74A13.77,13.77,0,0,1,469.83,49a17.11,17.11,0,0,1,6.8,1.27,6.54,6.54,0,0,1,3.09,2.82A9.56,9.56,0,0,1,480.9,58V71.16a3.54,3.54,0,0,0,.52,2.16,1.73,1.73,0,0,0,1.43.66,3.73,3.73,0,0,0,2-.86ZM474,62.51c-3.72.54-6.23,1.36-7.54,2.48a5.53,5.53,0,0,0-2,4.42,4.33,4.33,0,0,0,.93,3,3.29,3.29,0,0,0,2.59,1,5.42,5.42,0,0,0,4.28-2A7.91,7.91,0,0,0,474,66.08V62.51Z"/><path class="cls-2" d="M509.43,50.4q3.13-4,6.21-4a3.32,3.32,0,0,1,2.51,1,3.45,3.45,0,0,1,.94,2.49,3.18,3.18,0,0,1-.72,2.18,2.34,2.34,0,0,1-4-.93q-.42-1-1-1c-.49,0-1.15.55-2,1.64a9.27,9.27,0,0,1,2.82,6.37,8.59,8.59,0,0,1-1.33,4.71,9.12,9.12,0,0,1-4,3.35,16.07,16.07,0,0,1-6.74,1.24l-2.78,0a9,9,0,0,0-4.2.66A2,2,0,0,0,494,69.73a1.5,1.5,0,0,0,.71,1.35,5.42,5.42,0,0,0,2.91.6l2.4-.08c2.59-.15,4.49-.22,5.7-.22q6.07,0,8.44,1.83a6.05,6.05,0,0,1,2.37,5.08,7.83,7.83,0,0,1-2.73,6.24q-3.33,2.89-11.64,2.89c-4.73,0-8-.58-10-1.75s-2.87-2.53-2.87-4.1A3.41,3.41,0,0,1,490.56,79c.82-.74,2.55-1.44,5.19-2.08A7.49,7.49,0,0,1,491.87,75a4.71,4.71,0,0,1-1.31-3.44,5.35,5.35,0,0,1,1-3.24A8,8,0,0,1,495.05,66a10.11,10.11,0,0,1-3.61-3.3,7.9,7.9,0,0,1-1.21-4.34,8.78,8.78,0,0,1,1.32-4.75,9.16,9.16,0,0,1,4.09-3.38A16.1,16.1,0,0,1,502.35,49a18.29,18.29,0,0,1,3.65.36,17.29,17.29,0,0,1,3.43,1.08Zm-7.23,1a3.7,3.7,0,0,0-3.08,1.79,8.69,8.69,0,0,0-1.29,5.14,8.31,8.31,0,0,0,1.27,5,3.67,3.67,0,0,0,6.24-.06,8.35,8.35,0,0,0,1.3-5,8.54,8.54,0,0,0-1.3-5,3.81,3.81,0,0,0-3.14-1.8Zm10.22,29.45a2.48,2.48,0,0,0-1.72-2.38,15.79,15.79,0,0,0-5.21-.53c-4.86,0-8,.36-9.4,1.06S494,80.58,494,81.63a2.92,2.92,0,0,0,1.64,2.51c1.09.67,3.17,1,6.22,1q6,0,8.6-1.47a3.29,3.29,0,0,0,2-2.83Z"/><path class="cls-2" d="M547.17,63.54H530.08c0,3.63.74,6.32,2.07,8a6.16,6.16,0,0,0,5.11,2.6,7.55,7.55,0,0,0,4.23-1.33A15,15,0,0,0,545.6,68l1.9,1.25a15.15,15.15,0,0,1-5.06,5.94,14.21,14.21,0,0,1-16.66-2.09,13.84,13.84,0,0,1-3.7-10A14.45,14.45,0,0,1,525.81,53,11.92,11.92,0,0,1,535,49a12.22,12.22,0,0,1,6.45,1.63,11,11,0,0,1,4.19,4.78,19.94,19.94,0,0,1,1.58,8.17ZM530.08,61h8.13a2,2,0,0,0,1.64-.61,3.61,3.61,0,0,0,.49-2.21,7.91,7.91,0,0,0-1.38-5,4.33,4.33,0,0,0-7.36.63A16.37,16.37,0,0,0,530.08,61Z"/><path class="cls-2" d="M601.29,73.76v2.58H586.58V73.76h1.51a2.63,2.63,0,0,0,1.94-.58,2.54,2.54,0,0,0,.56-1.8V60.12a7.3,7.3,0,0,0-1.21-4.62A4.11,4.11,0,0,0,586,54a5.26,5.26,0,0,0-3,.85,6.61,6.61,0,0,0-2.18,2.82,9.35,9.35,0,0,0-.91,3.89V71.71a2.09,2.09,0,0,0,.52,1.52,1.91,1.91,0,0,0,1.41.53h2v2.58h-15V73.76h1.66a2.63,2.63,0,0,0,1.83-.47,2.4,2.4,0,0,0,.6-1.75V59.85a6.55,6.55,0,0,0-1.31-4.35,4.1,4.1,0,0,0-3.3-1.55,5.24,5.24,0,0,0-2.91.86,6.84,6.84,0,0,0-2.29,2.66,7.2,7.2,0,0,0-1,3.29V70.93a3.13,3.13,0,0,0,.52,2.11,2.64,2.64,0,0,0,2,.72h1.43v2.58H551.05V73.76h1.72a2.66,2.66,0,0,0,1.91-.54,2.55,2.55,0,0,0,.53-1.84V55.8a3.21,3.21,0,0,0-.37-1.67,2.37,2.37,0,0,0-1.19-1,7.81,7.81,0,0,0-2.45-.25V50.4l10.06-.58a38.27,38.27,0,0,1,.75,5.76,17.26,17.26,0,0,1,4.81-4.74,9.76,9.76,0,0,1,5-1.35,7.32,7.32,0,0,1,4.83,1.57,9.24,9.24,0,0,1,2.83,4.74,17,17,0,0,1,4.92-4.92,9.77,9.77,0,0,1,5.1-1.45,7.32,7.32,0,0,1,5.84,2.47q2.14,2.49,2.14,7.06V71.38a2.57,2.57,0,0,0,.54,1.83,2.22,2.22,0,0,0,1.66.55Z"/><path class="cls-2" d="M629.16,63.54H612.08c0,3.63.74,6.32,2.06,8a6.17,6.17,0,0,0,5.11,2.6,7.58,7.58,0,0,0,4.24-1.33A15,15,0,0,0,627.6,68l1.9,1.25a15.15,15.15,0,0,1-5.06,5.94,14.21,14.21,0,0,1-16.66-2.09,13.8,13.8,0,0,1-3.7-10A14.49,14.49,0,0,1,607.8,53,12,12,0,0,1,617,49a12.16,12.16,0,0,1,6.44,1.63,10.93,10.93,0,0,1,4.2,4.78,19.79,19.79,0,0,1,1.57,8.17ZM612.08,61h8.13a2,2,0,0,0,1.64-.61,3.69,3.69,0,0,0,.49-2.21,7.91,7.91,0,0,0-1.38-5,4.28,4.28,0,0,0-3.51-1.76,4.2,4.2,0,0,0-3.85,2.39A16.23,16.23,0,0,0,612.08,61Z"/><path class="cls-2" d="M667.06,73.76v2.58H652.4V73.76h1.53a2.35,2.35,0,0,0,1.83-.66,2.82,2.82,0,0,0,.6-1.94V59.91a6.91,6.91,0,0,0-1.23-4.42A3.94,3.94,0,0,0,651.9,54a5.37,5.37,0,0,0-4.43,2.17q-1.71,2.18-1.71,6.36v8.68a2.77,2.77,0,0,0,.61,1.94,2,2,0,0,0,1.57.66h1.85v2.58H634.56V73.76h2a2.2,2.2,0,0,0,1.74-.66,2.86,2.86,0,0,0,.58-1.94V55.72A2.77,2.77,0,0,0,638,53.6a3.14,3.14,0,0,0-2.23-.79h-1V50.4l10.18-.58a42.5,42.5,0,0,1,.84,5.68,16.3,16.3,0,0,1,4.54-4.6,9.36,9.36,0,0,1,5.09-1.52A7,7,0,0,1,661.13,52a11.18,11.18,0,0,1,2.08,7.18v12a2.77,2.77,0,0,0,.6,2,2.55,2.55,0,0,0,1.9.61Z"/><path class="cls-2" d="M678.66,39.73H681V50.4h8v3h-8V69.88a3.76,3.76,0,0,0,.78,2.54,2.6,2.6,0,0,0,2.07.9q3.66,0,3.87-7.24H690a16.08,16.08,0,0,1-1.15,6.2,8.08,8.08,0,0,1-7.55,4.89,7.4,7.4,0,0,1-3.79-.94A6.71,6.71,0,0,1,675,73.41a8.86,8.86,0,0,1-1-4.06v-16H669.7V50.84a9.36,9.36,0,0,0,6.19-3.24q2.22-2.68,2.77-7.87Z"/></g></g></svg>