<svg xmlns="http://www.w3.org/2000/svg" viewBox="0 0 244.84 129.62"><defs><style>.cls-1,.cls-2{fill:#38732f;fill-rule:evenodd;}.cls-2{opacity:0.7;}</style></defs><g id="Calque_2" data-name="Calque 2"><g id="Calque_1-2" data-name="Calque 1"><g id="Calque_2-2-2" data-name="Calque 2-2-2"><g id="Calque_1-2-2-2" data-name="Calque 1-2-2-2"><path class="cls-1" d="M107.19,64.54c-.09.26-.15.46-.2.63l.21-.56Z"/><path class="cls-2" d="M136.81,2.63c-11.93,3.09-29.09,11.43-43.49,34a76.42,76.42,0,0,1-7.48,10.13c-2.49,3.13-7.25,5.92-13.7,8-9.23,2.69-23.38-.55-18.46.24-10.18-2.12-19-7.2-26.24-12.87C13.51,30.23,2.53,19.19,2.53,19.12A4.71,4.71,0,0,0,.5,19C-2.89,29.78,12,48,14,50,24.46,61,42.3,71,72.54,70.89c17.92.32,30.25-6,37.69-12.06a75.73,75.73,0,0,0,9.89-10.63c4.78-6.39,18.73-23.43,34.89-22.9,24.36-.65,66.76,40.67,40.85,80.91l-12.94,15.25c-.06.09-1.49,1.39-.33,2.55,2.39,2.37,11.9-9.39,13.71-11.77,19.63-19.61,15.51-44.33,15.36-45.09A96.58,96.58,0,0,0,209,57.68c-5-15.11-16.85-29-38-35.7a54.64,54.64,0,0,0-42.34,5.7c-15.07,9.77-22.15,29.19-36.6,34.5-16,7.57-35.58,3.62-42.54,1.78A63.73,63.73,0,0,1,16.58,43.84,56.31,56.31,0,0,1,5.42,25.09V24.6C6.5,26.62,15.9,38,17.16,39.34c9.57,9.95,25.66,21.53,48.2,21,7.55-.47,14.45-2,19.41-4.31,6.47-2.58,11.31-9.55,11.4-9.67C115.6,20.13,127.07,13,132.52,10.52c.89-.41,12.93-5.66,30.2-4.53a81.42,81.42,0,0,1,63.4,37.29c7.26,13,9.7,26.28,7.26,39.55a77.69,77.69,0,0,1-9.64,20.45,91.6,91.6,0,0,1-17.55,16.39c-2.78,1.69-5.62,3.27-8.49,4.78-2.55,1.7-2.08,4.11.38,4.68a18.22,18.22,0,0,0,6.08.37c5.54-2.46,11.61-6.62,16.9-10.64,15.74-12.72,22-26.87,23.32-40.28,2.37-16.57-4.44-37.29-19-52-7.87-8.3-20.57-15.74-37.09-21.73C172.66,0,154.53-2,136.81,2.63Z"/></g></g></g></g></svg>