<svg xmlns="http://www.w3.org/2000/svg" viewBox="0 0 244.65 129.79"><defs><style>.cls-1{fill:#c65f16;fill-rule:evenodd;opacity:0.7;}</style></defs><g id="Calque_2" data-name="Calque 2"><g id="Calque_1-2" data-name="Calque 1"><g id="Calque_2-2-2" data-name="Calque 2-2-2"><g id="Calque_1-2-2-2" data-name="Calque 1-2-2-2"><path class="cls-1" d="M107.76,127.25c11.94-3,29.13-11.32,43.63-33.8a76.71,76.71,0,0,1,7.51-10.11c2.5-3.12,7.28-5.89,13.73-8,9.25-2.65,23.38.63,18.47-.17,10.17,2.16,18.93,7.27,26.18,13,13.89,11.93,24.82,23,24.82,23.08a4.55,4.55,0,0,0,2,.13c3.43-10.76-11.39-29.06-13.33-31.07-10.46-11-28.26-21.13-58.51-21.09-17.91-.39-30.27,5.91-37.73,11.9a75.38,75.38,0,0,0-9.93,10.6c-4.81,6.37-18.83,23.35-35,22.76-24.37.56-66.6-40.92-40.53-81.06l13-15.2c.06-.09,1.5-1.39.34-2.55C60.07,3.31,50.52,15,48.69,17.41,29,36.94,33,61.68,33.16,62.44c.63,2.88,1.47,6,2.6,9.47,5,15.14,16.74,29.09,37.89,35.86A54.64,54.64,0,0,0,116,102.22c15.1-9.7,22.25-29.09,36.73-34.35,16-7.51,35.59-3.48,42.55-1.62A63.74,63.74,0,0,1,228.14,86.5a56.07,56.07,0,0,1,11.09,18.79v.5c-1.07-2-10.43-13.46-11.68-14.79C218,81,202,69.37,179.44,69.76,171.88,70.21,165,71.71,160,74c-6.48,2.56-11.34,9.52-11.43,9.63-19.54,26.21-31,33.31-36.49,35.75-.9.41-13,5.61-30.21,4.42A81.41,81.41,0,0,1,18.61,86.25C11.4,73.26,9,59.93,11.5,46.67a78,78,0,0,1,9.72-20.41A91.55,91.55,0,0,1,38.83,9.93c2.79-1.68,5.64-3.24,8.51-4.74C49.9,3.5,49.43,1.09,47,.51A17.91,17.91,0,0,0,40.9.12C35.35,2.55,29.27,6.69,24,10.69,8.17,23.35,1.85,37.47.49,50.88-1.95,67.44,4.78,88.18,19.3,103c7.84,8.32,20.51,15.81,37,21.86C71.9,129.7,90,131.86,107.76,127.25Z"/></g></g></g></g></svg>