<svg xmlns="http://www.w3.org/2000/svg" viewBox="0 0 669.64 132.05"><defs><style>.cls-1{fill:#429d35;}.cls-1,.cls-2{fill-rule:evenodd;}.cls-2{fill:#010101;}</style></defs><title>logo_top</title><g id="Calque_2" data-name="Calque 2"><g id="Calque_1-2" data-name="Calque 1"><g id="Calque_2-2" data-name="Calque 2"><g id="Calque_1-2-2" data-name="Calque 1-2"><g id="Calque_2-2-2" data-name="Calque 2-2"><g id="Calque_1-2-2-2" data-name="Calque 1-2-2"><path class="cls-1" d="M111.26,68.42c1.71-3.58,6.23-6.65,11.28-9.17,10.16-4.65,19.6-8.31,19.66-8.31a.67.67,0,0,0,.11-.68c-9.15-1.15-24.73,3.81-26.45,4.46-9.37,3.5-18,9.46-18,19.59-.35,6,5,10.14,10.09,12.64a76.62,76.62,0,0,0,9,3.33c5.42,1.61,19.85,6.31,19.33,11.72.45,8.16-35.41,22.43-69.53,13.69l-3.68-1c-.14,0-2,.1-.38,1.08h0c15.18,7.34,37.1,5.19,37.75,5.14,2.45-.21,5.11-.49,8.06-.87,12.88-1.66,24.76-5.6,30.54-12.68,5.61-7.8-4.12-13.86-4.67-14.19-8.24-5.06-24.73-7.46-29.19-12.31-6.37-5.37-2.92-11.92-1.33-14.25,3.44-5.32,11-8.89,17.26-11a83.69,83.69,0,0,1,16-3.71h.42c-1.73.36-11.46,3.49-12.59,3.91-8.51,3.19-18.43,8.56-18.12,16.11a10.61,10.61,0,0,0,3.58,6.51c2.17,2.17,8.08,3.8,8.18,3.83,22.27,6.55,28.3,10.4,30.37,12.23.35.3,4.76,4.34,3.73,10.12-2,11.13-19.29,18-32,21.18A117.25,117.25,0,0,1,87,128.16a129.34,129.34,0,0,1-17.35-3.26A79.31,79.31,0,0,1,55.78,119C28.19,100.9,30.25,77,30.78,73L31,71.64a105.4,105.4,0,0,1,11.52,0C69.89,72.73,82,71,87.24,69.56a29.89,29.89,0,0,0,21-19.71c1.92-5.55,3.14-14.63,1.72-21A31,31,0,0,0,108.51,24c11.6-9.26,12.81-20.6,13-22.84s-1.3-.66-1.3-.61V.74a47,47,0,0,1-14,18.31V19c0-.08-2.28-2.71-2.28-2.68h-.1a2,2,0,0,1,0,.49c0,.08-.09.09-.11.14h0c0,.07.21,3.57.2,3.63h-.2a55.84,55.84,0,0,1-7.32,3.81c-6.5,2.82-10.59,3.11-17.49,4.7-3.13.72-6.75,1.63-10.48,2.69C54.87,35.64,44.34,39.6,35.16,50.82a41.46,41.46,0,0,0-8.57,17.34l-.16.71-1.32.2A42.07,42.07,0,0,0,0,83.55V84a.92.92,0,0,1,.27-.16c15.66-11,25.1-11.46,25.35-11.54H26l-.09.59c0,.35-6.51,31.73,30.5,51.09,10.75,5.29,22.76,7.41,34.16,7.87,14.09.82,31.74-1.43,44.34-6.29a48.59,48.59,0,0,0,18.64-12.39c4.15-5.22,6-11.29,2.1-17.23-2.58-4-9.6-9.76-28.71-14.62-3.77-.94-6.51-1.79-8.59-2.52a14.17,14.17,0,0,1-6.75-4.6c-2.41-3.32,1-8.53-.33-5.73Zm-5.84-41.8a38.24,38.24,0,0,1,.82,7.24,33.52,33.52,0,0,1-3.71,15.58C97,59.88,88.71,65,75.28,66.64c-7.59,1-19.61,1.15-32.26,1.09-3.83.11-7.72.25-11.35.42a1.67,1.67,0,0,1,.08-.86c5.42-20.13,30-26.3,30.64-26.45,5.42-1.4,32.52-8.35,32.52-8.3v.15h-.09v.1h.11a98.34,98.34,0,0,1-32,16.15c-4.85,1.45-23.91,7.42-27.16,15a.73.73,0,0,0,0,.36l.47.12c8.56-8.45,31-13.14,31.12-13.25l.22-.12h0c0,.1-1.17,8.08-13.31,13.9v.35a3.17,3.17,0,0,0,.87,0C65.36,63.1,69.87,50.94,70,50.72l.06-.14c0-.09,11.06-3.61,11.06-3.64v-.28l.22-.06v.1h.11S79.64,59.77,71.23,65.85v.06s-.34.76.76.42a29.28,29.28,0,0,0,11.24-20v0l.06-.32c4.79-2.8,9.34-6.21,9.49-6.19s-.19,6.71-.23,7.38c-.17,2.58-1,9.27-4.75,13.38h0v.07c-1.21,1.76.9.57.91.56,5-5.42,5.94-13.61,6.11-18.18.06-2,.32-4.63.33-4.64.45-.61,10.17-11.63,10.3-11.72h0Z"/><polygon class="cls-1" points="151.69 23.58 148.84 23.58 148.84 28.45 151.69 28.45 151.69 23.58 151.69 23.58"/><polygon class="cls-1" points="137.91 23.34 135.06 23.34 135.06 28.21 137.91 28.21 137.91 23.34 137.91 23.34"/><path class="cls-1" d="M158.71,36.47V48.4H162v-9l.12-3,13.55.12,10.21-9.86,9.83,10.11v12h1.63V34.1l-9.27-10-11.33.12-6.42-6.3L141.77,18l-2.5,2.53-2.78-.11,1.72,1.79h0l.91.87v7.59H133.7V26L123.39,36.17h4.87V48.1h3.25v-12l20.81.23,16.16-15.68L172.05,24l-4,.23-11.88,12.2Zm-11.13-5.58V23.3l2.67-2.61L153,23.27v7.59Z"/><polygon class="cls-1" points="193.36 38.14 182.78 38.14 182.78 48.71 193.36 48.71 193.36 38.14 193.36 38.14"/><polygon class="cls-1" points="145.27 38.35 138.2 38.35 138.2 48.13 145.27 48.13 145.27 38.35 145.27 38.35"/></g></g><g id="Calque_2-3" data-name="Calque 2-3"><g id="Calque_1-2-3" data-name="Calque 1-2-3"><path class="cls-2" d="M231.43,75.92a10.82,10.82,0,0,1,5.77,3.59,9.1,9.1,0,0,1,1.93,5.85,9.3,9.3,0,0,1-3,7.25c-2,1.85-4.83,2.77-8.46,2.77-3.2,0-5.68-.8-7.46-2.4a8,8,0,0,1-2.63-6.14,5.44,5.44,0,0,1,1.11-3.59,3.45,3.45,0,0,1,2.78-1.2,3.26,3.26,0,0,1,2.5,1,3.53,3.53,0,0,1,1,2.54,3.72,3.72,0,0,1-2,3.29,4.51,4.51,0,0,0-1,.75,1.07,1.07,0,0,0-.18.61,2.1,2.1,0,0,0,1.1,1.65A6.36,6.36,0,0,0,226.54,93a5,5,0,0,0,4-1.94q1.53-1.89,1.51-5.87c0-2.66-.47-4.6-1.39-5.82a4.22,4.22,0,0,0-3.55-1.89,6.35,6.35,0,0,0-1.36.18,8.4,8.4,0,0,1-1.24.15,1.39,1.39,0,0,1-1-.39,1.55,1.55,0,0,1-.38-1.09,1.59,1.59,0,0,1,.4-1.15,1.66,1.66,0,0,1,1.22-.37,5.29,5.29,0,0,1,.9.07c.41,0,.81.09,1.21.1a4,4,0,0,0,3.31-1.55c.77-1,1.17-2.69,1.17-5.07s-.41-4.09-1.28-5.16a5.35,5.35,0,0,0-6.21-1A1.55,1.55,0,0,0,223,63.4a1,1,0,0,0,.12.51,3.74,3.74,0,0,0,.73.65,6.13,6.13,0,0,1,1.49,1.64,3.24,3.24,0,0,1,.32,1.6,3.37,3.37,0,0,1-.9,2.47,3.27,3.27,0,0,1-2.42,1A3.19,3.19,0,0,1,219.83,70a4.74,4.74,0,0,1-1-3.11A7.42,7.42,0,0,1,220.69,62c1.62-1.9,4-2.86,7.11-2.86a11.52,11.52,0,0,1,5.39,1.16,8.15,8.15,0,0,1,4.65,7.47,7.6,7.6,0,0,1-1.42,4.6,11.77,11.77,0,0,1-5,3.6Z"/><path class="cls-2" d="M243.85,60.13V57.79h17.74v2.34h-3a2.49,2.49,0,0,0-1.8.52,2.43,2.43,0,0,0-.51,1.69V89.73a3.1,3.1,0,0,0,.5,2.13,3.84,3.84,0,0,0,2.3.45h5a6.82,6.82,0,0,0,5.19-2.81q2.4-2.81,3.7-9h2.08l-.77,14.1H243.85V92.29h3a1.92,1.92,0,0,0,1.51-.54,2.15,2.15,0,0,0,.52-1.55V62a1.9,1.9,0,0,0-.52-1.49,2.78,2.78,0,0,0-1.8-.45Z"/><path class="cls-2" d="M334.43,54.38l12.95,33a4.62,4.62,0,0,0,1.21,1.89,2.92,2.92,0,0,0,1.74.5h1.26v2.31H335.38V89.77h1.53a5.38,5.38,0,0,0,2.48-.39,1.25,1.25,0,0,0,.67-1.12,3.45,3.45,0,0,0-.28-1.27l-2.69-6.82H324.16l-1.23,3.11a8.48,8.48,0,0,0-.77,2.89,3.41,3.41,0,0,0,1.12,2.63,4.44,4.44,0,0,0,3.07,1h1.1v2.28H314.29V89.77H315a3.25,3.25,0,0,0,2.23-.85,7.93,7.93,0,0,0,2.12-3.06L331.8,54.34Zm-3.74,9.32-5.54,14h11Z"/><path class="cls-2" d="M397.37,89.81v2.31H384.15V89.81h1.36a2.42,2.42,0,0,0,1.74-.52,2.28,2.28,0,0,0,.5-1.62V77.55a6.53,6.53,0,0,0-1.06-4.15,3.65,3.65,0,0,0-3-1.34,4.68,4.68,0,0,0-2.69.76,5.92,5.92,0,0,0-2,2.53,8.44,8.44,0,0,0-.82,3.5V88a2,2,0,0,0,.47,1.37,1.74,1.74,0,0,0,1.26.47h1.78v2.31H368.21V89.81h1.48a2.43,2.43,0,0,0,1.64-.43,2.12,2.12,0,0,0,.54-1.57V77.31a6,6,0,0,0-1.15-3.91,3.66,3.66,0,0,0-3-1.39,4.85,4.85,0,0,0-2.61.77,6.36,6.36,0,0,0-2.06,2.39,6.54,6.54,0,0,0-.85,3v9.12a2.84,2.84,0,0,0,.47,1.9,2.41,2.41,0,0,0,1.79.65h1.29v2.31H352.32V89.84h1.55a2.42,2.42,0,0,0,1.71-.49,2.24,2.24,0,0,0,.48-1.65v-14a2.8,2.8,0,0,0-.33-1.5,2.14,2.14,0,0,0-1.07-.9,6.76,6.76,0,0,0-2.2-.22V68.82l9-.52a32.1,32.1,0,0,1,.68,5.17,15.47,15.47,0,0,1,4.32-4.25A8.68,8.68,0,0,1,371,68a6.58,6.58,0,0,1,4.25,1.41,8.28,8.28,0,0,1,2.54,4.26,15.51,15.51,0,0,1,4.42-4.42,8.75,8.75,0,0,1,4.58-1.3A6.56,6.56,0,0,1,392,70.21a9.28,9.28,0,0,1,1.92,6.34V87.71a2.37,2.37,0,0,0,.49,1.64,2,2,0,0,0,1.49.5Z"/><path class="cls-2" d="M422.4,80.63H407.06q.06,4.91,1.85,7.18a5.58,5.58,0,0,0,4.59,2.33,6.8,6.8,0,0,0,3.81-1.2,13.46,13.46,0,0,0,3.74-4.28l1.7,1.11a13.63,13.63,0,0,1-4.54,5.39,11.65,11.65,0,0,1-6.29,1.6,11.5,11.5,0,0,1-8.71-3.48,12.44,12.44,0,0,1-3.32-8.93,13.06,13.06,0,0,1,3.34-9.12,10.71,10.71,0,0,1,8.22-3.66A10.87,10.87,0,0,1,417.24,69,9.63,9.63,0,0,1,421,73.33a17.55,17.55,0,0,1,1.41,7.33Zm-15.34-2.28h7.3a1.8,1.8,0,0,0,1.48-.54,3.35,3.35,0,0,0,.44-2A7.08,7.08,0,0,0,415,71.32a3.82,3.82,0,0,0-3.16-1.58,3.77,3.77,0,0,0-3.41,2.16,14.86,14.86,0,0,0-1.37,6.44Zm.13-14-.65-.57L410.33,58c1.2-1.8,2.44-2.69,3.7-2.69a2.69,2.69,0,0,1,1.91.83,2.43,2.43,0,0,1,.85,1.8,2.7,2.7,0,0,1-.62,1.8,8,8,0,0,1-2.79,1.79l-6.19,2.94Z"/><path class="cls-2" d="M456.45,89.81v2.31H443.28V89.81h1.41a2.11,2.11,0,0,0,1.64-.6,2.51,2.51,0,0,0,.54-1.74V77.36a6.19,6.19,0,0,0-1.11-4,3.48,3.48,0,0,0-2.9-1.38,4.83,4.83,0,0,0-4,2,9.17,9.17,0,0,0-1.53,5.71v7.8a2.55,2.55,0,0,0,.54,1.74,1.85,1.85,0,0,0,1.42.6H441v2.31h-13.7V89.83H429a2,2,0,0,0,1.57-.6,2.55,2.55,0,0,0,.52-1.74V73.6a2.45,2.45,0,0,0-.76-1.9,2.76,2.76,0,0,0-2-.71h-.9V68.82l9.15-.52a39.68,39.68,0,0,1,.75,5.1,14.59,14.59,0,0,1,4.08-4.13A8.36,8.36,0,0,1,446,67.9a6.3,6.3,0,0,1,5.16,2.31,10.1,10.1,0,0,1,1.87,6.45V87.44a2.51,2.51,0,0,0,.54,1.8,2.26,2.26,0,0,0,1.7.55Z"/><path class="cls-2" d="M485.31,89.23l1,1.8a10.4,10.4,0,0,1-2.56,1.44,7.84,7.84,0,0,1-2.5.4A5.43,5.43,0,0,1,478,92a8.13,8.13,0,0,1-2.28-3.45,15.74,15.74,0,0,1-4.27,3.42,9.9,9.9,0,0,1-4.29.9A7.61,7.61,0,0,1,462,91.23a5.29,5.29,0,0,1-1.85-4.11,6.93,6.93,0,0,1,3.43-6q2.7-1.8,12-3.59V74.15a4.28,4.28,0,0,0-4.06-4.5h0a4.17,4.17,0,0,0-.5,0,5.45,5.45,0,0,0-2.81.72c-.54.32-.82.63-.82,1a1.84,1.84,0,0,0,.3.67,4.24,4.24,0,0,1,.66,2.22,3.05,3.05,0,0,1-.9,2.26,3.19,3.19,0,0,1-2.32.85,3.35,3.35,0,0,1-2.48-.9,3.29,3.29,0,0,1-.9-2.4,5.33,5.33,0,0,1,2.42-4.28,12.27,12.27,0,0,1,7.63-2.29,15.15,15.15,0,0,1,6.1,1.15,5.76,5.76,0,0,1,2.79,2.55,8.48,8.48,0,0,1,1.06,4.44V87.47a3.23,3.23,0,0,0,.47,1.94,1.56,1.56,0,0,0,1.28.59,3.39,3.39,0,0,0,1.8-.77Zm-9.73-9.53c-3.34.49-5.6,1.22-6.78,2.23a5,5,0,0,0-1.79,4,4,4,0,0,0,.83,2.69,3,3,0,0,0,2.33.9A4.87,4.87,0,0,0,474,87.73a7.11,7.11,0,0,0,1.54-4.83V79.7Z"/><path class="cls-2" d="M507.41,68.82c1.88-2.4,3.74-3.59,5.58-3.59a2.91,2.91,0,0,1,2.25.9,3.07,3.07,0,0,1,.85,2.23,2.87,2.87,0,0,1-.65,2,2.08,2.08,0,0,1-2.94.23l-.06,0a2.27,2.27,0,0,1-.64-1c-.25-.6-.55-.92-.89-1s-1.05.5-1.8,1.48a8.21,8.21,0,0,1,2.58,5.71A7.66,7.66,0,0,1,510.5,80a8.17,8.17,0,0,1-3.6,3,14.56,14.56,0,0,1-6,1.12L498.32,84a8,8,0,0,0-3.78.59,1.82,1.82,0,0,0-1,1.54,1.37,1.37,0,0,0,.63,1.21,4.88,4.88,0,0,0,2.62.54l2.16-.07c2.32-.14,4-.2,5.12-.2q5.44,0,7.58,1.65a5.42,5.42,0,0,1,2.15,4.62,7.08,7.08,0,0,1-2.46,5.62q-3,2.58-10.45,2.58c-4.25,0-7.19-.52-8.94-1.57s-2.62-2.31-2.62-3.72a3,3,0,0,1,1.1-2.31,11.48,11.48,0,0,1,4.66-1.87,6.68,6.68,0,0,1-3.48-1.7,4.26,4.26,0,0,1-1.18-3.08,4.81,4.81,0,0,1,.9-2.92,7.23,7.23,0,0,1,3.14-2.11,9.19,9.19,0,0,1-3.23-3,7.15,7.15,0,0,1-1.07-3.92,8.07,8.07,0,0,1,1.18-4.26,8.3,8.3,0,0,1,3.68-3,14.4,14.4,0,0,1,6-1.13,17.12,17.12,0,0,1,3.28.32,15.18,15.18,0,0,1,3.08,1Zm-6.51.9a3.34,3.34,0,0,0-2.76,1.61A7.86,7.86,0,0,0,497,75.94a7.44,7.44,0,0,0,1.14,4.5,3.3,3.3,0,0,0,4.55,1h0a3.29,3.29,0,0,0,1-1A7.43,7.43,0,0,0,504.84,76a7.58,7.58,0,0,0-1.16-4.5,3.39,3.39,0,0,0-2.83-1.61Zm9.19,26.47A2.23,2.23,0,0,0,508.55,94a13.93,13.93,0,0,0-4.68-.47c-4.37,0-7.19.32-8.45.94s-1.89,1.42-1.89,2.37A2.65,2.65,0,0,0,495,99.13c1,.6,2.85.9,5.59.9,3.59,0,6.14-.44,7.72-1.32a3,3,0,0,0,1.8-2.53Z"/><path class="cls-2" d="M541.31,80.63H526q.09,4.91,1.86,7.18a5.53,5.53,0,0,0,4.62,2.37,6.68,6.68,0,0,0,3.8-1.19,13.51,13.51,0,0,0,3.7-4.33l1.7,1.11a13.63,13.63,0,0,1-4.54,5.39,12.8,12.8,0,0,1-15-1.88,12.44,12.44,0,0,1-3.32-8.93,13,13,0,0,1,3.35-9.12,10.68,10.68,0,0,1,8.21-3.66A11,11,0,0,1,536.16,69a9.63,9.63,0,0,1,3.77,4.29,17.71,17.71,0,0,1,1.42,7.33ZM526,78.35h7.3a1.8,1.8,0,0,0,1.48-.54,3.35,3.35,0,0,0,.44-2,7.08,7.08,0,0,0-1.24-4.49,3.89,3.89,0,0,0-5.44-.83,4.07,4.07,0,0,0-1.18,1.39A14.85,14.85,0,0,0,526,78.32Z"/><path class="cls-2" d="M589.94,89.81v2.31H576.69V89.81H578a2.42,2.42,0,0,0,1.74-.52,2.33,2.33,0,0,0,.51-1.62V77.55a6.55,6.55,0,0,0-1.09-4.15,3.65,3.65,0,0,0-3-1.34,4.68,4.68,0,0,0-2.69.76,6.06,6.06,0,0,0-2,2.53,8.44,8.44,0,0,0-.82,3.5V88a2,2,0,0,0,.47,1.37,1.78,1.78,0,0,0,1.27.47h1.79v2.31H560.78V89.81h1.49a2.43,2.43,0,0,0,1.62-.39,2.17,2.17,0,0,0,.54-1.57V77.31a6,6,0,0,0-1.18-3.91,3.66,3.66,0,0,0-3-1.39,4.85,4.85,0,0,0-2.61.77,6.36,6.36,0,0,0-2.06,2.39,6.54,6.54,0,0,0-.85,3v9.12a2.84,2.84,0,0,0,.47,1.9,2.41,2.41,0,0,0,1.79.65h1.29v2.31H544.8V89.84h1.54a2.44,2.44,0,0,0,1.72-.49,2.24,2.24,0,0,0,.47-1.65v-14a2.71,2.71,0,0,0-.33-1.5,2.1,2.1,0,0,0-1.07-.9,6.76,6.76,0,0,0-2.2-.22V68.82L554,68.3a32.1,32.1,0,0,1,.68,5.17A15.47,15.47,0,0,1,559,69.22,8.77,8.77,0,0,1,563.49,68a6.6,6.6,0,0,1,4.34,1.41,8.28,8.28,0,0,1,2.54,4.26,15.51,15.51,0,0,1,4.42-4.42,8.75,8.75,0,0,1,4.58-1.3,6.56,6.56,0,0,1,5.25,2.22,9.28,9.28,0,0,1,1.92,6.34V87.71a2.37,2.37,0,0,0,.49,1.64,2,2,0,0,0,1.49.5Z"/><path class="cls-2" d="M615,80.63H599.62q.07,4.91,1.85,7.18a5.59,5.59,0,0,0,4.64,2.37A6.79,6.79,0,0,0,609.92,89a13.59,13.59,0,0,0,3.69-4.33l1.71,1.11a13.57,13.57,0,0,1-4.55,5.39,11.65,11.65,0,0,1-6.29,1.6,11.46,11.46,0,0,1-8.7-3.48,12.45,12.45,0,0,1-3.33-8.93,13.09,13.09,0,0,1,3.33-9.17,11.35,11.35,0,0,1,14-2.14,9.71,9.71,0,0,1,3.78,4.29A17.78,17.78,0,0,1,615,80.67Zm-15.35-2.28h7.31a1.79,1.79,0,0,0,1.46-.54,3.14,3.14,0,0,0,.45-2,7,7,0,0,0-1.24-4.49,3.9,3.9,0,0,0-6.61.56,14.86,14.86,0,0,0-1.37,6.44Z"/><path class="cls-2" d="M649,89.81v2.31H635.85V89.81h1.37a2.08,2.08,0,0,0,1.64-.6,2.45,2.45,0,0,0,.54-1.74V77.36a6.12,6.12,0,0,0-1.1-4A3.48,3.48,0,0,0,635.4,72a4.81,4.81,0,0,0-4,2,9.09,9.09,0,0,0-1.55,5.71v7.8a2.6,2.6,0,0,0,.56,1.74,1.81,1.81,0,0,0,1.41.6h1.66v2.31H619.81V89.83h1.8a2,2,0,0,0,1.56-.6,2.5,2.5,0,0,0,.52-1.74V73.6a2.41,2.41,0,0,0-.75-1.9,2.82,2.82,0,0,0-2-.71H620V68.82l9.15-.52a36.46,36.46,0,0,1,.75,5.1A14.72,14.72,0,0,1,634,69.27a8.41,8.41,0,0,1,4.58-1.37,6.27,6.27,0,0,1,5.15,2.31,10,10,0,0,1,1.87,6.45V87.44a2.55,2.55,0,0,0,.54,1.8,2.27,2.27,0,0,0,1.71.55Z"/><path class="cls-2" d="M659.44,59.24h2.08v9.58h7.23v2.7h-7.23v14.8a3.46,3.46,0,0,0,.7,2.28,2.37,2.37,0,0,0,1.86.81c2.19,0,3.35-2.17,3.48-6.49h2.07a14.13,14.13,0,0,1-1,5.6,7.18,7.18,0,0,1-6.8,4.35,6.69,6.69,0,0,1-3.41-.84,6.19,6.19,0,0,1-2.3-2.54,8.17,8.17,0,0,1-.85-3.59V71.53h-3.88v-2.3A8.46,8.46,0,0,0,657,66.31,13.12,13.12,0,0,0,659.44,59.24Z"/></g></g></g></g></g></g></svg>