<svg xmlns="http://www.w3.org/2000/svg" viewBox="0 0 181.98 121.75"><defs><style>.cls-1{fill:#429d35;fill-rule:evenodd;}</style></defs><title>logo_illustration</title><g id="Calque_2" data-name="Calque 2"><g id="Calque_1-2" data-name="Calque 1"><path class="cls-1" d="M102.63,63.13c1.57-3.3,5.74-6.14,10.4-8.46C122.4,50.38,131.11,47,131.17,47s.23-.44.1-.62c-8.44-1.06-22.81,3.51-24.4,4.11-8.64,3.23-16.56,8.73-16.6,18.07-.33,5.58,4.62,9.35,9.3,11.66a70.55,70.55,0,0,0,8.36,3.07c5,1.49,18.31,5.82,17.83,10.81.42,7.53-32.66,20.69-64.13,12.63l-3.4-.88c-.13,0-1.89.1-.35,1l0,0c14,6.77,34.22,4.79,34.82,4.74,2.26-.19,4.72-.45,7.44-.8,11.88-1.53,22.84-5.17,28.17-11.7C133.48,91.9,124.51,86.31,124,86c-7.6-4.66-22.81-6.88-26.93-11.35-5.87-4.95-2.69-11-1.22-13.15,3.17-4.9,10.18-8.2,15.92-10.19a77,77,0,0,1,14.77-3.42h.38c-1.59.33-10.57,3.22-11.61,3.61-7.85,2.94-17,7.89-16.71,14.86a9.71,9.71,0,0,0,3.3,6c2,2,7.45,3.51,7.54,3.53,20.53,6,26.09,9.55,28,11.24.32.28,4.39,4,3.44,9.33C139,106.73,123.09,113.11,111.38,116a107.75,107.75,0,0,1-31.13,2.23,119.06,119.06,0,0,1-16-3,73.51,73.51,0,0,1-12.8-5.47C26,93.09,27.9,71.08,28.44,67.31l.18-1.21a96,96,0,0,1,10.63,0c25.22,1,36.34-.59,41.22-1.92A27.57,27.57,0,0,0,99.82,46c1.77-5.12,2.9-13.5,1.59-19.33a28.61,28.61,0,0,0-1.32-4.44c10.7-8.54,11.82-19,12-21.07s-1.2-.61-1.2-.56v.1A43.32,43.32,0,0,1,98,17.59l0-.09c0-.08-2.11-2.5-2.11-2.48v0h-.09a1.53,1.53,0,0,1,0,.46c0,.07-.08.08-.1.13h0c0,.06.19,3.29.18,3.34v0H95.7a51.09,51.09,0,0,1-6.78,3.52c-6,2.6-9.77,2.87-16.13,4.35-2.89.67-6.23,1.51-9.67,2.48C50.61,32.89,40.9,36.54,32.43,46.89a38.24,38.24,0,0,0-7.9,16l-.15.65-1.22.19A38.79,38.79,0,0,0,0,77.08v.42a1.34,1.34,0,0,1,.25-.15C14.69,67.21,23.4,66.78,23.63,66.71l.34,0-.08.54c0,.32-6,29.27,28.13,47.13,9.92,4.88,21,6.83,31.51,7.26,13,.75,29.28-1.32,40.9-5.81a44.79,44.79,0,0,0,17.2-11.42c3.82-4.82,5.49-10.42,1.93-15.9-2.38-3.66-8.85-9-26.48-13.48-3.48-.87-6-1.65-7.92-2.33a13,13,0,0,1-6.23-4.24c-2.22-3.06.92-7.87-.3-5.29ZM97.24,24.57A35.86,35.86,0,0,1,98,31.25a30.85,30.85,0,0,1-3.43,14.37C89.43,55.25,81.83,60,69.44,61.49c-7,.87-18.09,1.06-29.76,1-3.53.1-7.12.23-10.47.39a1.51,1.51,0,0,1,.08-.79c5-18.57,27.7-24.26,28.26-24.4,5-1.29,30-7.7,30-7.66v.14h-.09v.09h.1A90.59,90.59,0,0,1,58.06,45.16C53.58,46.5,36,52,33,59a.79.79,0,0,0,0,.33l.44.11C41.33,51.64,62,47.32,62.14,47.22l.21-.11v0c0,.09-1.08,7.45-12.28,12.82v.32a2.75,2.75,0,0,0,.8,0C60.29,58.22,64.45,47,64.54,46.8l.06-.13c0-.08,10.2-3.33,10.2-3.36v-.25L75,43v.09h.1v0s-1.64,12.06-9.4,17.67l0,.05s-.31.7.7.39A26.93,26.93,0,0,0,76.77,42.77v-.05l.06-.29c4.42-2.58,8.61-5.73,8.75-5.71s-.17,6.19-.21,6.81c-.16,2.38-.89,8.55-4.38,12.34h0l0,.06c-1.12,1.63.83.53.84.52,4.56-5,5.48-12.55,5.63-16.77.06-1.87.3-4.27.31-4.28.41-.56,9.38-10.73,9.5-10.81l0,0Z"/><polygon class="cls-1" points="139.92 21.77 137.29 21.77 137.29 26.26 139.92 26.26 139.92 21.77 139.92 21.77"/><polygon class="cls-1" points="127.21 21.55 124.58 21.55 124.58 26.04 127.21 26.04 127.21 21.55 127.21 21.55"/><path class="cls-1" d="M146.4,33.66v11h3V36.4l.11-2.74,12.5.11,9.42-9.1L180.5,34V45H182V31.47l-8.55-9.21L163,22.37l-5.92-5.81-26.31.11L128.46,19l-2.56-.1,1.59,1.65,0-.05.84.81v7h-5V24l-9.51,9.38h4.49v11h3V38.76l0-5.43,19.19.22,14.91-14.47,3.29,3.07-3.73.22L144.05,33.66Zm-10.27-5.15v-7l2.46-2.41,2.5,2.38v7Z"/><polygon class="cls-1" points="178.36 35.2 168.6 35.2 168.6 44.95 178.36 44.95 178.36 35.2 178.36 35.2"/><polygon class="cls-1" points="134 35.39 127.48 35.39 127.48 44.41 134 44.41 134 35.39 134 35.39"/></g></g></svg>