<svg xmlns="http://www.w3.org/2000/svg" viewBox="0 0 475.71 182.84"><defs><style>.cls-1{fill:#429d35;}.cls-1,.cls-2{fill-rule:evenodd;}</style></defs><title>logo</title><g id="Calque_2" data-name="Calque 2"><g id="Calque_1-2" data-name="Calque 1"><path class="cls-1" d="M224.5,124.22c1.56-3.3,5.73-6.14,10.4-8.46,9.36-4.29,18.08-7.63,18.14-7.71s.23-.44.09-.62c-8.43-1.06-22.8,3.52-24.39,4.11-8.64,3.23-16.57,8.73-16.61,18.07-.32,5.58,4.63,9.36,9.31,11.66a70.55,70.55,0,0,0,8.36,3.07c5,1.49,18.31,5.82,17.83,10.81.41,7.53-32.66,20.69-64.13,12.63l-3.4-.88c-.14,0-1.89.1-.36,1l0,0c14,6.77,34.21,4.79,34.81,4.74,2.26-.18,4.73-.45,7.45-.8,11.88-1.53,22.84-5.17,28.16-11.7,5.14-7.14-3.83-12.74-4.37-13.07-7.61-4.66-22.81-6.88-26.93-11.35-5.88-4.94-2.69-11-1.23-13.15,3.18-4.9,10.18-8.2,15.92-10.19A77.16,77.16,0,0,1,248.38,109h.38c-1.59.33-10.57,3.22-11.61,3.61-7.86,3-17,7.89-16.71,14.86a9.8,9.8,0,0,0,3.29,6c2.06,2,7.46,3.5,7.54,3.52,20.53,6,26.09,9.56,28,11.24.31.28,4.38,4,3.43,9.33-1.83,10.35-17.7,16.73-29.41,19.63a107.43,107.43,0,0,1-31.13,2.23,120.89,120.89,0,0,1-16-3,73.81,73.81,0,0,1-12.79-5.48c-25.43-16.66-23.55-38.67-23-42.44l.17-1.21a96,96,0,0,1,10.63,0c25.23,1,36.34-.59,41.22-1.92a27.53,27.53,0,0,0,19.35-18.2c1.78-5.12,2.9-13.5,1.59-19.33A26.31,26.31,0,0,0,222,83.28c10.7-8.54,11.83-19,12-21.07s-1.2-.61-1.2-.56v.11a43.47,43.47,0,0,1-12.94,16.93l0-.1c0-.08-2.1-2.5-2.1-2.48v0h-.1a1.44,1.44,0,0,1,0,.46c0,.07-.08.08-.11.13h0c0,.06.19,3.29.19,3.34v0h-.09a49.69,49.69,0,0,1-6.78,3.52c-6,2.6-9.78,2.88-16.13,4.35-2.9.67-6.24,1.51-9.67,2.48C172.48,94,162.77,97.63,154.3,108a38,38,0,0,0-7.9,16l-.15.66-1.22.18a38.83,38.83,0,0,0-23.15,13.37v.42a1,1,0,0,1,.25-.15c14.43-10.14,23.15-10.57,23.37-10.64l.35,0-.08.54c0,.32-6,29.27,28.12,47.13,9.92,4.88,21.05,6.83,31.52,7.26,13,.75,29.27-1.32,40.9-5.81a44.86,44.86,0,0,0,17.2-11.42c3.82-4.82,5.49-10.42,1.93-15.9-2.39-3.66-8.86-9.05-26.49-13.48-3.47-.87-6-1.65-7.92-2.33a12.93,12.93,0,0,1-6.22-4.24c-2.23-3.06.92-7.87-.3-5.29Zm-5.39-38.56a35.86,35.86,0,0,1,.72,6.68,30.86,30.86,0,0,1-3.44,14.37c-5.09,9.63-12.69,14.35-25.08,15.87-7.06.87-18.1,1.06-29.76,1-3.53.1-7.13.23-10.48.39a1.44,1.44,0,0,1,.09-.79c5-18.57,27.69-24.26,28.25-24.4,5-1.29,30-7.7,30-7.66v.14h-.09v.09h.09a90.47,90.47,0,0,1-29.47,14.89c-4.49,1.34-22.11,6.85-25.06,13.83a1,1,0,0,0,0,.33s.23.07.45.11c7.91-7.79,28.53-12.11,28.73-12.21l.2-.1,0,0c0,.1-1.09,7.45-12.28,12.83v.31a2.72,2.72,0,0,0,.8,0c9.42-2.11,13.58-13.38,13.66-13.53l.07-.13c0-.08,10.2-3.33,10.2-3.36v-.24l.18-.09v.09H197v0s-1.64,12.06-9.4,17.67l-.05.05c0,.06-.3.7.71.4a27,27,0,0,0,10.43-18.44v0l.06-.29c4.41-2.58,8.61-5.72,8.74-5.71s-.17,6.19-.21,6.81c-.15,2.38-.88,8.55-4.37,12.34h0l0,.06c-1.13,1.63.82.54.83.52,4.56-5,5.49-12.55,5.64-16.76.06-1.88.3-4.28.31-4.29.41-.56,9.38-10.73,9.5-10.81l0,0Z"/><polygon class="cls-1" points="261.79 82.86 259.16 82.86 259.16 87.35 261.79 87.35 261.79 82.86 261.79 82.86"/><polygon class="cls-1" points="249.07 82.64 246.44 82.64 246.44 87.13 249.07 87.13 249.07 82.64 249.07 82.64"/><path class="cls-1" d="M268.27,94.75v11h3V97.49l.11-2.74,12.49.11,9.43-9.1,9.05,9.37V106h1.48V92.56l-8.56-9.21-10.41.11L279,77.65l-26.31.11-2.32,2.29-2.56-.1,1.59,1.65,0,0,.85.8v7h-5V85l-9.51,9.38h4.49v11h3V99.85l.05-5.43,19.19.22,14.9-14.47,3.29,3.07-3.72.22L265.91,94.75ZM258,89.6v-7l2.47-2.41L263,82.58v7Z"/><polygon class="cls-1" points="300.23 96.29 290.47 96.29 290.47 106.04 300.23 106.04 300.23 96.29 300.23 96.29"/><polygon class="cls-1" points="255.87 96.48 249.35 96.48 249.35 105.5 255.87 105.5 255.87 96.48 255.87 96.48"/><path class="cls-2" d="M15.42,21.18a12.15,12.15,0,0,1,6.43,4A10.21,10.21,0,0,1,24,31.69a10.42,10.42,0,0,1-3.36,8.07q-3.36,3.08-9.41,3.08-5.35,0-8.31-2.67A8.83,8.83,0,0,1,0,33.34a5.94,5.94,0,0,1,1.2-4A3.86,3.86,0,0,1,4.29,28,3.66,3.66,0,0,1,7.07,29.1a3.93,3.93,0,0,1,1.08,2.82,4.12,4.12,0,0,1-2.23,3.66,5.17,5.17,0,0,0-1.14.84,1.14,1.14,0,0,0-.2.68,2.28,2.28,0,0,0,1.23,1.83,7,7,0,0,0,4.06,1.22,5.57,5.57,0,0,0,4.6-2.1q1.68-2.11,1.68-6.54T14.6,25a4.72,4.72,0,0,0-3.95-2.1,7.78,7.78,0,0,0-1.51.19,8.65,8.65,0,0,1-1.38.17,1.53,1.53,0,0,1-1.14-.43,1.66,1.66,0,0,1-.42-1.21,1.75,1.75,0,0,1,.44-1.29A1.93,1.93,0,0,1,8,19.92,8.52,8.52,0,0,1,9,20a11.45,11.45,0,0,0,1.35.11,4.41,4.41,0,0,0,3.68-1.72c.86-1.13,1.3-3,1.3-5.65S14.88,8.19,13.91,7A5,5,0,0,0,9.79,5.24,5,5,0,0,0,7,5.87a1.75,1.75,0,0,0-.95,1.36,1,1,0,0,0,.13.57A4.67,4.67,0,0,0,7,8.53a6.93,6.93,0,0,1,1.66,1.82A3.75,3.75,0,0,1,9,12.14a3.8,3.8,0,0,1-1,2.75A3.55,3.55,0,0,1,5.31,16a3.53,3.53,0,0,1-2.8-1.35,5.21,5.21,0,0,1-1.13-3.47A8.17,8.17,0,0,1,3.49,5.68C5.3,3.56,7.94,2.49,11.41,2.49a13.15,13.15,0,0,1,6,1.29,9.11,9.11,0,0,1,5.17,8.32A8.49,8.49,0,0,1,21,17.22a13.11,13.11,0,0,1-5.54,4Z"/><path class="cls-2" d="M29.25,3.6V1H49V3.6H45.69a2.8,2.8,0,0,0-2,.58,2.64,2.64,0,0,0-.57,1.89V36.55a3.41,3.41,0,0,0,.55,2.37,4.17,4.17,0,0,0,2.57.51h5.55q3.11,0,5.78-3.13t4.12-10H64L63.14,42H29.25V39.43h3.39a2.2,2.2,0,0,0,1.69-.61,2.41,2.41,0,0,0,.57-1.72V5.76a2.11,2.11,0,0,0-.58-1.65,3.11,3.11,0,0,0-2-.51Z"/><path class="cls-2" d="M102.58,0,117,36.77a4.94,4.94,0,0,0,1.35,2.11,3.11,3.11,0,0,0,1.93.55h1.41V42H103.64V39.43h1.7A5.74,5.74,0,0,0,108.1,39a1.42,1.42,0,0,0,.75-1.25,4,4,0,0,0-.31-1.41l-3-7.59H91.15l-1.37,3.46a9.66,9.66,0,0,0-.86,3.22,3.72,3.72,0,0,0,1.25,2.92,4.91,4.91,0,0,0,3.42,1.12h1.22V42H80.17V39.43H81a3.62,3.62,0,0,0,2.48-.94,8.87,8.87,0,0,0,2.36-3.41L99.66,0ZM98.39,10.37,92.22,26h12.29L98.39,10.37Z"/><path class="cls-2" d="M172.64,39.43V42H157.93V39.43h1.51a2.63,2.63,0,0,0,1.94-.58,2.54,2.54,0,0,0,.56-1.8V25.79a7.3,7.3,0,0,0-1.21-4.62,4.11,4.11,0,0,0-3.38-1.5,5.34,5.34,0,0,0-3,.85,6.61,6.61,0,0,0-2.18,2.82,9.38,9.38,0,0,0-.91,3.89V37.38a2.13,2.13,0,0,0,.52,1.53,1.9,1.9,0,0,0,1.41.52h2V42h-15V39.43h1.66a2.63,2.63,0,0,0,1.83-.47,2.4,2.4,0,0,0,.6-1.75V25.52A6.57,6.57,0,0,0,143,21.17a4.13,4.13,0,0,0-3.3-1.55,5.32,5.32,0,0,0-2.91.86,6.84,6.84,0,0,0-2.29,2.66,7.2,7.2,0,0,0-.95,3.3V36.6a3.13,3.13,0,0,0,.52,2.11,2.64,2.64,0,0,0,2,.72h1.43V42h-15V39.43h1.72a2.66,2.66,0,0,0,1.91-.54,2.55,2.55,0,0,0,.53-1.84V21.47a3.21,3.21,0,0,0-.37-1.67,2.41,2.41,0,0,0-1.19-1,7.81,7.81,0,0,0-2.45-.25V16.07l10.06-.58a38.27,38.27,0,0,1,.75,5.76,17.26,17.26,0,0,1,4.81-4.74,9.76,9.76,0,0,1,5-1.35A7.32,7.32,0,0,1,148,16.73a9.24,9.24,0,0,1,2.83,4.74,17,17,0,0,1,4.92-4.92,9.77,9.77,0,0,1,5.1-1.45,7.32,7.32,0,0,1,5.84,2.47c1.43,1.66,2.14,4,2.14,7.06V37.05a2.57,2.57,0,0,0,.54,1.83,2.22,2.22,0,0,0,1.66.55Z"/><path class="cls-2" d="M200.51,29.21H183.43q.07,5.46,2.06,8a6.19,6.19,0,0,0,5.11,2.59,7.58,7.58,0,0,0,4.24-1.33A15.06,15.06,0,0,0,199,33.7l1.9,1.24a15.26,15.26,0,0,1-5.06,6,12.92,12.92,0,0,1-7,1.78,12.75,12.75,0,0,1-9.69-3.88,13.79,13.79,0,0,1-3.7-9.94,14.49,14.49,0,0,1,3.72-10.15,11.94,11.94,0,0,1,9.15-4.07,12.16,12.16,0,0,1,6.44,1.64,10.88,10.88,0,0,1,4.2,4.78,19.7,19.7,0,0,1,1.57,8.16Zm-17.08-2.53h8.13a2,2,0,0,0,1.64-.6,3.74,3.74,0,0,0,.49-2.22,7.93,7.93,0,0,0-1.38-5,4.28,4.28,0,0,0-3.51-1.76A4.2,4.2,0,0,0,185,19.51a16.23,16.23,0,0,0-1.52,7.17Zm.15-15.6-.73-.63,4.22-6.4c1.34-2,2.71-3,4.12-3a3,3,0,0,1,2.12.93,2.73,2.73,0,0,1,.95,2,3,3,0,0,1-.69,2,9.37,9.37,0,0,1-3.11,2l-6.88,3.27Z"/><path class="cls-2" d="M238.41,39.43V42H223.75V39.43h1.53a2.35,2.35,0,0,0,1.83-.66,2.82,2.82,0,0,0,.6-1.94V25.58a6.93,6.93,0,0,0-1.23-4.42,3.94,3.94,0,0,0-3.23-1.54,5.37,5.37,0,0,0-4.43,2.17q-1.71,2.17-1.71,6.36v8.68a2.77,2.77,0,0,0,.61,1.94,2,2,0,0,0,1.57.66h1.85V42H205.9V39.43h2a2.2,2.2,0,0,0,1.74-.66,2.86,2.86,0,0,0,.58-1.94V21.39a2.79,2.79,0,0,0-.84-2.12,3.18,3.18,0,0,0-2.23-.79h-1V16.07l10.18-.58a42.5,42.5,0,0,1,.84,5.68,16.17,16.17,0,0,1,4.54-4.6,9.36,9.36,0,0,1,5.09-1.52,7,7,0,0,1,5.74,2.57,11.18,11.18,0,0,1,2.08,7.18v12a2.75,2.75,0,0,0,.6,2,2.55,2.55,0,0,0,1.9.61Z"/><path class="cls-2" d="M270.53,38.79l1.1,2a11.48,11.48,0,0,1-2.85,1.61,8.53,8.53,0,0,1-2.78.44,6,6,0,0,1-3.62-1A8.92,8.92,0,0,1,259.85,38a17.81,17.81,0,0,1-4.76,3.81,11,11,0,0,1-4.77,1,8.41,8.41,0,0,1-5.73-1.8,5.82,5.82,0,0,1-2.06-4.57,7.71,7.71,0,0,1,3.81-6.71q3-2,13.36-4V22a4.77,4.77,0,0,0-5.08-5,6,6,0,0,0-3.13.81c-.6.35-.91.7-.91,1.05a1.8,1.8,0,0,0,.34.83,4.84,4.84,0,0,1,.73,2.47,3.4,3.4,0,0,1-1,2.51,3.55,3.55,0,0,1-2.58.95,3.69,3.69,0,0,1-2.76-1,3.59,3.59,0,0,1-1-2.67A5.9,5.9,0,0,1,247,17.18a13.77,13.77,0,0,1,8.49-2.55,17.11,17.11,0,0,1,6.8,1.28,6.47,6.47,0,0,1,3.09,2.81,9.59,9.59,0,0,1,1.18,4.94V36.83a3.54,3.54,0,0,0,.52,2.16,1.73,1.73,0,0,0,1.43.66,3.73,3.73,0,0,0,2-.86ZM259.7,28.18c-3.72.54-6.23,1.36-7.54,2.48a5.53,5.53,0,0,0-2,4.42,4.33,4.33,0,0,0,.93,3,3.29,3.29,0,0,0,2.59,1,5.43,5.43,0,0,0,4.28-2,7.9,7.9,0,0,0,1.71-5.37V28.18Z"/><path class="cls-2" d="M295.13,16.07q3.14-4,6.21-4a3.32,3.32,0,0,1,2.51,1,3.47,3.47,0,0,1,.94,2.49,3.18,3.18,0,0,1-.72,2.18,2.33,2.33,0,0,1-4-.93q-.42-1-1-1.05-.74,0-2,1.65a9.23,9.23,0,0,1,2.82,6.36,8.59,8.59,0,0,1-1.33,4.71,9.12,9.12,0,0,1-4,3.35,16.09,16.09,0,0,1-6.74,1.25L285,33a9,9,0,0,0-4.2.66,2,2,0,0,0-1.12,1.71,1.5,1.5,0,0,0,.71,1.35,5.42,5.42,0,0,0,2.91.6l2.4-.08c2.59-.15,4.49-.22,5.7-.22q6.07,0,8.44,1.83A6.07,6.07,0,0,1,302.23,44a7.87,7.87,0,0,1-2.73,6.25c-2.22,1.92-6.11,2.88-11.64,2.88-4.73,0-8-.58-9.95-1.75S275,48.81,275,47.24a3.41,3.41,0,0,1,1.22-2.58c.82-.74,2.55-1.44,5.19-2.08a7.45,7.45,0,0,1-3.88-1.89,4.68,4.68,0,0,1-1.31-3.43,5.36,5.36,0,0,1,1-3.25,8,8,0,0,1,3.5-2.35,10.07,10.07,0,0,1-3.6-3.3A7.9,7.9,0,0,1,275.93,24a8.78,8.78,0,0,1,1.32-4.75,9.16,9.16,0,0,1,4.09-3.38,16.1,16.1,0,0,1,6.71-1.26,18.29,18.29,0,0,1,3.65.36,17.29,17.29,0,0,1,3.43,1.08Zm-7.24,1a3.72,3.72,0,0,0-3.07,1.79A8.69,8.69,0,0,0,283.53,24a8.31,8.31,0,0,0,1.27,5A3.66,3.66,0,0,0,291,28.9a8.35,8.35,0,0,0,1.3-5,8.54,8.54,0,0,0-1.3-5,3.81,3.81,0,0,0-3.15-1.8Zm10.23,29.46a2.5,2.5,0,0,0-1.72-2.39,15.89,15.89,0,0,0-5.21-.52c-4.86,0-8,.35-9.4,1.05s-2.11,1.58-2.11,2.63a2.92,2.92,0,0,0,1.64,2.51c1.09.67,3.17,1,6.22,1,4,0,6.84-.49,8.6-1.47a3.29,3.29,0,0,0,2-2.82Z"/><path class="cls-2" d="M332.87,29.21H315.78q.08,5.46,2.07,8A6.16,6.16,0,0,0,323,39.85a7.55,7.55,0,0,0,4.23-1.33,15.06,15.06,0,0,0,4.11-4.82l1.9,1.24a15.26,15.26,0,0,1-5.06,6,14.23,14.23,0,0,1-16.66-2.1,13.79,13.79,0,0,1-3.7-9.94,14.46,14.46,0,0,1,3.73-10.15,11.92,11.92,0,0,1,9.14-4.07,12.22,12.22,0,0,1,6.45,1.64,10.92,10.92,0,0,1,4.19,4.78,19.85,19.85,0,0,1,1.58,8.16Zm-17.09-2.53h8.13a2,2,0,0,0,1.64-.6,3.67,3.67,0,0,0,.49-2.22,7.93,7.93,0,0,0-1.38-5,4.33,4.33,0,0,0-7.36.63,16.37,16.37,0,0,0-1.52,7.17Z"/><path class="cls-2" d="M387,39.43V42H372.28V39.43h1.51a2.63,2.63,0,0,0,1.94-.58,2.54,2.54,0,0,0,.56-1.8V25.79a7.3,7.3,0,0,0-1.21-4.62,4.11,4.11,0,0,0-3.38-1.5,5.34,5.34,0,0,0-3,.85,6.61,6.61,0,0,0-2.18,2.82,9.23,9.23,0,0,0-.91,3.89V37.38a2.09,2.09,0,0,0,.52,1.53,1.9,1.9,0,0,0,1.41.52h2V42h-15V39.43h1.66A2.65,2.65,0,0,0,358,39a2.4,2.4,0,0,0,.6-1.75V25.52a6.57,6.57,0,0,0-1.31-4.35,4.13,4.13,0,0,0-3.3-1.55,5.32,5.32,0,0,0-2.91.86,6.84,6.84,0,0,0-2.29,2.66,7.2,7.2,0,0,0-.95,3.3V36.6a3.13,3.13,0,0,0,.52,2.11,2.64,2.64,0,0,0,2,.72h1.43V42H336.75V39.43h1.72a2.66,2.66,0,0,0,1.91-.54,2.55,2.55,0,0,0,.53-1.84V21.47a3.21,3.21,0,0,0-.37-1.67,2.41,2.41,0,0,0-1.19-1,7.81,7.81,0,0,0-2.45-.25V16.07L347,15.49a38.27,38.27,0,0,1,.75,5.76,17.26,17.26,0,0,1,4.81-4.74,9.76,9.76,0,0,1,5-1.35,7.32,7.32,0,0,1,4.83,1.57,9.24,9.24,0,0,1,2.83,4.74,17,17,0,0,1,4.92-4.92,9.77,9.77,0,0,1,5.1-1.45,7.32,7.32,0,0,1,5.84,2.47c1.43,1.66,2.14,4,2.14,7.06V37.05a2.57,2.57,0,0,0,.54,1.83,2.22,2.22,0,0,0,1.66.55Z"/><path class="cls-2" d="M414.86,29.21H397.78q.08,5.46,2.06,8A6.19,6.19,0,0,0,405,39.85a7.58,7.58,0,0,0,4.24-1.33,15.06,15.06,0,0,0,4.11-4.82l1.9,1.24a15.26,15.26,0,0,1-5.06,6,12.92,12.92,0,0,1-7,1.78,12.75,12.75,0,0,1-9.69-3.88,13.79,13.79,0,0,1-3.7-9.94A14.49,14.49,0,0,1,393.5,18.7a11.94,11.94,0,0,1,9.15-4.07,12.16,12.16,0,0,1,6.44,1.64,10.88,10.88,0,0,1,4.2,4.78,19.7,19.7,0,0,1,1.57,8.16Zm-17.08-2.53h8.13a2,2,0,0,0,1.63-.6,3.66,3.66,0,0,0,.5-2.22,7.93,7.93,0,0,0-1.38-5,4.28,4.28,0,0,0-3.51-1.76,4.2,4.2,0,0,0-3.85,2.39,16.23,16.23,0,0,0-1.52,7.17Z"/><path class="cls-2" d="M452.76,39.43V42H438.1V39.43h1.53a2.35,2.35,0,0,0,1.83-.66,2.82,2.82,0,0,0,.6-1.94V25.58a6.93,6.93,0,0,0-1.23-4.42,3.94,3.94,0,0,0-3.23-1.54,5.37,5.37,0,0,0-4.43,2.17c-1.14,1.45-1.72,3.57-1.72,6.36v8.68a2.77,2.77,0,0,0,.62,1.94,2,2,0,0,0,1.57.66h1.85V42H420.25V39.43h2a2.2,2.2,0,0,0,1.74-.66,2.86,2.86,0,0,0,.58-1.94V21.39a2.79,2.79,0,0,0-.84-2.12,3.18,3.18,0,0,0-2.23-.79h-1V16.07l10.18-.58a41.06,41.06,0,0,1,.83,5.68,16.32,16.32,0,0,1,4.55-4.6,9.36,9.36,0,0,1,5.09-1.52,7,7,0,0,1,5.74,2.57,11.18,11.18,0,0,1,2.08,7.18v12a2.75,2.75,0,0,0,.6,2,2.55,2.55,0,0,0,1.9.61Z"/><path class="cls-2" d="M464.36,5.4h2.32V16.07h8.05v3h-8.05V35.55a3.76,3.76,0,0,0,.78,2.54,2.6,2.6,0,0,0,2.07.9q3.66,0,3.87-7.23h2.31A15.9,15.9,0,0,1,474.57,38,8,8,0,0,1,467,42.84a7.3,7.3,0,0,1-3.79-.94,6.71,6.71,0,0,1-2.56-2.82,8.85,8.85,0,0,1-.95-4v-16H455.4V16.52a9.35,9.35,0,0,0,6.19-3.25q2.22-2.68,2.77-7.87Z"/></g></g></svg>