<svg id="eoA2Ds9zu8T1" xmlns="http://www.w3.org/2000/svg" xmlns:xlink="http://www.w3.org/1999/xlink" viewBox="0 0 500 390" shape-rendering="geometricPrecision" text-rendering="geometricPrecision"><style><![CDATA[#eoA2Ds9zu8T3_to {animation: eoA2Ds9zu8T3_to__to 2000ms linear infinite normal forwards}@keyframes eoA2Ds9zu8T3_to__to { 0% {transform: translate(408px,342.450039px)} 5% {transform: translate(408px,338.632346px)} 10% {transform: translate(408px,342.450039px)} 15% {transform: translate(408px,338.632346px)} 20% {transform: translate(408px,342.450039px)} 25% {transform: translate(408px,338.632346px)} 30% {transform: translate(408px,342.450039px)} 35% {transform: translate(408px,338.632346px)} 40% {transform: translate(408px,342.450039px)} 45% {transform: translate(408px,338.632346px)} 50% {transform: translate(408px,342.450039px)} 55% {transform: translate(408px,338.632346px)} 60% {transform: translate(408px,342.450039px)} 65% {transform: translate(408px,338.632346px)} 70% {transform: translate(408px,342.450039px)} 75% {transform: translate(408px,338.632346px)} 80% {transform: translate(408px,342.450039px)} 85% {transform: translate(408px,338.632346px)} 90% {transform: translate(408px,342.450039px)} 95% {transform: translate(408px,338.632346px)} 100% {transform: translate(408px,342.450039px)}} #eoA2Ds9zu8T24 {animation: eoA2Ds9zu8T24_s_do 2000ms linear infinite normal forwards}@keyframes eoA2Ds9zu8T24_s_do { 0% {stroke-dashoffset: 0} 100% {stroke-dashoffset: -400}} #eoA2Ds9zu8T25 {animation: eoA2Ds9zu8T25_s_do 2000ms linear infinite normal forwards}@keyframes eoA2Ds9zu8T25_s_do { 0% {stroke-dashoffset: 0} 100% {stroke-dashoffset: -400}} #eoA2Ds9zu8T26 {animation: eoA2Ds9zu8T26_s_do 2000ms linear infinite normal forwards}@keyframes eoA2Ds9zu8T26_s_do { 0% {stroke-dashoffset: 0} 100% {stroke-dashoffset: -400}}]]></style><g transform="matrix(.550145 0 0 0.550148 1.931796 2.741811)"><g id="eoA2Ds9zu8T3_to" transform="translate(408,342.450039)"><g transform="translate(-408,-342.450039)"><path d="M763.1,665.6h-331.4c25.9-15.4,43.7-41.3,48.7-70.9c5.1-29.6-3.1-59.8-22.4-82.9l53.6,12.8c57.6,13.7,147.9,35,207.1,48.5l20.9,4.7c-4,9.2-6.1,19.1-6.1,29.1-.1,22.3,10.1,43.3,27.7,57.1l1.9,1.6Z" fill="#f49787"/><path d="M761.1,664c-17.6-13.8-27.8-34.9-27.7-57.1-.1-10.1,2-20.1,6.1-29.4l-20.9-4.4c-59.2-13.5-149.6-34.8-207.1-48.5L458,511.8c3.4,4,6.4,8.3,9,12.8c57.6,13.7,147.9,35,207.1,48.5l20.9,4.7c-4,9.2-6,19.1-5.9,29.1-.1,22.3,10.1,43.3,27.7,57.1l1.9,1.6h44.4l-2-1.6Z" fill="#d8726f"/><path d="M748.3,401.2v58.8c0,8.1-6.6,14.7-14.8,14.7h-236.7c-8.2,0-14.8-6.6-14.8-14.7v-58.8h266.3Z" fill="#d2d2d2"/><path d="M703.9,401.2v58.8c0,8.1-6.6,14.7-14.8,14.7h44.4c8.2,0,14.8-6.6,14.8-14.7v-58.8h-44.4Z" fill="#a4a4a4"/><path d="M748.3,401.2h-266.3v-29.4c0-16.2,13.2-29.4,29.6-29.4h118.4c46.5.1,90.3,21.9,118.3,58.8Z" fill="#f49787"/><path d="M629.9,342.5h-44.4c46.6,0,90.4,21.8,118.4,58.8h44.4c-28-37-71.8-58.8-118.4-58.8Z" fill="#d8726f"/><path d="M52.9,151.5c-16.3,0-29.6-13.2-29.6-29.4v-73.4c0-16.2,13.2-29.4,29.6-29.4s29.6,13.2,29.6,29.4v73.4c0,16.3-13.2,29.4-29.6,29.4Z" fill="#f49787"/><path d="M718.7,474.7v98.4c-59.2-13.5-149.6-34.8-207.1-48.5v-49.9h207.1Z" fill="#607d8b"/><path d="M674.3,474.7v88.1l44.4,10.3v-98.4h-44.4Z" fill="#52727f"/><path d="M737.075586,650.9h-280.068158c-9.6,11.9-20.794057,21.9-34.294057,29.4h343.667878M733.5,570.26811v-80.96811c16.3,0,29.6-13.2,29.6-29.4v-58.8c0-1.7-.3-3.4-1-5c0,0,0,0,0-.9-.3-.9-.7-1.7-1.3-2.5-30.9-40.9-79.3-65-130.8-65.1h-118.4c-24.5,0-44.4,19.7-44.4,44.1v54.1C401.9,377,289.6,289,200.9,218.2v-81.4c0-8.1-6.6-14.7-14.8-14.7s-14.8,6.6-14.8,14.7v57.9L95.4,134.3c1.2-3.9,1.9-8.1,1.9-12.2v-73.4c0-24.3-19.9-44.1-44.4-44.1s-44.4,19.8-44.4,44.1v73.4c0,24.3,19.9,44.1,44.4,44.1c9.1,0,17.9-2.8,25.3-7.9C159.6,223.4,380,398.6,467.5,462.8c1.4,15,14.1,26.5,29.3,26.6v16.6l-38.398642-10.333525c9.2,10.1,15.402256,23.153947,20.602256,36.053947C533.503614,545.420422,648.7,572.1,715.3,587.4l15.267613,3.504944M67.7,122.2c0,8.1-6.6,14.7-14.8,14.7s-14.8-6.6-14.8-14.7v-73.5c0-8.1,6.6-14.7,14.8-14.7s14.8,6.6,14.8,14.7v73.5ZM496.8,371.9c0-8.1,6.6-14.7,14.8-14.7h118.4c30.4,0,59.9,10.4,83.6,29.4h-216.8v-14.7ZM703.9,554.6c-54.3-12.5-126.1-29.4-177.5-41.6v-23.6h177.5v65.2ZM496.8,460v-44.1h236.7v44.1h-236.7Z" fill="#4c4c4c"/></g></g><g><path d="M482,577.5c0,36.1-19.1,69.6-50.3,88.1-16,9.7-34.5,14.8-53.3,14.7-33.8-.1-65.3-16.6-84.6-44.1-21.6-30.8-24.7-70.8-7.9-104.5c16.8-33.6,50.7-55.5,88.5-57.1c1.3-.1,2.7-.1,4,0c57.2.1,103.6,46.1,103.6,102.9v0Z" fill="#acc0c8"/><path d="M458,511.8c-19.7-23.5-48.8-37.1-79.6-37.2-1.3-.1-2.7-.1-4,0-5.9.2-11.8.9-17.6,2.2c41.5,9.1,73.1,42.5,79.8,84.1s-12.8,83.1-49.3,104.6c-9.7,5.7-20.2,9.8-31.2,12.2c7.3,1.6,14.8,2.4,22.3,2.5c18.8.1,37.2-5,53.3-14.7c25.9-15.4,43.7-41.3,48.7-70.9c5.1-29.4-3.1-59.7-22.4-82.8v0Z" fill="#818e94"/><path d="M881.4,606.9c0,40.6-33.1,73.4-74,73.4-16,.2-31.7-5-44.4-14.7l-2.2-1.6c-17.5-13.9-27.6-34.9-27.4-57.1-.1-10.1,2-20.1,6.1-29.4.9-2.5,2-4.8,3.4-7.1c16.5-29.2,50.8-43.6,83.5-35c32.6,8.6,55.3,38,55,71.5Z" fill="#acc0c8"/><path d="M807.5,533.4c-7.7,0-15.3,1.2-22.6,3.5c30.6,9.8,51.3,38,51.3,69.9s-20.7,60.2-51.3,69.9c7.3,2.3,15,3.5,22.6,3.5c40.9,0,74-32.9,74-73.4-.1-40.5-33.2-73.4-74-73.4v0Z" fill="#818e94"/><ellipse rx="29.6" ry="29.4" transform="translate(378.4 577.5)" fill="#84acbf"/><path d="M378.4,533.4c-24.5,0-44.4,19.7-44.4,44.1c0,24.3,19.9,44.1,44.4,44.1s44.4-19.7,44.4-44.1c0-24.3-19.9-44.1-44.4-44.1Zm0,58.8c-8.2,0-14.8-6.6-14.8-14.7s6.6-14.7,14.8-14.7s14.8,6.6,14.8,14.7-6.6,14.7-14.8,14.7Z" fill="#4c4c4c"/><ellipse rx="14.8" ry="14.7" transform="translate(807.5 606.9)" fill="#4c4c4c"/><path d="M471,650.9h-.6c27.2-32.9,34.1-78,17.9-117.5c0,0,0,0,.1,0-5.2-12.8-12.7-24.6-21.9-34.7l-.6-.1c-21.3-23.4-51.2-37.2-82.8-38.5-.4,0-.9,0-1.3,0-.2,0-.3,0-.5,0-.9,0-1.8,0-2.8,0-13.7,0-26.9,2.3-39.2,6.6v0c-10.4,3.6-20,8.5-28.7,14.6c0,0-.1,0-.1.1-1.2.8-2.4,1.7-3.6,2.6-.1.1-.2.1-.2.2-2.3,1.7-4.6,3.6-6.7,5.5-.1.1-.2.1-.2.2C275,511.5,260,543.2,260,577.5c0,15.1,3,30.1,8.7,44.1-.1,0-.1,0-.2,0c4.3,10.7,10.2,20.5,17.4,29.4.2,0,.4,0,.5,0c35.6,44.6,98.6,57,148.7,29.4h.7c13.6-7.5,25.6-17.6,35.2-29.5Zm-57.2,7.5c-38.6,16.6-83.7,4-107.9-30.2h.1l-1.2-1.5c-18-26.4-20.1-60.4-5.7-88.9s43.2-47,75.3-48.5c1.3.1,2.7.1,4,0c42.1-.1,78.5,29.2,87,70.2c8.6,41-12.9,82.2-51.6,98.9Z" fill="#4c4c4c"/><path d="M896,607c0-48.6-39.6-88-88.5-88s-88.5,39.4-88.5,88c0,30.6,15.7,57.5,39.5,73.3h.5c14.3,9.5,31.1,14.6,48.3,14.7c0,0,.1,0,.1,0c6.8,0,13.4-.8,19.7-2.2c39.5-8.9,68.9-43.9,68.9-85.8Zm-88.5,58.6c-32.7,0-59.2-26.3-59.2-58.8c0-32.4,26.5-58.8,59.2-58.8s59.2,26.3,59.2,58.8c-.1,32.5-26.6,58.8-59.2,58.8Z" fill="#4c4c4c"/></g><path id="eoA2Ds9zu8T24" d="M259.187211,510.35534c-46.321338-48.210027-157.964524-98.939087-223.229503-101.467956" transform="translate(4-7)" fill="none" stroke="#92a368" stroke-width="17" stroke-linecap="round" stroke-dasharray="40"/><path id="eoA2Ds9zu8T25" d="M238.89362,579.041341c-49.91535-23.429385-156.804052-43.873173-213.86323-40.587183" transform="translate(2-7.999999)" fill="none" stroke="#92a368" stroke-width="17" stroke-linecap="round" stroke-dasharray="40"/><path id="eoA2Ds9zu8T26" d="M259.187211,647.727341c-61.587846-17.270328-177.81788-16.964985-232.595775,0" transform="translate(.000001 0)" fill="none" stroke="#92a368" stroke-width="17" stroke-linecap="round" stroke-dasharray="40"/></g></svg>