<?xml version="1.0" encoding="utf-8"?>
<!-- Generator: Adobe Illustrator 26.2.1, SVG Export Plug-In . SVG Version: 6.00 Build 0)  -->
<svg version="1.1" id="Calque_1" xmlns="http://www.w3.org/2000/svg" xmlns:xlink="http://www.w3.org/1999/xlink" x="0px" y="0px"
	 viewBox="0 0 3044.6 161.4" style="enable-background:new 0 0 3044.6 161.4;" xml:space="preserve">
<style type="text/css">
	.st0{fill:#D4BF9D;}
	.st1{fill:#C7A977;}
	.st2{fill:none;}
	.st3{fill:#4C4C4C;}
</style>
<g>
	<g>
		<g>
			<path class="st0" d="M2887.8,112h33.3v20.6h-33.3V112z"/>
			<path class="st0" d="M2887.8,43.6h33.3v20.6h-33.3V43.6z"/>
			<path class="st0" d="M2857.4,157.3V19.8l15.2-13.7l15.2,13.7v137.5H2857.4L2857.4,157.3z"/>
			<path class="st0" d="M2921.1,157.3V19.8L2936.3,6l15.2,13.8v137.5H2921.1L2921.1,157.3z M2936.3,121.5c-0.5,0-0.9,0.4-0.9,0.9
				s0.4,0.9,0.9,0.9s0.9-0.4,0.9-0.9S2936.8,121.5,2936.3,121.5L2936.3,121.5z M2936.3,53c-0.5,0-0.9,0.4-0.9,0.9s0.4,0.9,0.9,0.9
				s0.9-0.4,0.9-0.9S2936.8,53,2936.3,53L2936.3,53z"/>
			<path class="st0" d="M2951.5,112h33.3v20.6h-33.3V112z"/>
			<path class="st0" d="M3015.2,43.6h29.1v20.6h-29.1V43.6z"/>
			<path class="st0" d="M2984.8,157.3V19.8L3000,6.1l15.2,13.7v137.5H2984.8L2984.8,157.3z M3000,121.5c-0.5,0-0.9,0.4-0.9,0.9
				s0.4,0.9,0.9,0.9s0.9-0.4,0.9-0.9C3001,121.9,3000.6,121.5,3000,121.5L3000,121.5L3000,121.5L3000,121.5z M3000,53
				c-0.5,0-0.9,0.4-0.9,0.9s0.4,0.9,0.9,0.9s0.9-0.4,0.9-0.9C3001,53.5,3000.6,53,3000,53L3000,53L3000,53z"/>
			<path class="st0" d="M3015.2,112h29.1v20.6h-29.1V112z"/>
			<path class="st0" d="M2951.5,43.6h33.3v20.6h-33.3V43.6z"/>
		</g>
		<g>
			<path class="st1" d="M2876,9.1l-3.4-2.2v150.4h15.2V19.8L2876,9.1z"/>
			<path class="st1" d="M2939.7,9.1l-3.4-2.2v150.4h15.2V19.8L2939.7,9.1z"/>
			<path class="st1" d="M3003.4,9.1l-3.4-2.2v150.4h15.2V19.8L3003.4,9.1z"/>
		</g>
		<g>
			<path class="st2" d="M2861.5,21.6v131.6h22V43.7l0.2-22.2l-11.1-10L2861.5,21.6z M2872.6,127.4c-2.8,0-5-2.3-5-5s2.3-5,5-5
				c2.8,0,5,2.3,5,5C2877.6,125.1,2875.4,127.4,2872.6,127.4z M2877.6,54c0,2.8-2.3,5-5,5c-2.8,0-5-2.3-5-5s2.3-5,5-5
				C2875.4,48.9,2877.6,51.2,2877.6,54z"/>
			<polygon class="st2" points="2891.9,128.6 2916.8,128.6 2917,116.3 2891.9,116.3 			"/>
			<polygon class="st2" points="2891.9,108 2916.8,108 2917,68.4 2891.9,68.4 			"/>
			<polygon class="st2" points="2891.9,60.2 2916.8,60.2 2917,47.8 2891.9,47.8 			"/>
			<rect x="3019.2" y="116.3" class="st2" width="25.4" height="12.4"/>
			<path class="st2" d="M2925.2,21.6v131.6h22V43.7l0.2-22.2l-11.1-10L2925.2,21.6z M2936.3,127.4c-2.8,0-5-2.3-5-5s2.3-5,5-5
				c2.8,0,5,2.3,5,5C2941.3,125.1,2939.1,127.4,2936.3,127.4z M2941.3,54c0,2.8-2.3,5-5,5c-2.8,0-5-2.3-5-5s2.3-5,5-5
				C2939.1,48.9,2941.3,51.2,2941.3,54z"/>
			<rect x="3019.3" y="68.4" class="st2" width="25.2" height="39.5"/>
			<rect x="3019.2" y="47.9" class="st2" width="25.4" height="12.4"/>
			<path class="st2" d="M2989,21.6v131.6h21.9V43.8l0.2-22.2l-11.1-10L2989,21.6z M3000,127.4c-2.8,0-5-2.3-5-5s2.3-5,5-5s5,2.3,5,5
				C3005,125.1,3002.8,127.4,3000,127.4z M3005,54c0,2.8-2.3,5-5,5s-5-2.3-5-5s2.3-5,5-5S3005,51.2,3005,54z"/>
			<polygon class="st2" points="2955.7,108 2980.5,108 2980.7,68.4 2955.7,68.4 			"/>
			<polygon class="st2" points="2955.7,60.3 2980.5,60.3 2980.7,47.9 2955.7,47.9 			"/>
			<polygon class="st2" points="2955.7,128.7 2980.5,128.7 2980.7,116.3 2955.7,116.3 			"/>
			<path class="st3" d="M3019.4,39.5V19.7c0-1.2-0.5-2.3-1.4-3.1l-15.2-13.8c-1.6-1.4-4-1.4-5.5,0l-15.2,13.8
				c-0.9,0.8-1.4,1.9-1.4,3.1v19.8h-25V19.7c0-1.2-0.5-2.3-1.4-3.1l-15.2-13.8c-1.6-1.4-4-1.4-5.5,0l-15.2,13.8
				c-0.9,0.8-1.4,1.9-1.4,3.1v19.8h-25V19.7c0-1.2-0.5-2.3-1.4-3.1l-15.2-13.8c-1.6-1.4-4-1.4-5.5,0l-15.2,13.7
				c-0.9,0.8-1.4,1.9-1.4,3.1v137.7c0,2.3,1.8,4.1,4.1,4.1h30.4c2.3,0,4.1-1.8,4.1-4.1v-20.6h25v20.6c0,2.3,1.8,4.1,4.1,4.1h30.4
				c2.3,0,4.1-1.8,4.1-4.1v-20.6h25v20.6c0,2.3,1.8,4.1,4.1,4.1h30.4c2.3,0,4.1-1.8,4.1-4.1v-20.6h25.2v-8.1h-25.4v-12.4h25.4v-8.4
				h-25.2V68.3h25.2v-8.1h-25.4V47.8h25.4v-8.4h-24.9V39.5z M2883.5,43.7v109.5h-22V21.6l11.1-10.1l11.1,10L2883.5,43.7z
				 M2916.8,128.6h-24.9v-12.4h25L2916.8,128.6z M2916.8,108h-24.9V68.4h25L2916.8,108z M2916.8,60.2h-24.9V47.8h25L2916.8,60.2z
				 M2947.2,43.7v109.5h-22V21.6l11.1-10.1l11.1,10L2947.2,43.7z M2980.5,128.7h-24.8v-12.4h25L2980.5,128.7z M2980.5,108h-24.8
				V68.4h25L2980.5,108z M2980.5,60.3h-24.8V47.9h25L2980.5,60.3z M3010.9,43.8v109.4H2989V21.6l11.1-10.1l11.1,10L3010.9,43.8z"/>
			<circle class="st3" cx="2872.6" cy="54" r="5"/>
			<ellipse class="st3" cx="2872.7" cy="122.4" rx="5" ry="5"/>
			<path class="st3" d="M2931.3,54c0,2.8,2.3,5,5,5c2.8,0,5-2.3,5-5s-2.3-5-5-5C2933.5,48.9,2931.3,51.2,2931.3,54z"/>
			<path class="st3" d="M2936.3,117.3c-2.8,0-5,2.3-5,5s2.3,5,5,5c2.8,0,5-2.3,5-5S2939.1,117.3,2936.3,117.3z"/>
			<circle class="st3" cx="3000" cy="54" r="5"/>
			<circle class="st3" cx="3000" cy="122.4" r="5"/>
		</g>
	</g>
	<g>
		<g>
			<path class="st0" d="M2697.6,112h33.3v20.6h-33.3V112z"/>
			<path class="st0" d="M2697.6,43.6h33.3v20.6h-33.3V43.6z"/>
			<path class="st0" d="M2667.2,157.3V19.8L2682.4,6l15.2,13.7v137.5L2667.2,157.3L2667.2,157.3z"/>
			<path class="st0" d="M2730.9,157.3V19.8L2746.1,6l15.2,13.8v137.5H2730.9L2730.9,157.3z M2746.1,121.5c-0.5,0-0.9,0.4-0.9,0.9
				s0.4,0.9,0.9,0.9s0.9-0.4,0.9-0.9S2746.6,121.5,2746.1,121.5L2746.1,121.5z M2746.1,53c-0.5,0-0.9,0.4-0.9,0.9s0.4,0.9,0.9,0.9
				s0.9-0.4,0.9-0.9S2746.6,53,2746.1,53L2746.1,53z"/>
			<path class="st0" d="M2761.3,112h33.3v20.6h-33.3V112z"/>
			<path class="st0" d="M2825,43.6h29v20.6h-29V43.6z"/>
			<path class="st0" d="M2794.6,157.3V19.8l15.2-13.7l15.2,13.7v137.5H2794.6L2794.6,157.3z M2809.8,121.5c-0.5,0-0.9,0.4-0.9,0.9
				s0.4,0.9,0.9,0.9s0.9-0.4,0.9-0.9C2810.8,121.9,2810.3,121.5,2809.8,121.5L2809.8,121.5L2809.8,121.5L2809.8,121.5z M2809.8,53
				c-0.5,0-0.9,0.4-0.9,0.9s0.4,0.9,0.9,0.9s0.9-0.4,0.9-0.9C2810.8,53.5,2810.3,53,2809.8,53L2809.8,53L2809.8,53z"/>
			<path class="st0" d="M2825,112h29v20.6h-29V112z"/>
			<path class="st0" d="M2761.3,43.6h33.3v20.6h-33.3V43.6z"/>
		</g>
		<g>
			<path class="st1" d="M2685.8,9.1l-3.4-2.2v150.4h15.2V19.8L2685.8,9.1z"/>
			<path class="st1" d="M2749.5,9.1l-3.4-2.2v150.4h15.2V19.8L2749.5,9.1z"/>
			<path class="st1" d="M2813.2,9.1l-3.4-2.2v150.4h15.2V19.8L2813.2,9.1z"/>
		</g>
		<g>
			<path class="st2" d="M2671.3,21.6v131.6h22V43.7l0.2-22.2l-11.1-10L2671.3,21.6z M2682.4,127.4c-2.8,0-5-2.3-5-5s2.3-5,5-5
				c2.8,0,5,2.3,5,5C2687.4,125.1,2685.2,127.4,2682.4,127.4z M2687.4,54c0,2.8-2.3,5-5,5c-2.8,0-5-2.3-5-5s2.3-5,5-5
				C2685.2,48.9,2687.4,51.2,2687.4,54z"/>
			<polygon class="st2" points="2701.7,128.6 2726.6,128.6 2726.8,116.3 2701.7,116.3 			"/>
			<polygon class="st2" points="2701.7,108 2726.6,108 2726.8,68.4 2701.7,68.4 			"/>
			<polygon class="st2" points="2701.7,60.2 2726.6,60.2 2726.8,47.8 2701.7,47.8 			"/>
			<rect x="2828.9" y="116.3" class="st2" width="25.4" height="12.4"/>
			<path class="st2" d="M2735,21.6v131.6h22V43.7l0.2-22.2l-11.1-10L2735,21.6z M2746.1,127.4c-2.8,0-5-2.3-5-5s2.3-5,5-5
				c2.8,0,5,2.3,5,5C2751.1,125.1,2748.9,127.4,2746.1,127.4z M2751.1,54c0,2.8-2.3,5-5,5c-2.8,0-5-2.3-5-5s2.3-5,5-5
				C2748.9,48.9,2751.1,51.2,2751.1,54z"/>
			<rect x="2829.1" y="68.4" class="st2" width="25.2" height="39.5"/>
			<rect x="2828.9" y="47.9" class="st2" width="25.4" height="12.4"/>
			<path class="st2" d="M2798.7,21.6v131.6h21.9V43.8l0.2-22.2l-11.1-10L2798.7,21.6z M2809.8,127.4c-2.8,0-5-2.3-5-5s2.3-5,5-5
				c2.8,0,5,2.3,5,5C2814.8,125.1,2812.6,127.4,2809.8,127.4z M2814.8,54c0,2.8-2.3,5-5,5c-2.8,0-5-2.3-5-5s2.3-5,5-5
				C2812.6,48.9,2814.8,51.2,2814.8,54z"/>
			<polygon class="st2" points="2765.4,108 2790.3,108 2790.5,68.4 2765.4,68.4 			"/>
			<polygon class="st2" points="2765.4,60.3 2790.3,60.3 2790.5,47.9 2765.4,47.9 			"/>
			<polygon class="st2" points="2765.4,128.7 2790.3,128.7 2790.5,116.3 2765.4,116.3 			"/>
			<path class="st3" d="M2829.1,39.5V19.7c0-1.2-0.5-2.3-1.4-3.1l-15.2-13.8c-1.6-1.4-4-1.4-5.5,0l-15.2,13.8
				c-0.9,0.8-1.4,1.9-1.4,3.1v19.8h-25V19.7c0-1.2-0.5-2.3-1.4-3.1l-15.2-13.8c-1.6-1.4-4-1.4-5.5,0l-15.2,13.8
				c-0.9,0.8-1.4,1.9-1.4,3.1v19.8h-25V19.7c0-1.2-0.5-2.3-1.4-3.1l-15.2-13.8c-1.6-1.4-4-1.4-5.5,0l-15.2,13.7
				c-0.9,0.8-1.4,1.9-1.4,3.1v137.7c0,2.3,1.8,4.1,4.1,4.1h30.4c2.3,0,4.1-1.8,4.1-4.1v-20.6h25v20.6c0,2.3,1.8,4.1,4.1,4.1h30.4
				c2.3,0,4.1-1.8,4.1-4.1v-20.6h25v20.6c0,2.3,1.8,4.1,4.1,4.1h30.4c2.3,0,4.1-1.8,4.1-4.1v-20.6h25.2v-8.1h-25.4v-12.4h25.4v-8.4
				h-25.2V68.3h25.2v-8.1h-25.4V47.8h25.4v-8.4h-24.9V39.5z M2693.3,43.7v109.5h-22V21.6l11.1-10.1l11.1,10L2693.3,43.7z
				 M2726.6,128.6h-24.9v-12.4h25L2726.6,128.6z M2726.6,108h-24.9V68.4h25L2726.6,108z M2726.6,60.2h-24.9V47.8h25L2726.6,60.2z
				 M2757,43.7v109.5h-22V21.6l11.1-10.1l11.1,10L2757,43.7z M2790.3,128.7h-24.9v-12.4h25L2790.3,128.7z M2790.3,108h-24.9V68.4h25
				L2790.3,108z M2790.3,60.3h-24.9V47.9h25L2790.3,60.3z M2820.7,43.8v109.4h-21.9V21.6l11.1-10.1l11.1,10L2820.7,43.8z"/>
			<circle class="st3" cx="2682.4" cy="54" r="5"/>
			<ellipse class="st3" cx="2682.5" cy="122.4" rx="5" ry="5"/>
			<path class="st3" d="M2741.1,54c0,2.8,2.3,5,5,5c2.8,0,5-2.3,5-5s-2.3-5-5-5C2743.3,48.9,2741.1,51.2,2741.1,54z"/>
			<path class="st3" d="M2746.1,117.3c-2.8,0-5,2.3-5,5s2.3,5,5,5c2.8,0,5-2.3,5-5S2748.9,117.3,2746.1,117.3z"/>
			<circle class="st3" cx="2809.8" cy="54" r="5"/>
			<circle class="st3" cx="2809.8" cy="122.4" r="5"/>
		</g>
	</g>
	<g>
		<g>
			<path class="st0" d="M2507.4,112h33.3v20.6h-33.3V112z"/>
			<path class="st0" d="M2507.4,43.6h33.3v20.6h-33.3V43.6z"/>
			<path class="st0" d="M2477,157.3V19.8l15.2-13.7l15.2,13.7v137.5H2477L2477,157.3z"/>
			<path class="st0" d="M2540.7,157.3V19.8L2555.9,6l15.2,13.8v137.5H2540.7L2540.7,157.3z M2555.9,121.5c-0.5,0-0.9,0.4-0.9,0.9
				s0.4,0.9,0.9,0.9s0.9-0.4,0.9-0.9S2556.4,121.5,2555.9,121.5L2555.9,121.5z M2555.9,53c-0.5,0-0.9,0.4-0.9,0.9s0.4,0.9,0.9,0.9
				s0.9-0.4,0.9-0.9S2556.4,53,2555.9,53L2555.9,53z"/>
			<path class="st0" d="M2571.1,112h33.3v20.6h-33.3V112z"/>
			<path class="st0" d="M2634.8,43.6h29v20.6h-29V43.6z"/>
			<path class="st0" d="M2604.4,157.3V19.8l15.2-13.7l15.2,13.7v137.5H2604.4L2604.4,157.3z M2619.6,121.5c-0.5,0-0.9,0.4-0.9,0.9
				s0.4,0.9,0.9,0.9s0.9-0.4,0.9-0.9S2620.1,121.5,2619.6,121.5L2619.6,121.5L2619.6,121.5L2619.6,121.5z M2619.6,53
				c-0.5,0-0.9,0.4-0.9,0.9s0.4,0.9,0.9,0.9s0.9-0.4,0.9-0.9C2620.5,53.5,2620.1,53,2619.6,53L2619.6,53L2619.6,53z"/>
			<path class="st0" d="M2634.8,112h29v20.6h-29V112z"/>
			<path class="st0" d="M2571.1,43.6h33.3v20.6h-33.3V43.6z"/>
		</g>
		<g>
			<path class="st1" d="M2495.6,9.1l-3.4-2.2v150.4h15.2V19.8L2495.6,9.1z"/>
			<path class="st1" d="M2559.3,9.1l-3.4-2.2v150.4h15.2V19.8L2559.3,9.1z"/>
			<path class="st1" d="M2623,9.1l-3.4-2.2v150.4h15.2V19.8L2623,9.1z"/>
		</g>
		<g>
			<path class="st2" d="M2481.1,21.6v131.6h22V43.7l0.2-22.2l-11.1-10L2481.1,21.6z M2492.2,127.4c-2.8,0-5-2.3-5-5s2.3-5,5-5
				c2.8,0,5,2.3,5,5C2497.2,125.1,2495,127.4,2492.2,127.4z M2497.2,54c0,2.8-2.3,5-5,5c-2.8,0-5-2.3-5-5s2.3-5,5-5
				C2495,48.9,2497.2,51.2,2497.2,54z"/>
			<polygon class="st2" points="2511.5,128.6 2536.4,128.6 2536.5,116.3 2511.5,116.3 			"/>
			<polygon class="st2" points="2511.5,108 2536.4,108 2536.5,68.4 2511.5,68.4 			"/>
			<polygon class="st2" points="2511.5,60.2 2536.4,60.2 2536.5,47.8 2511.5,47.8 			"/>
			<rect x="2638.7" y="116.3" class="st2" width="25.4" height="12.4"/>
			<path class="st2" d="M2544.8,21.6v131.6h22V43.7l0.2-22.2l-11.1-10L2544.8,21.6z M2555.9,127.4c-2.8,0-5-2.3-5-5s2.3-5,5-5
				c2.8,0,5,2.3,5,5C2560.9,125.1,2558.7,127.4,2555.9,127.4z M2560.9,54c0,2.8-2.3,5-5,5c-2.8,0-5-2.3-5-5s2.3-5,5-5
				C2558.7,48.9,2560.9,51.2,2560.9,54z"/>
			<rect x="2638.9" y="68.4" class="st2" width="25.2" height="39.5"/>
			<rect x="2638.7" y="47.9" class="st2" width="25.4" height="12.4"/>
			<path class="st2" d="M2608.5,21.6v131.6h21.9V43.8l0.2-22.2l-11.1-10L2608.5,21.6z M2619.6,127.4c-2.8,0-5-2.3-5-5s2.3-5,5-5
				c2.8,0,5,2.3,5,5C2624.6,125.1,2622.4,127.4,2619.6,127.4z M2624.6,54c0,2.8-2.3,5-5,5c-2.8,0-5-2.3-5-5s2.3-5,5-5
				C2622.4,48.9,2624.6,51.2,2624.6,54z"/>
			<polygon class="st2" points="2575.2,108 2600.1,108 2600.3,68.4 2575.2,68.4 			"/>
			<polygon class="st2" points="2575.2,60.3 2600.1,60.3 2600.3,47.9 2575.2,47.9 			"/>
			<polygon class="st2" points="2575.2,128.7 2600.1,128.7 2600.3,116.3 2575.2,116.3 			"/>
			<path class="st3" d="M2638.9,39.5V19.7c0-1.2-0.5-2.3-1.4-3.1l-15.2-13.8c-1.6-1.4-4-1.4-5.5,0l-15.2,13.8
				c-0.9,0.8-1.4,1.9-1.4,3.1v19.8h-25V19.7c0-1.2-0.5-2.3-1.4-3.1l-15.2-13.8c-1.6-1.4-4-1.4-5.5,0l-15.2,13.8
				c-0.9,0.8-1.4,1.9-1.4,3.1v19.8h-25V19.7c0-1.2-0.5-2.3-1.4-3.1l-15.2-13.8c-1.6-1.4-4-1.4-5.5,0l-15.2,13.7
				c-0.9,0.8-1.4,1.9-1.4,3.1v137.7c0,2.3,1.8,4.1,4.1,4.1h30.4c2.3,0,4.1-1.8,4.1-4.1v-20.6h25v20.6c0,2.3,1.8,4.1,4.1,4.1h30.4
				c2.3,0,4.1-1.8,4.1-4.1v-20.6h25v20.6c0,2.3,1.8,4.1,4.1,4.1h30.4c2.3,0,4.1-1.8,4.1-4.1v-20.6h25.2v-8.1h-25.4v-12.4h25.4v-8.4
				h-25.2V68.3h25.2v-8.1h-25.4V47.8h25.4v-8.4h-24.9V39.5z M2503.1,43.7v109.5h-22V21.6l11.1-10.1l11.1,10L2503.1,43.7z
				 M2536.4,128.6h-24.9v-12.4h25L2536.4,128.6z M2536.4,108h-24.9V68.4h25L2536.4,108z M2536.4,60.2h-24.9V47.8h25L2536.4,60.2z
				 M2566.8,43.7v109.5h-22V21.6l11.1-10.1l11.1,10L2566.8,43.7z M2600.1,128.7h-24.8v-12.4h25L2600.1,128.7z M2600.1,108h-24.8
				V68.4h25L2600.1,108z M2600.1,60.3h-24.8V47.9h25L2600.1,60.3z M2630.5,43.8v109.4h-21.9V21.6l11.1-10.1l11.1,10L2630.5,43.8z"/>
			<circle class="st3" cx="2492.2" cy="54" r="5"/>
			<ellipse class="st3" cx="2492.3" cy="122.4" rx="5" ry="5"/>
			<path class="st3" d="M2550.9,54c0,2.8,2.3,5,5,5c2.8,0,5-2.3,5-5s-2.3-5-5-5C2553.1,48.9,2550.9,51.2,2550.9,54z"/>
			<path class="st3" d="M2555.9,117.3c-2.8,0-5,2.3-5,5s2.3,5,5,5c2.8,0,5-2.3,5-5S2558.7,117.3,2555.9,117.3z"/>
			<circle class="st3" cx="2619.6" cy="54" r="5"/>
			<circle class="st3" cx="2619.6" cy="122.4" r="5"/>
		</g>
	</g>
	<g>
		<g>
			<path class="st0" d="M2317.2,112h33.3v20.6h-33.3V112z"/>
			<path class="st0" d="M2317.2,43.6h33.3v20.6h-33.3V43.6z"/>
			<path class="st0" d="M2286.8,157.3V19.8L2302,6.1l15.2,13.7v137.5H2286.8L2286.8,157.3z"/>
			<path class="st0" d="M2350.5,157.3V19.8L2365.7,6l15.2,13.8v137.5H2350.5L2350.5,157.3z M2365.7,121.5c-0.5,0-0.9,0.4-0.9,0.9
				s0.4,0.9,0.9,0.9s0.9-0.4,0.9-0.9S2366.2,121.5,2365.7,121.5L2365.7,121.5z M2365.7,53c-0.5,0-0.9,0.4-0.9,0.9s0.4,0.9,0.9,0.9
				s0.9-0.4,0.9-0.9S2366.2,53,2365.7,53L2365.7,53z"/>
			<path class="st0" d="M2380.9,112h33.3v20.6h-33.3V112z"/>
			<path class="st0" d="M2444.6,43.6h29v20.6h-29V43.6z"/>
			<path class="st0" d="M2414.2,157.3V19.8L2429.4,6l15.2,13.7v137.5L2414.2,157.3L2414.2,157.3z M2429.4,121.5
				c-0.5,0-0.9,0.4-0.9,0.9s0.4,0.9,0.9,0.9s0.9-0.4,0.9-0.9S2429.9,121.5,2429.4,121.5L2429.4,121.5L2429.4,121.5L2429.4,121.5z
				 M2429.4,53c-0.5,0-0.9,0.4-0.9,0.9s0.4,0.9,0.9,0.9s0.9-0.4,0.9-0.9C2430.3,53.5,2429.9,53,2429.4,53L2429.4,53L2429.4,53z"/>
			<path class="st0" d="M2444.6,112h29v20.6h-29V112z"/>
			<path class="st0" d="M2380.9,43.6h33.3v20.6h-33.3V43.6z"/>
		</g>
		<g>
			<path class="st1" d="M2305.4,9.1l-3.4-2.2v150.4h15.2V19.8L2305.4,9.1z"/>
			<path class="st1" d="M2369.1,9.1l-3.4-2.2v150.4h15.2V19.8L2369.1,9.1z"/>
			<path class="st1" d="M2432.8,9.1l-3.4-2.2v150.4h15.2V19.8L2432.8,9.1z"/>
		</g>
		<g>
			<path class="st2" d="M2290.9,21.6v131.6h22V43.7l0.2-22.2l-11.1-10L2290.9,21.6z M2302,127.4c-2.8,0-5-2.3-5-5s2.3-5,5-5
				c2.8,0,5,2.3,5,5C2307,125.1,2304.8,127.4,2302,127.4z M2307,54c0,2.8-2.3,5-5,5c-2.8,0-5-2.3-5-5s2.3-5,5-5
				C2304.8,48.9,2307,51.2,2307,54z"/>
			<polygon class="st2" points="2321.3,128.6 2346.2,128.6 2346.3,116.3 2321.3,116.3 			"/>
			<polygon class="st2" points="2321.3,108 2346.2,108 2346.3,68.4 2321.3,68.4 			"/>
			<polygon class="st2" points="2321.3,60.2 2346.2,60.2 2346.3,47.8 2321.3,47.8 			"/>
			<rect x="2448.5" y="116.3" class="st2" width="25.4" height="12.4"/>
			<path class="st2" d="M2354.6,21.6v131.6h22V43.7l0.2-22.2l-11.1-10L2354.6,21.6z M2365.7,127.4c-2.8,0-5-2.3-5-5s2.3-5,5-5
				c2.8,0,5,2.3,5,5C2370.7,125.1,2368.5,127.4,2365.7,127.4z M2370.7,54c0,2.8-2.3,5-5,5c-2.8,0-5-2.3-5-5s2.3-5,5-5
				C2368.5,48.9,2370.7,51.2,2370.7,54z"/>
			<rect x="2448.7" y="68.4" class="st2" width="25.2" height="39.5"/>
			<rect x="2448.5" y="47.9" class="st2" width="25.4" height="12.4"/>
			<path class="st2" d="M2418.3,21.6v131.6h21.9V43.8l0.2-22.2l-11.1-10L2418.3,21.6z M2429.4,127.4c-2.8,0-5-2.3-5-5s2.3-5,5-5
				c2.7,0,5,2.3,5,5C2434.4,125.1,2432.2,127.4,2429.4,127.4z M2434.4,54c0,2.8-2.3,5-5,5c-2.7,0-5-2.3-5-5s2.3-5,5-5
				C2432.1,49,2434.4,51.2,2434.4,54z"/>
			<polygon class="st2" points="2385,108 2409.9,108 2410.1,68.4 2385,68.4 			"/>
			<polygon class="st2" points="2385,60.3 2409.9,60.3 2410.1,47.9 2385,47.9 			"/>
			<polygon class="st2" points="2385,128.7 2409.9,128.7 2410.1,116.3 2385,116.3 			"/>
			<path class="st3" d="M2448.7,39.5V19.7c0-1.2-0.5-2.3-1.4-3.1l-15.2-13.8c-1.6-1.4-4-1.4-5.5,0l-15.2,13.8
				c-0.9,0.8-1.4,1.9-1.4,3.1v19.8h-25V19.7c0-1.2-0.5-2.3-1.4-3.1l-15.2-13.8c-1.6-1.4-4-1.4-5.5,0l-15.2,13.8
				c-0.9,0.8-1.4,1.9-1.4,3.1v19.8h-25V19.7c0-1.2-0.5-2.3-1.4-3.1l-15.2-13.8c-1.6-1.4-4-1.4-5.5,0L2284,16.5
				c-0.9,0.8-1.4,1.9-1.4,3.1v137.7c0,2.3,1.8,4.1,4.1,4.1h30.4c2.3,0,4.1-1.8,4.1-4.1v-20.6h25v20.6c0,2.3,1.8,4.1,4.1,4.1h30.4
				c2.3,0,4.1-1.8,4.1-4.1v-20.6h25v20.6c0,2.3,1.8,4.1,4.1,4.1h30.4c2.3,0,4.1-1.8,4.1-4.1v-20.6h25.2v-8.1h-25.4v-12.4h25.4v-8.4
				h-25.2V68.3h25.2v-8.1h-25.4V47.8h25.4v-8.4h-24.9V39.5z M2312.9,43.7v109.5h-22V21.6l11.1-10.1l11.1,10L2312.9,43.7z
				 M2346.2,128.6h-24.9v-12.4h25L2346.2,128.6z M2346.2,108h-24.9V68.4h25L2346.2,108z M2346.2,60.2h-24.9V47.8h25L2346.2,60.2z
				 M2376.6,43.7v109.5h-22V21.6l11.1-10.1l11.1,10L2376.6,43.7z M2409.9,128.7h-24.8v-12.4h25L2409.9,128.7z M2409.9,108h-24.8
				V68.4h25L2409.9,108z M2409.9,60.3h-24.8V47.9h25L2409.9,60.3z M2440.3,43.8v109.4h-21.9V21.6l11.1-10.1l11.1,10L2440.3,43.8z"/>
			<circle class="st3" cx="2302" cy="54" r="5"/>
			<ellipse class="st3" cx="2302.1" cy="122.4" rx="5" ry="5"/>
			<path class="st3" d="M2360.7,54c0,2.8,2.3,5,5,5c2.8,0,5-2.3,5-5s-2.3-5-5-5C2362.9,48.9,2360.7,51.2,2360.7,54z"/>
			<path class="st3" d="M2365.7,117.3c-2.8,0-5,2.3-5,5s2.3,5,5,5c2.8,0,5-2.3,5-5S2368.5,117.3,2365.7,117.3z"/>
			<circle class="st3" cx="2429.4" cy="54" r="5"/>
			<circle class="st3" cx="2429.4" cy="122.4" r="5"/>
		</g>
	</g>
	<g>
		<g>
			<path class="st0" d="M2127,112h33.3v20.6H2127V112z"/>
			<path class="st0" d="M2127,43.6h33.3v20.6H2127V43.6z"/>
			<path class="st0" d="M2096.6,157.3V19.8l15.2-13.7l15.2,13.7v137.5H2096.6L2096.6,157.3z"/>
			<path class="st0" d="M2160.3,157.3V19.8L2175.5,6l15.2,13.8v137.5H2160.3L2160.3,157.3z M2175.5,121.5c-0.5,0-0.9,0.4-0.9,0.9
				s0.4,0.9,0.9,0.9s0.9-0.4,0.9-0.9S2176,121.5,2175.5,121.5L2175.5,121.5z M2175.5,53c-0.5,0-0.9,0.4-0.9,0.9s0.4,0.9,0.9,0.9
				s0.9-0.4,0.9-0.9S2176,53,2175.5,53L2175.5,53z"/>
			<path class="st0" d="M2190.7,112h33.3v20.6h-33.3V112z"/>
			<path class="st0" d="M2254.4,43.6h29v20.6h-29V43.6z"/>
			<path class="st0" d="M2224,157.3V19.8l15.2-13.7l15.2,13.7v137.5H2224L2224,157.3z M2239.2,121.5c-0.5,0-0.9,0.4-0.9,0.9
				s0.4,0.9,0.9,0.9s0.9-0.4,0.9-0.9S2239.7,121.5,2239.2,121.5L2239.2,121.5L2239.2,121.5L2239.2,121.5z M2239.2,53
				c-0.5,0-0.9,0.4-0.9,0.9s0.4,0.9,0.9,0.9s0.9-0.4,0.9-0.9C2240.1,53.5,2239.7,53,2239.2,53L2239.2,53L2239.2,53z"/>
			<path class="st0" d="M2254.4,112h29v20.6h-29V112z"/>
			<path class="st0" d="M2190.7,43.6h33.3v20.6h-33.3V43.6z"/>
		</g>
		<g>
			<path class="st1" d="M2115.2,9.1l-3.4-2.2v150.4h15.2V19.8L2115.2,9.1z"/>
			<path class="st1" d="M2178.9,9.1l-3.4-2.2v150.4h15.2V19.8L2178.9,9.1z"/>
			<path class="st1" d="M2242.6,9.1l-3.4-2.2v150.4h15.2V19.8L2242.6,9.1z"/>
		</g>
		<g>
			<path class="st2" d="M2100.7,21.6v131.6h22V43.7l0.2-22.2l-11.1-10L2100.7,21.6z M2111.8,127.4c-2.8,0-5-2.3-5-5s2.3-5,5-5
				c2.8,0,5,2.3,5,5C2116.8,125.1,2114.6,127.4,2111.8,127.4z M2116.8,54c0,2.8-2.3,5-5,5c-2.8,0-5-2.3-5-5s2.3-5,5-5
				C2114.6,48.9,2116.8,51.2,2116.8,54z"/>
			<polygon class="st2" points="2131.1,128.6 2156,128.6 2156.1,116.3 2131.1,116.3 			"/>
			<polygon class="st2" points="2131.1,108 2156,108 2156.1,68.4 2131.1,68.4 			"/>
			<polygon class="st2" points="2131.1,60.2 2156,60.2 2156.1,47.8 2131.1,47.8 			"/>
			<rect x="2258.3" y="116.3" class="st2" width="25.4" height="12.4"/>
			<path class="st2" d="M2164.4,21.6v131.6h22V43.7l0.2-22.2l-11.1-10L2164.4,21.6z M2175.5,127.4c-2.8,0-5-2.3-5-5s2.3-5,5-5
				c2.8,0,5,2.3,5,5C2180.5,125.1,2178.3,127.4,2175.5,127.4z M2180.5,54c0,2.8-2.3,5-5,5c-2.8,0-5-2.3-5-5s2.3-5,5-5
				C2178.3,48.9,2180.5,51.2,2180.5,54z"/>
			<rect x="2258.5" y="68.4" class="st2" width="25.2" height="39.5"/>
			<rect x="2258.3" y="47.9" class="st2" width="25.4" height="12.4"/>
			<path class="st2" d="M2228.1,21.6v131.6h21.9V43.8l0.2-22.2l-11.1-10L2228.1,21.6z M2239.2,127.4c-2.8,0-5-2.3-5-5s2.3-5,5-5
				c2.8,0,5,2.3,5,5C2244.2,125.1,2242,127.4,2239.2,127.4z M2244.2,54c0,2.8-2.3,5-5,5c-2.8,0-5-2.3-5-5s2.3-5,5-5
				C2242,48.9,2244.2,51.2,2244.2,54z"/>
			<polygon class="st2" points="2194.8,108 2219.7,108 2219.9,68.4 2194.8,68.4 			"/>
			<polygon class="st2" points="2194.8,60.3 2219.7,60.3 2219.9,47.9 2194.8,47.9 			"/>
			<polygon class="st2" points="2194.8,128.7 2219.7,128.7 2219.9,116.3 2194.8,116.3 			"/>
			<path class="st3" d="M2258.5,39.5V19.7c0-1.2-0.5-2.3-1.4-3.1l-15.2-13.8c-1.6-1.4-4-1.4-5.5,0l-15.2,13.8
				c-0.9,0.8-1.4,1.9-1.4,3.1v19.8h-25V19.7c0-1.2-0.5-2.3-1.4-3.1l-15.2-13.8c-1.6-1.4-4-1.4-5.5,0l-15.2,13.8
				c-0.9,0.8-1.4,1.9-1.4,3.1v19.8h-25V19.7c0-1.2-0.5-2.3-1.4-3.1l-15.2-13.8c-1.6-1.4-4-1.4-5.5,0l-15.2,13.7
				c-0.9,0.8-1.4,1.9-1.4,3.1v137.7c0,2.3,1.8,4.1,4.1,4.1h30.4c2.3,0,4.1-1.8,4.1-4.1v-20.6h25v20.6c0,2.3,1.8,4.1,4.1,4.1h30.4
				c2.3,0,4.1-1.8,4.1-4.1v-20.6h25v20.6c0,2.3,1.8,4.1,4.1,4.1h30.4c2.3,0,4.1-1.8,4.1-4.1v-20.6h25.2v-8.1H2258v-12.4h25.4v-8.4
				h-25.2V68.3h25.2v-8.1H2258V47.8h25.4v-8.4h-24.9V39.5z M2122.7,43.7v109.5h-22V21.6l11.1-10.1l11.1,10L2122.7,43.7z M2156,128.6
				h-24.9v-12.4h25L2156,128.6z M2156,108h-24.9V68.4h25L2156,108z M2156,60.2h-24.9V47.8h25L2156,60.2z M2186.4,43.7v109.5h-22
				V21.6l11.1-10.1l11.1,10L2186.4,43.7z M2219.7,128.7h-24.8v-12.4h25L2219.7,128.7z M2219.7,108h-24.8V68.4h25L2219.7,108z
				 M2219.7,60.3h-24.8V47.9h25L2219.7,60.3z M2250.1,43.8v109.4h-21.9V21.6l11.1-10.1l11.1,10L2250.1,43.8z"/>
			<circle class="st3" cx="2111.8" cy="54" r="5"/>
			<ellipse class="st3" cx="2111.9" cy="122.4" rx="5" ry="5"/>
			<path class="st3" d="M2170.4,54c0,2.8,2.3,5,5,5c2.8,0,5-2.3,5-5s-2.3-5-5-5C2172.7,48.9,2170.4,51.2,2170.4,54z"/>
			<path class="st3" d="M2175.5,117.3c-2.8,0-5,2.3-5,5s2.3,5,5,5c2.8,0,5-2.3,5-5S2178.3,117.3,2175.5,117.3z"/>
			<circle class="st3" cx="2239.2" cy="54" r="5"/>
			<circle class="st3" cx="2239.2" cy="122.4" r="5"/>
		</g>
	</g>
	<g>
		<g>
			<path class="st0" d="M1936.8,112h33.3v20.6h-33.3V112z"/>
			<path class="st0" d="M1936.8,43.6h33.3v20.6h-33.3V43.6z"/>
			<path class="st0" d="M1906.4,157.3V19.8l15.2-13.7l15.2,13.7v137.5H1906.4L1906.4,157.3z"/>
			<path class="st0" d="M1970.1,157.3V19.8L1985.3,6l15.2,13.8v137.5H1970.1L1970.1,157.3z M1985.3,121.5c-0.5,0-0.9,0.4-0.9,0.9
				s0.4,0.9,0.9,0.9s0.9-0.4,0.9-0.9S1985.8,121.5,1985.3,121.5L1985.3,121.5z M1985.3,53c-0.5,0-0.9,0.4-0.9,0.9s0.4,0.9,0.9,0.9
				s0.9-0.4,0.9-0.9S1985.8,53,1985.3,53L1985.3,53z"/>
			<path class="st0" d="M2000.5,112h33.3v20.6h-33.3V112z"/>
			<path class="st0" d="M2064.2,43.6h29v20.6h-29V43.6z"/>
			<path class="st0" d="M2033.8,157.3V19.8L2049,6.1l15.2,13.7v137.5H2033.8L2033.8,157.3z M2049,121.5c-0.5,0-0.9,0.4-0.9,0.9
				s0.4,0.9,0.9,0.9s0.9-0.4,0.9-0.9S2049.5,121.5,2049,121.5L2049,121.5L2049,121.5L2049,121.5z M2049,53c-0.5,0-0.9,0.4-0.9,0.9
				s0.4,0.9,0.9,0.9s0.9-0.4,0.9-0.9C2049.9,53.5,2049.5,53,2049,53L2049,53L2049,53z"/>
			<path class="st0" d="M2064.2,112h29v20.6h-29V112z"/>
			<path class="st0" d="M2000.5,43.6h33.3v20.6h-33.3V43.6z"/>
		</g>
		<g>
			<path class="st1" d="M1925,9.1l-3.4-2.2v150.4h15.2V19.8L1925,9.1z"/>
			<path class="st1" d="M1988.7,9.1l-3.4-2.2v150.4h15.2V19.8L1988.7,9.1z"/>
			<path class="st1" d="M2052.4,9.1l-3.4-2.2v150.4h15.2V19.8L2052.4,9.1z"/>
		</g>
		<g>
			<path class="st2" d="M1910.5,21.6v131.6h22V43.7l0.2-22.2l-11.1-10L1910.5,21.6z M1921.6,127.4c-2.8,0-5-2.3-5-5s2.3-5,5-5
				s5,2.3,5,5C1926.6,125.1,1924.4,127.4,1921.6,127.4z M1926.6,54c0,2.8-2.3,5-5,5s-5-2.3-5-5s2.3-5,5-5S1926.6,51.2,1926.6,54z"/>
			<polygon class="st2" points="1940.9,128.6 1965.8,128.6 1965.9,116.3 1940.9,116.3 			"/>
			<polygon class="st2" points="1940.9,108 1965.8,108 1965.9,68.4 1940.9,68.4 			"/>
			<polygon class="st2" points="1940.9,60.2 1965.8,60.2 1965.9,47.8 1940.9,47.8 			"/>
			<rect x="2068.1" y="116.3" class="st2" width="25.4" height="12.4"/>
			<path class="st2" d="M1974.2,21.6v131.6h22V43.7l0.2-22.2l-11.1-10L1974.2,21.6z M1985.3,127.4c-2.8,0-5-2.3-5-5s2.3-5,5-5
				s5,2.3,5,5C1990.3,125.1,1988.1,127.4,1985.3,127.4z M1990.3,54c0,2.8-2.3,5-5,5s-5-2.3-5-5s2.3-5,5-5S1990.3,51.2,1990.3,54z"/>
			<rect x="2068.3" y="68.4" class="st2" width="25.2" height="39.5"/>
			<rect x="2068.1" y="47.9" class="st2" width="25.4" height="12.4"/>
			<path class="st2" d="M2037.9,21.6v131.6h21.9V43.8l0.2-22.2l-11.1-10L2037.9,21.6z M2049,127.4c-2.8,0-5-2.3-5-5s2.3-5,5-5
				c2.8,0,5,2.3,5,5C2054,125.1,2051.8,127.4,2049,127.4z M2054,54c0,2.8-2.3,5-5,5c-2.8,0-5-2.3-5-5s2.3-5,5-5
				C2051.8,48.9,2054,51.2,2054,54z"/>
			<polygon class="st2" points="2004.6,108 2029.5,108 2029.7,68.4 2004.6,68.4 			"/>
			<polygon class="st2" points="2004.6,60.3 2029.5,60.3 2029.7,47.9 2004.6,47.9 			"/>
			<polygon class="st2" points="2004.6,128.7 2029.5,128.7 2029.7,116.3 2004.6,116.3 			"/>
			<path class="st3" d="M2068.3,39.5V19.7c0-1.2-0.5-2.3-1.4-3.1l-15.2-13.8c-1.6-1.4-4-1.4-5.5,0L2031,16.6
				c-0.9,0.8-1.4,1.9-1.4,3.1v19.8h-25V19.7c0-1.2-0.5-2.3-1.4-3.1L1988,2.8c-1.6-1.4-4-1.4-5.5,0l-15.2,13.8
				c-0.9,0.8-1.4,1.9-1.4,3.1v19.8h-25V19.7c0-1.2-0.5-2.3-1.4-3.1l-15.2-13.8c-1.6-1.4-4-1.4-5.5,0l-15.2,13.7
				c-0.9,0.8-1.4,1.9-1.4,3.1v137.7c0,2.3,1.8,4.1,4.1,4.1h30.4c2.3,0,4.1-1.8,4.1-4.1v-20.6h25v20.6c0,2.3,1.8,4.1,4.1,4.1h30.4
				c2.3,0,4.1-1.8,4.1-4.1v-20.6h25v20.6c0,2.3,1.8,4.1,4.1,4.1h30.4c2.3,0,4.1-1.8,4.1-4.1v-20.6h25.2v-8.1h-25.4v-12.4h25.4v-8.4
				H2068V68.3h25.2v-8.1h-25.4V47.8h25.4v-8.4h-24.9V39.5z M1932.5,43.7v109.5h-22V21.6l11.1-10.1l11.1,10L1932.5,43.7z
				 M1965.8,128.6h-24.9v-12.4h25L1965.8,128.6z M1965.8,108h-24.9V68.4h25L1965.8,108z M1965.8,60.2h-24.9V47.8h25L1965.8,60.2z
				 M1996.2,43.7v109.5h-22V21.6l11.1-10.1l11.1,10L1996.2,43.7z M2029.5,128.7h-24.8v-12.4h25L2029.5,128.7z M2029.5,108h-24.8
				V68.4h25L2029.5,108z M2029.5,60.3h-24.8V47.9h25L2029.5,60.3z M2059.9,43.8v109.4H2038V21.6l11.1-10.1l11.1,10L2059.9,43.8z"/>
			<circle class="st3" cx="1921.6" cy="54" r="5"/>
			<ellipse class="st3" cx="1921.7" cy="122.4" rx="5" ry="5"/>
			<path class="st3" d="M1980.2,54c0,2.8,2.3,5,5,5s5-2.3,5-5s-2.3-5-5-5S1980.2,51.2,1980.2,54z"/>
			<path class="st3" d="M1985.3,117.3c-2.8,0-5,2.3-5,5s2.3,5,5,5s5-2.3,5-5S1988.1,117.3,1985.3,117.3z"/>
			<circle class="st3" cx="2049" cy="54" r="5"/>
			<circle class="st3" cx="2049" cy="122.4" r="5"/>
		</g>
	</g>
	<g>
		<g>
			<path class="st0" d="M1746.6,112h33.3v20.6h-33.3V112z"/>
			<path class="st0" d="M1746.6,43.6h33.3v20.6h-33.3V43.6z"/>
			<path class="st0" d="M1716.1,157.3V19.8l15.2-13.7l15.2,13.7v137.5H1716.1L1716.1,157.3z"/>
			<path class="st0" d="M1779.8,157.3V19.8L1795,6l15.2,13.8v137.5H1779.8L1779.8,157.3z M1795.1,121.5c-0.5,0-0.9,0.4-0.9,0.9
				s0.4,0.9,0.9,0.9s0.9-0.4,0.9-0.9S1795.6,121.5,1795.1,121.5L1795.1,121.5z M1795.1,53c-0.5,0-0.9,0.4-0.9,0.9s0.4,0.9,0.9,0.9
				s0.9-0.4,0.9-0.9S1795.6,53,1795.1,53L1795.1,53z"/>
			<path class="st0" d="M1810.3,112h33.3v20.6h-33.3V112z"/>
			<path class="st0" d="M1874,43.6h29v20.6h-29V43.6z"/>
			<path class="st0" d="M1843.6,157.3V19.8l15.2-13.7l15.2,13.7v137.5H1843.6L1843.6,157.3z M1858.8,121.5c-0.5,0-0.9,0.4-0.9,0.9
				s0.4,0.9,0.9,0.9s0.9-0.4,0.9-0.9S1859.3,121.5,1858.8,121.5L1858.8,121.5L1858.8,121.5L1858.8,121.5z M1858.8,53
				c-0.5,0-0.9,0.4-0.9,0.9s0.4,0.9,0.9,0.9s0.9-0.4,0.9-0.9C1859.7,53.5,1859.3,53,1858.8,53L1858.8,53L1858.8,53z"/>
			<path class="st0" d="M1874,112h29v20.6h-29V112z"/>
			<path class="st0" d="M1810.3,43.6h33.3v20.6h-33.3V43.6z"/>
		</g>
		<g>
			<path class="st1" d="M1734.8,9.1l-3.4-2.2v150.4h15.2V19.8L1734.8,9.1z"/>
			<path class="st1" d="M1798.5,9.1l-3.4-2.2v150.4h15.2V19.8L1798.5,9.1z"/>
			<path class="st1" d="M1862.2,9.1l-3.4-2.2v150.4h15.2V19.8L1862.2,9.1z"/>
		</g>
		<g>
			<path class="st2" d="M1720.3,21.6v131.6h22V43.7l0.2-22.2l-11.1-10L1720.3,21.6z M1731.4,127.4c-2.8,0-5-2.3-5-5s2.3-5,5-5
				c2.8,0,5,2.3,5,5C1736.4,125.1,1734.1,127.4,1731.4,127.4z M1736.4,54c0,2.8-2.3,5-5,5c-2.8,0-5-2.3-5-5s2.3-5,5-5
				C1734.1,48.9,1736.4,51.2,1736.4,54z"/>
			<polygon class="st2" points="1750.7,128.6 1775.6,128.6 1775.7,116.3 1750.7,116.3 			"/>
			<polygon class="st2" points="1750.7,108 1775.6,108 1775.7,68.4 1750.7,68.4 			"/>
			<polygon class="st2" points="1750.7,60.2 1775.6,60.2 1775.7,47.8 1750.7,47.8 			"/>
			<rect x="1877.9" y="116.3" class="st2" width="25.4" height="12.4"/>
			<path class="st2" d="M1784,21.6v131.6h22V43.7l0.2-22.2l-11.1-10L1784,21.6z M1795.1,127.4c-2.8,0-5-2.3-5-5s2.3-5,5-5
				c2.8,0,5,2.3,5,5C1800.1,125.1,1797.8,127.4,1795.1,127.4z M1800.1,54c0,2.8-2.3,5-5,5c-2.8,0-5-2.3-5-5s2.3-5,5-5
				C1797.8,48.9,1800.1,51.2,1800.1,54z"/>
			<rect x="1878.1" y="68.4" class="st2" width="25.2" height="39.5"/>
			<rect x="1877.9" y="47.9" class="st2" width="25.4" height="12.4"/>
			<path class="st2" d="M1847.7,21.6v131.6h21.9V43.8l0.2-22.2l-11.1-10L1847.7,21.6z M1858.8,127.4c-2.8,0-5-2.3-5-5s2.3-5,5-5
				s5,2.3,5,5C1863.8,125.1,1861.5,127.4,1858.8,127.4z M1863.8,54c0,2.8-2.3,5-5,5s-5-2.3-5-5s2.3-5,5-5S1863.8,51.2,1863.8,54z"/>
			<polygon class="st2" points="1814.4,108 1839.3,108 1839.5,68.4 1814.4,68.4 			"/>
			<polygon class="st2" points="1814.4,60.3 1839.3,60.3 1839.5,47.9 1814.4,47.9 			"/>
			<polygon class="st2" points="1814.4,128.7 1839.3,128.7 1839.5,116.3 1814.4,116.3 			"/>
			<path class="st3" d="M1878.1,39.5V19.7c0-1.2-0.5-2.3-1.4-3.1l-15.2-13.8c-1.6-1.4-4-1.4-5.5,0l-15.2,13.8
				c-0.9,0.8-1.4,1.9-1.4,3.1v19.8h-25V19.7c0-1.2-0.5-2.3-1.4-3.1l-15.2-13.8c-1.6-1.4-4-1.4-5.5,0l-15.2,13.8
				c-0.9,0.8-1.4,1.9-1.4,3.1v19.8h-25V19.7c0-1.2-0.5-2.3-1.4-3.1l-15.2-13.8c-1.6-1.4-4-1.4-5.5,0l-15.2,13.7
				c-0.9,0.8-1.4,1.9-1.4,3.1v137.7c0,2.3,1.8,4.1,4.1,4.1h30.4c2.3,0,4.1-1.8,4.1-4.1v-20.6h25v20.6c0,2.3,1.8,4.1,4.1,4.1h30.4
				c2.3,0,4.1-1.8,4.1-4.1v-20.6h25v20.6c0,2.3,1.8,4.1,4.1,4.1h30.4c2.3,0,4.1-1.8,4.1-4.1v-20.6h25.2v-8.1h-25.4v-12.4h25.4v-8.4
				h-25.2V68.3h25.2v-8.1h-25.4V47.8h25.4v-8.4h-24.9V39.5z M1742.3,43.7v109.5h-22V21.6l11.1-10.1l11.1,10L1742.3,43.7z
				 M1775.6,128.6h-24.9v-12.4h25L1775.6,128.6z M1775.6,108h-24.9V68.4h25L1775.6,108z M1775.6,60.2h-24.9V47.8h25L1775.6,60.2z
				 M1806,43.7v109.5h-22V21.6l11.1-10.1l11.1,10L1806,43.7z M1839.3,128.7h-24.8v-12.4h25L1839.3,128.7z M1839.3,108h-24.8V68.4h25
				L1839.3,108z M1839.3,60.3h-24.8V47.9h25L1839.3,60.3z M1869.7,43.8v109.4h-21.9V21.6l11.1-10.1l11.1,10L1869.7,43.8z"/>
			<circle class="st3" cx="1731.4" cy="54" r="5"/>
			<ellipse class="st3" cx="1731.5" cy="122.4" rx="5" ry="5"/>
			<path class="st3" d="M1790,54c0,2.8,2.3,5,5,5c2.8,0,5-2.3,5-5s-2.3-5-5-5C1792.3,48.9,1790,51.2,1790,54z"/>
			<path class="st3" d="M1795.1,117.3c-2.8,0-5,2.3-5,5s2.3,5,5,5c2.8,0,5-2.3,5-5S1797.8,117.3,1795.1,117.3z"/>
			<circle class="st3" cx="1858.8" cy="54" r="5"/>
			<circle class="st3" cx="1858.8" cy="122.4" r="5"/>
		</g>
	</g>
	<g>
		<g>
			<path class="st0" d="M1556.3,112h33.3v20.6h-33.3V112z"/>
			<path class="st0" d="M1556.3,43.6h33.3v20.6h-33.3V43.6z"/>
			<path class="st0" d="M1525.9,157.3V19.8l15.2-13.7l15.2,13.7v137.5H1525.9L1525.9,157.3z"/>
			<path class="st0" d="M1589.6,157.3V19.8L1604.8,6l15.2,13.8v137.5H1589.6L1589.6,157.3z M1604.9,121.5c-0.5,0-0.9,0.4-0.9,0.9
				s0.4,0.9,0.9,0.9s0.9-0.4,0.9-0.9S1605.4,121.5,1604.9,121.5L1604.9,121.5z M1604.9,53c-0.5,0-0.9,0.4-0.9,0.9s0.4,0.9,0.9,0.9
				s0.9-0.4,0.9-0.9S1605.4,53,1604.9,53L1604.9,53z"/>
			<path class="st0" d="M1620.1,112h33.3v20.6h-33.3V112z"/>
			<path class="st0" d="M1683.8,43.6h29v20.6h-29V43.6z"/>
			<path class="st0" d="M1653.4,157.3V19.8l15.2-13.7l15.2,13.7v137.5H1653.4L1653.4,157.3z M1668.6,121.5c-0.5,0-0.9,0.4-0.9,0.9
				s0.4,0.9,0.9,0.9s0.9-0.4,0.9-0.9S1669.1,121.5,1668.6,121.5L1668.6,121.5L1668.6,121.5L1668.6,121.5z M1668.6,53
				c-0.5,0-0.9,0.4-0.9,0.9s0.4,0.9,0.9,0.9s0.9-0.4,0.9-0.9C1669.5,53.5,1669.1,53,1668.6,53L1668.6,53L1668.6,53z"/>
			<path class="st0" d="M1683.8,112h29v20.6h-29V112z"/>
			<path class="st0" d="M1620.1,43.6h33.3v20.6h-33.3V43.6z"/>
		</g>
		<g>
			<path class="st1" d="M1544.5,9.1l-3.4-2.2v150.4h15.2V19.8L1544.5,9.1z"/>
			<path class="st1" d="M1608.2,9.1l-3.4-2.2v150.4h15.2V19.8L1608.2,9.1z"/>
			<path class="st1" d="M1672,9.1l-3.4-2.2v150.4h15.2V19.8L1672,9.1z"/>
		</g>
		<g>
			<path class="st2" d="M1530.1,21.6v131.6h22V43.7l0.2-22.2l-11.1-10L1530.1,21.6z M1541.2,127.4c-2.8,0-5-2.3-5-5s2.3-5,5-5
				c2.8,0,5,2.3,5,5C1546.2,125.1,1543.9,127.4,1541.2,127.4z M1546.2,54c0,2.8-2.3,5-5,5c-2.8,0-5-2.3-5-5s2.3-5,5-5
				C1543.9,48.9,1546.2,51.2,1546.2,54z"/>
			<polygon class="st2" points="1560.5,128.6 1585.3,128.6 1585.5,116.3 1560.5,116.3 			"/>
			<polygon class="st2" points="1560.5,108 1585.3,108 1585.5,68.4 1560.5,68.4 			"/>
			<polygon class="st2" points="1560.5,60.2 1585.3,60.2 1585.5,47.8 1560.5,47.8 			"/>
			<rect x="1687.7" y="116.3" class="st2" width="25.4" height="12.4"/>
			<path class="st2" d="M1593.8,21.6v131.6h22V43.7l0.2-22.2l-11.1-10L1593.8,21.6z M1604.9,127.4c-2.8,0-5-2.3-5-5s2.3-5,5-5
				c2.8,0,5,2.3,5,5C1609.9,125.1,1607.6,127.4,1604.9,127.4z M1609.9,54c0,2.8-2.3,5-5,5c-2.8,0-5-2.3-5-5s2.3-5,5-5
				C1607.6,48.9,1609.9,51.2,1609.9,54z"/>
			<rect x="1687.9" y="68.4" class="st2" width="25.2" height="39.5"/>
			<rect x="1687.7" y="47.9" class="st2" width="25.4" height="12.4"/>
			<path class="st2" d="M1657.5,21.6v131.6h21.9V43.8l0.2-22.2l-11.1-10L1657.5,21.6z M1668.6,127.4c-2.8,0-5-2.3-5-5s2.3-5,5-5
				s5,2.3,5,5C1673.6,125.1,1671.3,127.4,1668.6,127.4z M1673.6,54c0,2.8-2.3,5-5,5s-5-2.3-5-5s2.3-5,5-5S1673.6,51.2,1673.6,54z"/>
			<polygon class="st2" points="1624.2,108 1649,108 1649.3,68.4 1624.2,68.4 			"/>
			<polygon class="st2" points="1624.2,60.3 1649,60.3 1649.3,47.9 1624.2,47.9 			"/>
			<polygon class="st2" points="1624.2,128.7 1649,128.7 1649.3,116.3 1624.2,116.3 			"/>
			<path class="st3" d="M1687.9,39.5V19.7c0-1.2-0.5-2.3-1.4-3.1l-15.2-13.8c-1.6-1.4-4-1.4-5.5,0l-15.2,13.8
				c-0.9,0.8-1.4,1.9-1.4,3.1v19.8h-25V19.7c0-1.2-0.5-2.3-1.4-3.1l-15.2-13.8c-1.6-1.4-4-1.4-5.5,0l-15.2,13.8
				c-0.9,0.8-1.4,1.9-1.4,3.1v19.8h-25V19.7c0-1.2-0.5-2.3-1.4-3.1l-15.2-13.8c-1.6-1.4-4-1.4-5.5,0l-15.2,13.7
				c-0.9,0.8-1.4,1.9-1.4,3.1v137.7c0,2.3,1.8,4.1,4.1,4.1h30.4c2.3,0,4.1-1.8,4.1-4.1v-20.6h25v20.6c0,2.3,1.8,4.1,4.1,4.1h30.4
				c2.3,0,4.1-1.8,4.1-4.1v-20.6h25v20.6c0,2.3,1.8,4.1,4.1,4.1h30.4c2.3,0,4.1-1.8,4.1-4.1v-20.6h25.2v-8.1h-25.4v-12.4h25.4v-8.4
				h-25.2V68.3h25.2v-8.1h-25.4V47.8h25.4v-8.4h-24.9V39.5z M1552.1,43.7v109.5h-22V21.6l11.1-10.1l11.1,10L1552.1,43.7z
				 M1585.3,128.6h-24.9v-12.4h25L1585.3,128.6z M1585.3,108h-24.9V68.4h25L1585.3,108z M1585.3,60.2h-24.9V47.8h25L1585.3,60.2z
				 M1615.8,43.7v109.5h-22V21.6l11.1-10.1l11.1,10L1615.8,43.7z M1649,128.7h-24.8v-12.4h25L1649,128.7z M1649,108h-24.8V68.4h25
				L1649,108z M1649,60.3h-24.8V47.9h25L1649,60.3z M1679.5,43.8v109.4h-21.9V21.6l11.1-10.1l11.1,10L1679.5,43.8z"/>
			<circle class="st3" cx="1541.2" cy="54" r="5"/>
			<ellipse class="st3" cx="1541.3" cy="122.4" rx="5" ry="5"/>
			<path class="st3" d="M1599.8,54c0,2.8,2.3,5,5,5c2.8,0,5-2.3,5-5s-2.3-5-5-5C1602.1,48.9,1599.8,51.2,1599.8,54z"/>
			<path class="st3" d="M1604.9,117.3c-2.8,0-5,2.3-5,5s2.3,5,5,5c2.8,0,5-2.3,5-5S1607.6,117.3,1604.9,117.3z"/>
			<circle class="st3" cx="1668.6" cy="54" r="5"/>
			<circle class="st3" cx="1668.6" cy="122.4" r="5"/>
		</g>
	</g>
	<g>
		<g>
			<path class="st0" d="M1366.1,112h33.3v20.6h-33.3V112z"/>
			<path class="st0" d="M1366.1,43.6h33.3v20.6h-33.3V43.6z"/>
			<path class="st0" d="M1335.7,157.3V19.8l15.2-13.7l15.2,13.7v137.5H1335.7L1335.7,157.3z"/>
			<path class="st0" d="M1399.4,157.3V19.8L1414.6,6l15.2,13.8v137.5H1399.4L1399.4,157.3z M1414.7,121.5c-0.5,0-0.9,0.4-0.9,0.9
				s0.4,0.9,0.9,0.9s0.9-0.4,0.9-0.9C1415.6,121.9,1415.2,121.5,1414.7,121.5L1414.7,121.5z M1414.7,53c-0.5,0-0.9,0.4-0.9,0.9
				s0.4,0.9,0.9,0.9s0.9-0.4,0.9-0.9S1415.2,53,1414.7,53L1414.7,53z"/>
			<path class="st0" d="M1429.9,112h33.3v20.6h-33.3V112z"/>
			<path class="st0" d="M1493.6,43.6h29v20.6h-29V43.6z"/>
			<path class="st0" d="M1463.2,157.3V19.8l15.2-13.7l15.2,13.7v137.5H1463.2L1463.2,157.3z M1478.4,121.5c-0.5,0-0.9,0.4-0.9,0.9
				s0.4,0.9,0.9,0.9s0.9-0.4,0.9-0.9S1478.9,121.5,1478.4,121.5L1478.4,121.5L1478.4,121.5L1478.4,121.5z M1478.4,53
				c-0.5,0-0.9,0.4-0.9,0.9s0.4,0.9,0.9,0.9s0.9-0.4,0.9-0.9C1479.3,53.5,1478.9,53,1478.4,53L1478.4,53L1478.4,53z"/>
			<path class="st0" d="M1493.6,112h29v20.6h-29V112z"/>
			<path class="st0" d="M1429.9,43.6h33.3v20.6h-33.3V43.6z"/>
		</g>
		<g>
			<path class="st1" d="M1354.3,9.1l-3.4-2.2v150.4h15.2V19.8L1354.3,9.1z"/>
			<path class="st1" d="M1418,9.1l-3.4-2.2v150.4h15.2V19.8L1418,9.1z"/>
			<path class="st1" d="M1481.8,9.1l-3.4-2.2v150.4h15.2V19.8L1481.8,9.1z"/>
		</g>
		<g>
			<path class="st2" d="M1339.9,21.6v131.6h22V43.7l0.2-22.2l-11.1-10L1339.9,21.6z M1351,127.4c-2.8,0-5-2.3-5-5s2.3-5,5-5
				s5,2.3,5,5C1356,125.1,1353.7,127.4,1351,127.4z M1356,54c0,2.8-2.3,5-5,5s-5-2.3-5-5s2.3-5,5-5S1356,51.2,1356,54z"/>
			<polygon class="st2" points="1370.3,128.6 1395.1,128.6 1395.3,116.3 1370.3,116.3 			"/>
			<polygon class="st2" points="1370.3,108 1395.1,108 1395.3,68.4 1370.3,68.4 			"/>
			<polygon class="st2" points="1370.3,60.2 1395.1,60.2 1395.3,47.8 1370.3,47.8 			"/>
			<rect x="1497.5" y="116.3" class="st2" width="25.4" height="12.4"/>
			<path class="st2" d="M1403.6,21.6v131.6h22V43.7l0.2-22.2l-11.1-10L1403.6,21.6z M1414.7,127.4c-2.8,0-5-2.3-5-5s2.3-5,5-5
				c2.8,0,5,2.3,5,5C1419.7,125.1,1417.4,127.4,1414.7,127.4z M1419.7,54c0,2.8-2.3,5-5,5c-2.8,0-5-2.3-5-5s2.3-5,5-5
				C1417.4,48.9,1419.7,51.2,1419.7,54z"/>
			<rect x="1497.7" y="68.4" class="st2" width="25.2" height="39.5"/>
			<rect x="1497.5" y="47.9" class="st2" width="25.4" height="12.4"/>
			<path class="st2" d="M1467.3,21.6v131.6h21.9V43.8l0.2-22.2l-11.1-10L1467.3,21.6z M1478.4,127.4c-2.8,0-5-2.3-5-5s2.3-5,5-5
				c2.8,0,5,2.3,5,5C1483.4,125.1,1481.1,127.4,1478.4,127.4z M1483.4,54c0,2.8-2.3,5-5,5c-2.8,0-5-2.3-5-5s2.3-5,5-5
				C1481.1,48.9,1483.4,51.2,1483.4,54z"/>
			<polygon class="st2" points="1434,108 1458.8,108 1459,68.4 1434,68.4 			"/>
			<polygon class="st2" points="1434,60.3 1458.8,60.3 1459,47.9 1434,47.9 			"/>
			<polygon class="st2" points="1434,128.7 1458.8,128.7 1459,116.3 1434,116.3 			"/>
			<path class="st3" d="M1497.7,39.5V19.7c0-1.2-0.5-2.3-1.4-3.1l-15.2-13.8c-1.6-1.4-4-1.4-5.5,0l-15.2,13.8
				c-0.9,0.8-1.4,1.9-1.4,3.1v19.8h-25V19.7c0-1.2-0.5-2.3-1.4-3.1l-15.2-13.8c-1.6-1.4-4-1.4-5.5,0l-15.2,13.8
				c-0.9,0.8-1.4,1.9-1.4,3.1v19.8h-25V19.7c0-1.2-0.5-2.3-1.4-3.1l-15.2-13.8c-1.6-1.4-4-1.4-5.5,0L1333,16.5
				c-0.9,0.8-1.4,1.9-1.4,3.1v137.7c0,2.3,1.8,4.1,4.1,4.1h30.4c2.3,0,4.1-1.8,4.1-4.1v-20.6h25v20.6c0,2.3,1.8,4.1,4.1,4.1h30.4
				c2.3,0,4.1-1.8,4.1-4.1v-20.6h25v20.6c0,2.3,1.8,4.1,4.1,4.1h30.4c2.3,0,4.1-1.8,4.1-4.1v-20.6h25.2v-8.1h-25.4v-12.4h25.4v-8.4
				h-25.2V68.3h25.2v-8.1h-25.4V47.8h25.4v-8.4h-24.9V39.5z M1361.8,43.7v109.5h-22V21.6l11.1-10.1l11.1,10L1361.8,43.7z
				 M1395.1,128.6h-24.9v-12.4h25L1395.1,128.6z M1395.1,108h-24.9V68.4h25L1395.1,108z M1395.1,60.2h-24.9V47.8h25L1395.1,60.2z
				 M1425.5,43.7v109.5h-22V21.6l11.1-10.1l11.1,10L1425.5,43.7z M1458.8,128.7H1434v-12.4h25L1458.8,128.7z M1458.8,108H1434V68.4
				h25L1458.8,108z M1458.8,60.3H1434V47.9h25L1458.8,60.3z M1489.2,43.8v109.4h-21.9V21.6l11.1-10.1l11.1,10L1489.2,43.8z"/>
			<circle class="st3" cx="1351" cy="54" r="5"/>
			<ellipse class="st3" cx="1351.1" cy="122.4" rx="5" ry="5"/>
			<path class="st3" d="M1409.6,54c0,2.8,2.3,5,5,5c2.8,0,5-2.3,5-5s-2.3-5-5-5C1411.9,48.9,1409.6,51.2,1409.6,54z"/>
			<path class="st3" d="M1414.7,117.3c-2.8,0-5,2.3-5,5s2.3,5,5,5c2.8,0,5-2.3,5-5S1417.4,117.3,1414.7,117.3z"/>
			<circle class="st3" cx="1478.4" cy="54" r="5"/>
			<circle class="st3" cx="1478.4" cy="122.4" r="5"/>
		</g>
	</g>
	<g>
		<g>
			<path class="st0" d="M1175.9,112h33.3v20.6h-33.3V112z"/>
			<path class="st0" d="M1175.9,43.6h33.3v20.6h-33.3V43.6z"/>
			<path class="st0" d="M1145.5,157.3V19.8l15.2-13.7l15.2,13.7v137.5H1145.5L1145.5,157.3z"/>
			<path class="st0" d="M1209.2,157.3V19.8L1224.4,6l15.2,13.8v137.5H1209.2L1209.2,157.3z M1224.4,121.5c-0.5,0-0.9,0.4-0.9,0.9
				s0.4,0.9,0.9,0.9s0.9-0.4,0.9-0.9C1225.4,121.9,1225,121.5,1224.4,121.5L1224.4,121.5z M1224.4,53c-0.5,0-0.9,0.4-0.9,0.9
				s0.4,0.9,0.9,0.9s0.9-0.4,0.9-0.9S1225,53,1224.4,53L1224.4,53z"/>
			<path class="st0" d="M1239.7,112h33.3v20.6h-33.3V112z"/>
			<path class="st0" d="M1303.4,43.6h29v20.6h-29V43.6z"/>
			<path class="st0" d="M1273,157.3V19.8l15.2-13.7l15.2,13.7v137.5H1273L1273,157.3z M1288.2,121.5c-0.5,0-0.9,0.4-0.9,0.9
				s0.4,0.9,0.9,0.9s0.9-0.4,0.9-0.9C1289.1,121.9,1288.7,121.5,1288.2,121.5L1288.2,121.5L1288.2,121.5L1288.2,121.5z M1288.2,53
				c-0.5,0-0.9,0.4-0.9,0.9s0.4,0.9,0.9,0.9s0.9-0.4,0.9-0.9C1289.1,53.5,1288.7,53,1288.2,53L1288.2,53L1288.2,53z"/>
			<path class="st0" d="M1303.4,112h29v20.6h-29V112z"/>
			<path class="st0" d="M1239.7,43.6h33.3v20.6h-33.3V43.6z"/>
		</g>
		<g>
			<path class="st1" d="M1164.1,9.1l-3.4-2.2v150.4h15.2V19.8L1164.1,9.1z"/>
			<path class="st1" d="M1227.8,9.1l-3.4-2.2v150.4h15.2V19.8L1227.8,9.1z"/>
			<path class="st1" d="M1291.6,9.1l-3.4-2.2v150.4h15.2V19.8L1291.6,9.1z"/>
		</g>
		<g>
			<path class="st2" d="M1149.7,21.6v131.6h22V43.7l0.2-22.2l-11.1-10L1149.7,21.6z M1160.7,127.4c-2.8,0-5-2.3-5-5s2.3-5,5-5
				s5,2.3,5,5C1165.7,125.1,1163.5,127.4,1160.7,127.4z M1165.8,54c0,2.8-2.3,5-5,5s-5-2.3-5-5s2.3-5,5-5S1165.8,51.2,1165.8,54z"/>
			<polygon class="st2" points="1180.1,128.6 1204.9,128.6 1205.1,116.3 1180.1,116.3 			"/>
			<polygon class="st2" points="1180.1,108 1204.9,108 1205.1,68.4 1180.1,68.4 			"/>
			<polygon class="st2" points="1180.1,60.2 1204.9,60.2 1205.1,47.8 1180.1,47.8 			"/>
			<rect x="1307.3" y="116.3" class="st2" width="25.4" height="12.4"/>
			<path class="st2" d="M1213.4,21.6v131.6h22V43.7l0.2-22.2l-11.1-10L1213.4,21.6z M1224.4,127.4c-2.8,0-5-2.3-5-5s2.3-5,5-5
				s5,2.3,5,5C1229.4,125.1,1227.2,127.4,1224.4,127.4z M1229.5,54c0,2.8-2.3,5-5,5s-5-2.3-5-5s2.3-5,5-5S1229.5,51.2,1229.5,54z"/>
			<rect x="1307.5" y="68.4" class="st2" width="25.2" height="39.5"/>
			<rect x="1307.3" y="47.9" class="st2" width="25.4" height="12.4"/>
			<path class="st2" d="M1277.1,21.6v131.6h21.9V43.8l0.2-22.2l-11.1-10L1277.1,21.6z M1288.1,127.4c-2.8,0-5-2.3-5-5s2.3-5,5-5
				s5,2.3,5,5C1293.1,125.1,1290.9,127.4,1288.1,127.4z M1293.2,54c0,2.8-2.3,5-5,5s-5-2.3-5-5s2.3-5,5-5S1293.2,51.2,1293.2,54z"/>
			<polygon class="st2" points="1243.8,108 1268.6,108 1268.8,68.4 1243.8,68.4 			"/>
			<polygon class="st2" points="1243.8,60.3 1268.6,60.3 1268.8,47.9 1243.8,47.9 			"/>
			<polygon class="st2" points="1243.8,128.7 1268.6,128.7 1268.8,116.3 1243.8,116.3 			"/>
			<path class="st3" d="M1307.5,39.5V19.7c0-1.2-0.5-2.3-1.4-3.1l-15.2-13.8c-1.6-1.4-4-1.4-5.5,0l-15.2,13.8
				c-0.9,0.8-1.4,1.9-1.4,3.1v19.8h-25V19.7c0-1.2-0.5-2.3-1.4-3.1l-15.2-13.8c-1.6-1.4-4-1.4-5.5,0l-15.2,13.8
				c-0.9,0.8-1.4,1.9-1.4,3.1v19.8h-25V19.7c0-1.2-0.5-2.3-1.4-3.1l-15.2-13.8c-1.6-1.4-4-1.4-5.5,0l-15.2,13.7
				c-0.9,0.8-1.4,1.9-1.4,3.1v137.7c0,2.3,1.8,4.1,4.1,4.1h30.4c2.3,0,4.1-1.8,4.1-4.1v-20.6h25v20.6c0,2.3,1.8,4.1,4.1,4.1h30.4
				c2.3,0,4.1-1.8,4.1-4.1v-20.6h25v20.6c0,2.3,1.8,4.1,4.1,4.1h30.4c2.3,0,4.1-1.8,4.1-4.1v-20.6h25.2v-8.1H1307v-12.4h25.4v-8.4
				h-25.2V68.3h25.2v-8.1H1307V47.8h25.4v-8.4h-24.9V39.5z M1171.6,43.7v109.5h-22V21.6l11.1-10.1l11.1,10L1171.6,43.7z
				 M1204.9,128.6H1180v-12.4h25L1204.9,128.6z M1204.9,108H1180V68.4h25L1204.9,108z M1204.9,60.2H1180V47.8h25L1204.9,60.2z
				 M1235.3,43.7v109.5h-22V21.6l11.1-10.1l11.1,10L1235.3,43.7z M1268.6,128.7h-24.8v-12.4h25L1268.6,128.7z M1268.6,108h-24.8
				V68.4h25L1268.6,108z M1268.6,60.3h-24.8V47.9h25L1268.6,60.3z M1299,43.8v109.4h-21.9V21.6l11.1-10.1l11.1,10L1299,43.8z"/>
			<circle class="st3" cx="1160.7" cy="54" r="5"/>
			<ellipse class="st3" cx="1160.8" cy="122.5" rx="5" ry="5"/>
			<path class="st3" d="M1219.4,54c0,2.8,2.3,5,5,5s5-2.3,5-5s-2.3-5-5-5S1219.4,51.2,1219.4,54z"/>
			<path class="st3" d="M1224.4,117.3c-2.8,0-5,2.3-5,5s2.3,5,5,5s5-2.3,5-5S1227.2,117.3,1224.4,117.3z"/>
			<circle class="st3" cx="1288.1" cy="54" r="5"/>
			<circle class="st3" cx="1288.1" cy="122.4" r="5"/>
		</g>
	</g>
	<g>
		<g>
			<path class="st0" d="M985.6,112h33.3v20.6h-33.3V112z"/>
			<path class="st0" d="M985.6,43.6h33.3v20.6h-33.3V43.6z"/>
			<path class="st0" d="M955.2,157.3V19.8l15.2-13.7l15.2,13.7v137.5H955.2L955.2,157.3z"/>
			<path class="st0" d="M1018.9,157.3V19.8L1034.1,6l15.2,13.8v137.5H1018.9L1018.9,157.3z M1034.2,121.5c-0.5,0-0.9,0.4-0.9,0.9
				s0.4,0.9,0.9,0.9s0.9-0.4,0.9-0.9S1034.7,121.5,1034.2,121.5L1034.2,121.5z M1034.2,53c-0.5,0-0.9,0.4-0.9,0.9s0.4,0.9,0.9,0.9
				s0.9-0.4,0.9-0.9S1034.7,53,1034.2,53L1034.2,53z"/>
			<path class="st0" d="M1049.4,112h33.3v20.6h-33.3V112z"/>
			<path class="st0" d="M1113.1,43.6h29v20.6h-29V43.6z"/>
			<path class="st0" d="M1082.7,157.3V19.8l15.2-13.7l15.2,13.7v137.5H1082.7L1082.7,157.3z M1097.9,121.5c-0.5,0-0.9,0.4-0.9,0.9
				s0.4,0.9,0.9,0.9s0.9-0.4,0.9-0.9S1098.4,121.5,1097.9,121.5L1097.9,121.5L1097.9,121.5L1097.9,121.5z M1097.9,53
				c-0.5,0-0.9,0.4-0.9,0.9s0.4,0.9,0.9,0.9s0.9-0.4,0.9-0.9C1098.8,53.5,1098.4,53,1097.9,53L1097.9,53L1097.9,53z"/>
			<path class="st0" d="M1113.1,112h29v20.6h-29V112z"/>
			<path class="st0" d="M1049.4,43.6h33.3v20.6h-33.3V43.6z"/>
		</g>
		<g>
			<path class="st1" d="M973.8,9.1l-3.4-2.2v150.4h15.2V19.8L973.8,9.1z"/>
			<path class="st1" d="M1037.5,9.1l-3.4-2.2v150.4h15.2V19.8L1037.5,9.1z"/>
			<path class="st1" d="M1101.3,9.1l-3.4-2.2v150.4h15.2V19.8L1101.3,9.1z"/>
		</g>
		<g>
			<path class="st2" d="M959.4,21.6v131.6h22V43.7l0.2-22.2l-11.1-10L959.4,21.6z M970.5,127.4c-2.8,0-5-2.3-5-5s2.3-5,5-5
				c2.8,0,5,2.3,5,5C975.5,125.1,973.2,127.4,970.5,127.4z M975.5,54c0,2.8-2.3,5-5,5c-2.8,0-5-2.3-5-5s2.3-5,5-5
				C973.2,48.9,975.5,51.2,975.5,54z"/>
			<polygon class="st2" points="989.8,128.6 1014.6,128.6 1014.8,116.3 989.8,116.3 			"/>
			<polygon class="st2" points="989.8,108 1014.6,108 1014.8,68.4 989.8,68.4 			"/>
			<polygon class="st2" points="989.8,60.2 1014.6,60.2 1014.8,47.8 989.8,47.8 			"/>
			<rect x="1117" y="116.3" class="st2" width="25.4" height="12.4"/>
			<path class="st2" d="M1023.1,21.6v131.6h22V43.7l0.2-22.2l-11.1-10L1023.1,21.6z M1034.2,127.4c-2.8,0-5-2.3-5-5s2.3-5,5-5
				c2.8,0,5,2.3,5,5C1039.2,125.1,1036.9,127.4,1034.2,127.4z M1039.2,54c0,2.8-2.3,5-5,5c-2.8,0-5-2.3-5-5s2.3-5,5-5
				C1036.9,48.9,1039.2,51.2,1039.2,54z"/>
			<rect x="1117.2" y="68.4" class="st2" width="25.2" height="39.5"/>
			<rect x="1117" y="47.9" class="st2" width="25.4" height="12.4"/>
			<path class="st2" d="M1086.8,21.6v131.6h21.9V43.8l0.2-22.2l-11.1-10L1086.8,21.6z M1097.9,127.4c-2.8,0-5-2.3-5-5s2.3-5,5-5
				s5,2.3,5,5C1102.9,125.1,1100.6,127.4,1097.9,127.4z M1102.9,54c0,2.8-2.3,5-5,5s-5-2.3-5-5s2.3-5,5-5S1102.9,51.2,1102.9,54z"/>
			<polygon class="st2" points="1053.5,108 1078.3,108 1078.6,68.4 1053.5,68.4 			"/>
			<polygon class="st2" points="1053.5,60.3 1078.3,60.3 1078.6,47.9 1053.5,47.9 			"/>
			<polygon class="st2" points="1053.5,128.7 1078.3,128.7 1078.6,116.3 1053.5,116.3 			"/>
			<path class="st3" d="M1117.2,39.5V19.7c0-1.2-0.5-2.3-1.4-3.1l-15.2-13.8c-1.6-1.4-4-1.4-5.5,0l-15.2,13.8
				c-0.9,0.8-1.4,1.9-1.4,3.1v19.8h-25V19.7c0-1.2-0.5-2.3-1.4-3.1l-15.2-13.8c-1.6-1.4-4-1.4-5.5,0l-15.2,13.8
				c-0.9,0.8-1.4,1.9-1.4,3.1v19.8h-25V19.7c0-1.2-0.5-2.3-1.4-3.1L973.2,2.8c-1.6-1.4-4-1.4-5.5,0l-15.2,13.7
				c-0.9,0.8-1.4,1.9-1.4,3.1v137.7c0,2.3,1.8,4.1,4.1,4.1h30.4c2.3,0,4.1-1.8,4.1-4.1v-20.6h25v20.6c0,2.3,1.8,4.1,4.1,4.1h30.4
				c2.3,0,4.1-1.8,4.1-4.1v-20.6h25v20.6c0,2.3,1.8,4.1,4.1,4.1h30.4c2.3,0,4.1-1.8,4.1-4.1v-20.6h25.2v-8.1h-25.4v-12.4h25.4v-8.4
				h-25.2V68.3h25.2v-8.1h-25.4V47.8h25.4v-8.4h-24.9V39.5z M981.4,43.7v109.5h-22V21.6l11.1-10.1l11.1,10L981.4,43.7z
				 M1014.6,128.6h-24.9v-12.4h25L1014.6,128.6z M1014.6,108h-24.9V68.4h25L1014.6,108z M1014.6,60.2h-24.9V47.8h25L1014.6,60.2z
				 M1045.1,43.7v109.5h-22V21.6l11.1-10.1l11.1,10L1045.1,43.7z M1078.3,128.7h-24.8v-12.4h25L1078.3,128.7z M1078.3,108h-24.8
				V68.4h25L1078.3,108z M1078.3,60.3h-24.8V47.9h25L1078.3,60.3z M1108.8,43.8v109.4h-21.9V21.6l11.1-10.1l11.1,10L1108.8,43.8z"/>
			<circle class="st3" cx="970.5" cy="54" r="5"/>
			<ellipse class="st3" cx="970.6" cy="122.4" rx="5" ry="5"/>
			<path class="st3" d="M1029.1,54c0,2.8,2.3,5,5,5c2.8,0,5-2.3,5-5s-2.3-5-5-5C1031.4,48.9,1029.1,51.2,1029.1,54z"/>
			<path class="st3" d="M1034.2,117.3c-2.8,0-5,2.3-5,5s2.3,5,5,5c2.8,0,5-2.3,5-5S1036.9,117.3,1034.2,117.3z"/>
			<circle class="st3" cx="1097.9" cy="54" r="5"/>
			<circle class="st3" cx="1097.9" cy="122.4" r="5"/>
		</g>
	</g>
	<g>
		<g>
			<path class="st0" d="M795.4,112h33.3v20.6h-33.3V112z"/>
			<path class="st0" d="M795.4,43.6h33.3v20.6h-33.3V43.6z"/>
			<path class="st0" d="M765,157.3V19.8l15.2-13.7l15.2,13.7v137.5H765L765,157.3z"/>
			<path class="st0" d="M828.7,157.3V19.8L843.9,6l15.2,13.8v137.5H828.7L828.7,157.3z M844,121.5c-0.5,0-0.9,0.4-0.9,0.9
				s0.4,0.9,0.9,0.9s0.9-0.4,0.9-0.9C844.9,121.9,844.5,121.5,844,121.5L844,121.5z M844,53c-0.5,0-0.9,0.4-0.9,0.9s0.4,0.9,0.9,0.9
				s0.9-0.4,0.9-0.9S844.5,53,844,53L844,53z"/>
			<path class="st0" d="M859.2,112h33.3v20.6h-33.3V112z"/>
			<path class="st0" d="M922.9,43.6h29v20.6h-29V43.6z"/>
			<path class="st0" d="M892.5,157.3V19.8l15.2-13.7l15.2,13.7v137.5H892.5L892.5,157.3z M907.7,121.5c-0.5,0-0.9,0.4-0.9,0.9
				s0.4,0.9,0.9,0.9s0.9-0.4,0.9-0.9S908.2,121.5,907.7,121.5L907.7,121.5L907.7,121.5L907.7,121.5z M907.7,53
				c-0.5,0-0.9,0.4-0.9,0.9s0.4,0.9,0.9,0.9s0.9-0.4,0.9-0.9C908.6,53.5,908.2,53,907.7,53L907.7,53L907.7,53z"/>
			<path class="st0" d="M922.9,112h29v20.6h-29V112z"/>
			<path class="st0" d="M859.2,43.6h33.3v20.6h-33.3V43.6z"/>
		</g>
		<g>
			<path class="st1" d="M783.6,9.1l-3.4-2.2v150.4h15.2V19.8L783.6,9.1z"/>
			<path class="st1" d="M847.3,9.1l-3.4-2.2v150.4h15.2V19.8L847.3,9.1z"/>
			<path class="st1" d="M911.1,9.1l-3.4-2.2v150.4h15.2V19.8L911.1,9.1z"/>
		</g>
		<g>
			<path class="st2" d="M769.2,21.6v131.6h22V43.7l0.2-22.2l-11.1-10L769.2,21.6z M780.3,127.4c-2.8,0-5-2.3-5-5s2.3-5,5-5
				s5,2.3,5,5C785.3,125.1,783,127.4,780.3,127.4z M785.3,54c0,2.8-2.3,5-5,5s-5-2.3-5-5s2.3-5,5-5S785.3,51.2,785.3,54z"/>
			<polygon class="st2" points="799.6,128.6 824.4,128.6 824.6,116.3 799.6,116.3 			"/>
			<polygon class="st2" points="799.6,108 824.4,108 824.6,68.4 799.6,68.4 			"/>
			<polygon class="st2" points="799.6,60.2 824.4,60.2 824.6,47.8 799.6,47.8 			"/>
			<rect x="926.8" y="116.3" class="st2" width="25.4" height="12.4"/>
			<path class="st2" d="M832.9,21.6v131.6h22V43.7l0.2-22.2l-11.1-10L832.9,21.6z M844,127.4c-2.8,0-5-2.3-5-5s2.3-5,5-5
				c2.8,0,5,2.3,5,5C849,125.1,846.7,127.4,844,127.4z M849,54c0,2.8-2.3,5-5,5c-2.8,0-5-2.3-5-5s2.3-5,5-5
				C846.7,48.9,849,51.2,849,54z"/>
			<rect x="927" y="68.4" class="st2" width="25.2" height="39.5"/>
			<rect x="926.8" y="47.9" class="st2" width="25.4" height="12.4"/>
			<path class="st2" d="M896.6,21.6v131.6h21.9V43.8l0.2-22.2l-11.1-10L896.6,21.6z M907.7,127.4c-2.8,0-5-2.3-5-5s2.3-5,5-5
				c2.8,0,5,2.3,5,5C912.7,125.1,910.4,127.4,907.7,127.4z M912.7,54c0,2.8-2.3,5-5,5c-2.8,0-5-2.3-5-5s2.3-5,5-5
				C910.4,48.9,912.7,51.2,912.7,54z"/>
			<polygon class="st2" points="863.3,108 888.1,108 888.3,68.4 863.3,68.4 			"/>
			<polygon class="st2" points="863.3,60.3 888.1,60.3 888.3,47.9 863.3,47.9 			"/>
			<polygon class="st2" points="863.3,128.7 888.1,128.7 888.3,116.3 863.3,116.3 			"/>
			<path class="st3" d="M927,39.5V19.7c0-1.2-0.5-2.3-1.4-3.1L910.4,2.8c-1.6-1.4-4-1.4-5.5,0l-15.2,13.8c-0.9,0.8-1.4,1.9-1.4,3.1
				v19.8h-25V19.7c0-1.2-0.5-2.3-1.4-3.1L846.7,2.8c-1.6-1.4-4-1.4-5.5,0L826,16.6c-0.9,0.8-1.4,1.9-1.4,3.1v19.8h-25V19.7
				c0-1.2-0.5-2.3-1.4-3.1L783,2.8c-1.6-1.4-4-1.4-5.5,0l-15.2,13.7c-0.9,0.8-1.4,1.9-1.4,3.1v137.7c0,2.3,1.8,4.1,4.1,4.1h30.4
				c2.3,0,4.1-1.8,4.1-4.1v-20.6h25v20.6c0,2.3,1.8,4.1,4.1,4.1H859c2.3,0,4.1-1.8,4.1-4.1v-20.6h25v20.6c0,2.3,1.8,4.1,4.1,4.1
				h30.4c2.3,0,4.1-1.8,4.1-4.1v-20.6h25.2v-8.1h-25.4v-12.4h25.4v-8.4h-25.2V68.3h25.2v-8.1h-25.4V47.8h25.4v-8.4H927V39.5z
				 M791.1,43.7v109.5h-22V21.6l11.1-10.1l11.1,10L791.1,43.7z M824.4,128.6h-24.9v-12.4h25L824.4,128.6z M824.4,108h-24.9V68.4h25
				L824.4,108z M824.4,60.2h-24.9V47.8h25L824.4,60.2z M854.8,43.7v109.5h-22V21.6l11.1-10.1l11.1,10L854.8,43.7z M888.1,128.7
				h-24.8v-12.4h25L888.1,128.7z M888.1,108h-24.8V68.4h25L888.1,108z M888.1,60.3h-24.8V47.9h25L888.1,60.3z M918.5,43.8v109.4
				h-21.9V21.6l11.1-10.1l11.1,10L918.5,43.8z"/>
			<circle class="st3" cx="780.3" cy="54" r="5"/>
			<ellipse class="st3" cx="780.4" cy="122.4" rx="5" ry="5"/>
			<path class="st3" d="M838.9,54c0,2.8,2.3,5,5,5c2.8,0,5-2.3,5-5s-2.3-5-5-5C841.2,48.9,838.9,51.2,838.9,54z"/>
			<path class="st3" d="M844,117.3c-2.8,0-5,2.3-5,5s2.3,5,5,5c2.8,0,5-2.3,5-5S846.7,117.3,844,117.3z"/>
			<circle class="st3" cx="907.7" cy="54" r="5"/>
			<circle class="st3" cx="907.7" cy="122.4" r="5"/>
		</g>
	</g>
	<g>
		<g>
			<path class="st0" d="M605.2,112h33.3v20.6h-33.3V112z"/>
			<path class="st0" d="M605.2,43.6h33.3v20.6h-33.3V43.6z"/>
			<path class="st0" d="M574.8,157.3V19.8L590,6.1l15.2,13.7v137.5H574.8L574.8,157.3z"/>
			<path class="st0" d="M638.5,157.3V19.8L653.7,6l15.2,13.8v137.5H638.5L638.5,157.3z M653.7,121.5c-0.5,0-0.9,0.4-0.9,0.9
				s0.4,0.9,0.9,0.9s0.9-0.4,0.9-0.9C654.7,121.9,654.3,121.5,653.7,121.5L653.7,121.5z M653.7,53c-0.5,0-0.9,0.4-0.9,0.9
				s0.4,0.9,0.9,0.9s0.9-0.4,0.9-0.9S654.3,53,653.7,53L653.7,53z"/>
			<path class="st0" d="M669,112h33.3v20.6H669V112z"/>
			<path class="st0" d="M732.7,43.6h29v20.6h-29V43.6z"/>
			<path class="st0" d="M702.3,157.3V19.8l15.2-13.7l15.2,13.7v137.5H702.3L702.3,157.3z M717.5,121.5c-0.5,0-0.9,0.4-0.9,0.9
				s0.4,0.9,0.9,0.9s0.9-0.4,0.9-0.9C718.4,121.9,718,121.5,717.5,121.5L717.5,121.5L717.5,121.5L717.5,121.5z M717.5,53
				c-0.5,0-0.9,0.4-0.9,0.9s0.4,0.9,0.9,0.9s0.9-0.4,0.9-0.9C718.4,53.5,718,53,717.5,53L717.5,53L717.5,53z"/>
			<path class="st0" d="M732.7,112h29v20.6h-29V112z"/>
			<path class="st0" d="M669,43.6h33.3v20.6H669V43.6z"/>
		</g>
		<g>
			<path class="st1" d="M593.4,9.1L590,6.9v150.4h15.2V19.8L593.4,9.1z"/>
			<path class="st1" d="M657.1,9.1l-3.4-2.2v150.4h15.2V19.8L657.1,9.1z"/>
			<path class="st1" d="M720.9,9.1l-3.4-2.2v150.4h15.2V19.8L720.9,9.1z"/>
		</g>
		<g>
			<path class="st2" d="M579,21.6v131.6h22V43.7l0.2-22.2l-11.1-10L579,21.6z M590,127.4c-2.8,0-5-2.3-5-5s2.3-5,5-5s5,2.3,5,5
				C595,125.1,592.8,127.4,590,127.4z M595.1,54c0,2.8-2.3,5-5,5s-5-2.3-5-5s2.3-5,5-5S595.1,51.2,595.1,54z"/>
			<polygon class="st2" points="609.4,128.6 634.2,128.6 634.4,116.3 609.4,116.3 			"/>
			<polygon class="st2" points="609.4,108 634.2,108 634.4,68.4 609.4,68.4 			"/>
			<polygon class="st2" points="609.4,60.2 634.2,60.2 634.4,47.8 609.4,47.8 			"/>
			<rect x="736.6" y="116.3" class="st2" width="25.4" height="12.4"/>
			<path class="st2" d="M642.7,21.6v131.6h22V43.7l0.2-22.2l-11.1-10L642.7,21.6z M653.7,127.4c-2.8,0-5-2.3-5-5s2.3-5,5-5
				s5,2.3,5,5C658.7,125.1,656.5,127.4,653.7,127.4z M658.8,54c0,2.8-2.3,5-5,5s-5-2.3-5-5s2.3-5,5-5S658.8,51.2,658.8,54z"/>
			<rect x="736.8" y="68.4" class="st2" width="25.2" height="39.5"/>
			<rect x="736.6" y="47.9" class="st2" width="25.4" height="12.4"/>
			<path class="st2" d="M706.4,21.6v131.6h21.9V43.8l0.2-22.2l-11.1-10L706.4,21.6z M717.4,127.4c-2.8,0-5-2.3-5-5s2.3-5,5-5
				s5,2.3,5,5C722.4,125.1,720.2,127.4,717.4,127.4z M722.5,54c0,2.8-2.3,5-5,5s-5-2.3-5-5s2.3-5,5-5S722.5,51.2,722.5,54z"/>
			<polygon class="st2" points="673.1,108 697.9,108 698.1,68.4 673.1,68.4 			"/>
			<polygon class="st2" points="673.1,60.3 697.9,60.3 698.1,47.9 673.1,47.9 			"/>
			<polygon class="st2" points="673.1,128.7 697.9,128.7 698.1,116.3 673.1,116.3 			"/>
			<path class="st3" d="M736.8,39.5V19.7c0-1.2-0.5-2.3-1.4-3.1L720.2,2.8c-1.6-1.4-4-1.4-5.5,0l-15.2,13.8
				c-0.9,0.8-1.4,1.9-1.4,3.1v19.8h-25V19.7c0-1.2-0.5-2.3-1.4-3.1L656.5,2.8c-1.6-1.4-4-1.4-5.5,0l-15.2,13.8
				c-0.9,0.8-1.4,1.9-1.4,3.1v19.8h-25V19.7c0-1.2-0.5-2.3-1.4-3.1L592.8,2.8c-1.6-1.4-4-1.4-5.5,0l-15.2,13.7
				c-0.9,0.8-1.4,1.9-1.4,3.1v137.7c0,2.3,1.8,4.1,4.1,4.1h30.4c2.3,0,4.1-1.8,4.1-4.1v-20.6h25v20.6c0,2.3,1.8,4.1,4.1,4.1h30.4
				c2.3,0,4.1-1.8,4.1-4.1v-20.6h25v20.6c0,2.3,1.8,4.1,4.1,4.1h30.4c2.3,0,4.1-1.8,4.1-4.1v-20.6h25.2v-8.1h-25.4v-12.4h25.4v-8.4
				h-25.2V68.3h25.2v-8.1h-25.4V47.8h25.4v-8.4h-24.9V39.5z M600.9,43.7v109.5h-22V21.6L590,11.5l11.1,10L600.9,43.7z M634.2,128.6
				h-24.9v-12.4h25L634.2,128.6z M634.2,108h-24.9V68.4h25L634.2,108z M634.2,60.2h-24.9V47.8h25L634.2,60.2z M664.6,43.7v109.5h-22
				V21.6l11.1-10.1l11.1,10L664.6,43.7z M697.9,128.7h-24.8v-12.4h25L697.9,128.7z M697.9,108h-24.8V68.4h25L697.9,108z M697.9,60.3
				h-24.8V47.9h25L697.9,60.3z M728.3,43.8v109.4h-21.9V21.6l11.1-10.1l11.1,10L728.3,43.8z"/>
			<circle class="st3" cx="590" cy="54" r="5"/>
			<ellipse class="st3" cx="590.1" cy="122.5" rx="5" ry="5"/>
			<path class="st3" d="M648.7,54c0,2.8,2.3,5,5,5s5-2.3,5-5s-2.3-5-5-5S648.7,51.2,648.7,54z"/>
			<path class="st3" d="M653.7,117.3c-2.8,0-5,2.3-5,5s2.3,5,5,5s5-2.3,5-5S656.5,117.3,653.7,117.3z"/>
			<circle class="st3" cx="717.4" cy="54" r="5"/>
			<circle class="st3" cx="717.4" cy="122.4" r="5"/>
		</g>
	</g>
	<g>
		<g>
			<path class="st0" d="M414.9,112h33.3v20.6h-33.3V112z"/>
			<path class="st0" d="M414.9,43.6h33.3v20.6h-33.3V43.6z"/>
			<path class="st0" d="M384.5,157.3V19.8l15.2-13.7l15.2,13.7v137.5H384.5L384.5,157.3z"/>
			<path class="st0" d="M448.2,157.3V19.8L463.4,6l15.2,13.8v137.5H448.2L448.2,157.3z M463.5,121.5c-0.5,0-0.9,0.4-0.9,0.9
				s0.4,0.9,0.9,0.9s0.9-0.4,0.9-0.9S464,121.5,463.5,121.5L463.5,121.5z M463.5,53c-0.5,0-0.9,0.4-0.9,0.9s0.4,0.9,0.9,0.9
				s0.9-0.4,0.9-0.9S464,53,463.5,53L463.5,53z"/>
			<path class="st0" d="M478.7,112H512v20.6h-33.3V112z"/>
			<path class="st0" d="M542.4,43.6h29v20.6h-29V43.6z"/>
			<path class="st0" d="M512,157.3V19.8l15.2-13.7l15.2,13.7v137.5H512L512,157.3z M527.2,121.5c-0.5,0-0.9,0.4-0.9,0.9
				s0.4,0.9,0.9,0.9s0.9-0.4,0.9-0.9S527.7,121.5,527.2,121.5L527.2,121.5L527.2,121.5L527.2,121.5z M527.2,53
				c-0.5,0-0.9,0.4-0.9,0.9s0.4,0.9,0.9,0.9s0.9-0.4,0.9-0.9C528.1,53.5,527.7,53,527.2,53L527.2,53L527.2,53z"/>
			<path class="st0" d="M542.4,112h29v20.6h-29V112z"/>
			<path class="st0" d="M478.7,43.6H512v20.6h-33.3V43.6z"/>
		</g>
		<g>
			<path class="st1" d="M403.1,9.1l-3.4-2.2v150.4h15.2V19.8L403.1,9.1z"/>
			<path class="st1" d="M466.8,9.1l-3.4-2.2v150.4h15.2V19.8L466.8,9.1z"/>
			<path class="st1" d="M530.6,9.1l-3.4-2.2v150.4h15.2V19.8L530.6,9.1z"/>
		</g>
		<g>
			<path class="st2" d="M388.7,21.6v131.6h22V43.7l0.2-22.2l-11.1-10L388.7,21.6z M399.8,127.4c-2.8,0-5-2.3-5-5s2.3-5,5-5
				c2.8,0,5,2.3,5,5C404.8,125.1,402.5,127.4,399.8,127.4z M404.8,54c0,2.8-2.3,5-5,5c-2.8,0-5-2.3-5-5s2.3-5,5-5
				C402.5,48.9,404.8,51.2,404.8,54z"/>
			<polygon class="st2" points="419.1,128.6 443.9,128.6 444.1,116.3 419.1,116.3 			"/>
			<polygon class="st2" points="419.1,108 443.9,108 444.1,68.4 419.1,68.4 			"/>
			<polygon class="st2" points="419.1,60.2 443.9,60.2 444.1,47.8 419.1,47.8 			"/>
			<rect x="546.3" y="116.3" class="st2" width="25.4" height="12.4"/>
			<path class="st2" d="M452.4,21.6v131.6h22V43.7l0.2-22.2l-11.1-10L452.4,21.6z M463.5,127.4c-2.8,0-5-2.3-5-5s2.3-5,5-5
				c2.8,0,5,2.3,5,5C468.5,125.1,466.2,127.4,463.5,127.4z M468.5,54c0,2.8-2.3,5-5,5c-2.8,0-5-2.3-5-5s2.3-5,5-5
				C466.2,48.9,468.5,51.2,468.5,54z"/>
			<rect x="546.5" y="68.4" class="st2" width="25.2" height="39.5"/>
			<rect x="546.3" y="47.9" class="st2" width="25.4" height="12.4"/>
			<path class="st2" d="M516.1,21.6v131.6H538V43.8l0.2-22.2l-11.1-10L516.1,21.6z M527.2,127.4c-2.8,0-5-2.3-5-5s2.3-5,5-5
				s5,2.3,5,5C532.2,125.1,529.9,127.4,527.2,127.4z M532.2,54c0,2.8-2.3,5-5,5s-5-2.3-5-5s2.3-5,5-5S532.2,51.2,532.2,54z"/>
			<polygon class="st2" points="482.8,108 507.6,108 507.9,68.4 482.8,68.4 			"/>
			<polygon class="st2" points="482.8,60.3 507.6,60.3 507.9,47.9 482.8,47.9 			"/>
			<polygon class="st2" points="482.8,128.7 507.6,128.7 507.9,116.3 482.8,116.3 			"/>
			<path class="st3" d="M546.5,39.5V19.7c0-1.2-0.5-2.3-1.4-3.1L529.9,2.8c-1.6-1.4-4-1.4-5.5,0l-15.2,13.8
				c-0.9,0.8-1.4,1.9-1.4,3.1v19.8h-25V19.7c0-1.2-0.5-2.3-1.4-3.1L466.2,2.8c-1.6-1.4-4-1.4-5.5,0l-15.2,13.8
				c-0.9,0.8-1.4,1.9-1.4,3.1v19.8h-25V19.7c0-1.2-0.5-2.3-1.4-3.1L402.5,2.8c-1.6-1.4-4-1.4-5.5,0l-15.2,13.7
				c-0.9,0.8-1.4,1.9-1.4,3.1v137.7c0,2.3,1.8,4.1,4.1,4.1h30.4c2.3,0,4.1-1.8,4.1-4.1v-20.6h25v20.6c0,2.3,1.8,4.1,4.1,4.1h30.4
				c2.3,0,4.1-1.8,4.1-4.1v-20.6h25v20.6c0,2.3,1.8,4.1,4.1,4.1h30.4c2.3,0,4.1-1.8,4.1-4.1v-20.6h25.2v-8.1H546v-12.4h25.4v-8.4
				h-25.2V68.3h25.2v-8.1H546V47.8h25.4v-8.4h-24.9V39.5z M410.7,43.7v109.5h-22V21.6l11.1-10.1l11.1,10L410.7,43.7z M443.9,128.6
				H419v-12.4h25L443.9,128.6z M443.9,108H419V68.4h25L443.9,108z M443.9,60.2H419V47.8h25L443.9,60.2z M474.4,43.7v109.5h-22V21.6
				l11.1-10.1l11.1,10L474.4,43.7z M507.6,128.7h-24.8v-12.4h25L507.6,128.7z M507.6,108h-24.8V68.4h25L507.6,108z M507.6,60.3
				h-24.8V47.9h25L507.6,60.3z M538.1,43.8v109.4h-21.9V21.6l11.1-10.1l11.1,10L538.1,43.8z"/>
			<circle class="st3" cx="399.8" cy="54" r="5"/>
			<ellipse class="st3" cx="399.9" cy="122.4" rx="5" ry="5"/>
			<path class="st3" d="M458.4,54c0,2.8,2.3,5,5,5c2.8,0,5-2.3,5-5s-2.3-5-5-5C460.7,48.9,458.4,51.2,458.4,54z"/>
			<path class="st3" d="M463.5,117.3c-2.8,0-5,2.3-5,5s2.3,5,5,5c2.8,0,5-2.3,5-5S466.2,117.3,463.5,117.3z"/>
			<circle class="st3" cx="527.2" cy="54" r="5"/>
			<circle class="st3" cx="527.2" cy="122.4" r="5"/>
		</g>
	</g>
	<g>
		<g>
			<path class="st0" d="M224.7,112H258v20.6h-33.3V112z"/>
			<path class="st0" d="M224.7,43.6H258v20.6h-33.3V43.6z"/>
			<path class="st0" d="M194.3,157.3V19.8l15.2-13.7l15.2,13.7v137.5H194.3L194.3,157.3z"/>
			<path class="st0" d="M258,157.3V19.8L273.2,6l15.2,13.8v137.5H258L258,157.3z M273.3,121.5c-0.5,0-0.9,0.4-0.9,0.9
				s0.4,0.9,0.9,0.9s0.9-0.4,0.9-0.9C274.2,121.9,273.8,121.5,273.3,121.5L273.3,121.5z M273.3,53c-0.5,0-0.9,0.4-0.9,0.9
				s0.4,0.9,0.9,0.9s0.9-0.4,0.9-0.9S273.8,53,273.3,53L273.3,53z"/>
			<path class="st0" d="M288.5,112h33.3v20.6h-33.3V112z"/>
			<path class="st0" d="M352.2,43.6h29v20.6h-29V43.6z"/>
			<path class="st0" d="M321.8,157.3V19.8L337,6.1l15.2,13.7v137.5H321.8L321.8,157.3z M337,121.5c-0.5,0-0.9,0.4-0.9,0.9
				s0.4,0.9,0.9,0.9s0.9-0.4,0.9-0.9S337.5,121.5,337,121.5L337,121.5L337,121.5L337,121.5z M337,53c-0.5,0-0.9,0.4-0.9,0.9
				s0.4,0.9,0.9,0.9s0.9-0.4,0.9-0.9C337.9,53.5,337.5,53,337,53L337,53L337,53z"/>
			<path class="st0" d="M352.2,112h29v20.6h-29V112z"/>
			<path class="st0" d="M288.5,43.6h33.3v20.6h-33.3V43.6z"/>
		</g>
		<g>
			<path class="st1" d="M212.9,9.1l-3.4-2.2v150.4h15.2V19.8L212.9,9.1z"/>
			<path class="st1" d="M276.6,9.1l-3.4-2.2v150.4h15.2V19.8L276.6,9.1z"/>
			<path class="st1" d="M340.4,9.1L337,6.9v150.4h15.2V19.8L340.4,9.1z"/>
		</g>
		<g>
			<path class="st2" d="M198.5,21.6v131.6h22V43.7l0.2-22.2l-11.1-10L198.5,21.6z M209.6,127.4c-2.8,0-5-2.3-5-5s2.3-5,5-5
				s5,2.3,5,5C214.6,125.1,212.3,127.4,209.6,127.4z M214.6,54c0,2.8-2.3,5-5,5s-5-2.3-5-5s2.3-5,5-5S214.6,51.2,214.6,54z"/>
			<polygon class="st2" points="228.9,128.6 253.7,128.6 253.9,116.3 228.9,116.3 			"/>
			<polygon class="st2" points="228.9,108 253.7,108 253.9,68.4 228.9,68.4 			"/>
			<polygon class="st2" points="228.9,60.2 253.7,60.2 253.9,47.8 228.9,47.8 			"/>
			<rect x="356.1" y="116.3" class="st2" width="25.4" height="12.4"/>
			<path class="st2" d="M262.2,21.6v131.6h22V43.7l0.2-22.2l-11.1-10L262.2,21.6z M273.3,127.4c-2.8,0-5-2.3-5-5s2.3-5,5-5
				c2.8,0,5,2.3,5,5C278.3,125.1,276,127.4,273.3,127.4z M278.3,54c0,2.8-2.3,5-5,5c-2.8,0-5-2.3-5-5s2.3-5,5-5
				C276,48.9,278.3,51.2,278.3,54z"/>
			<rect x="356.3" y="68.4" class="st2" width="25.2" height="39.5"/>
			<rect x="356.1" y="47.9" class="st2" width="25.4" height="12.4"/>
			<path class="st2" d="M325.9,21.6v131.6h21.9V43.8l0.2-22.2l-11.1-10L325.9,21.6z M337,127.4c-2.8,0-5-2.3-5-5s2.3-5,5-5
				c2.8,0,5,2.3,5,5C342,125.1,339.7,127.4,337,127.4z M342,54c0,2.8-2.3,5-5,5c-2.8,0-5-2.3-5-5s2.3-5,5-5
				C339.7,48.9,342,51.2,342,54z"/>
			<polygon class="st2" points="292.6,108 317.4,108 317.6,68.4 292.6,68.4 			"/>
			<polygon class="st2" points="292.6,60.3 317.4,60.3 317.6,47.9 292.6,47.9 			"/>
			<polygon class="st2" points="292.6,128.7 317.4,128.7 317.6,116.3 292.6,116.3 			"/>
			<path class="st3" d="M356.3,39.5V19.7c0-1.2-0.5-2.3-1.4-3.1L339.7,2.8c-1.6-1.4-4-1.4-5.5,0L319,16.6c-0.9,0.8-1.4,1.9-1.4,3.1
				v19.8h-25V19.7c0-1.2-0.5-2.3-1.4-3.1L276,2.8c-1.6-1.4-4-1.4-5.5,0l-15.2,13.8c-0.9,0.8-1.4,1.9-1.4,3.1v19.8h-25V19.7
				c0-1.2-0.5-2.3-1.4-3.1L212.3,2.8c-1.6-1.4-4-1.4-5.5,0l-15.2,13.7c-0.9,0.8-1.4,1.9-1.4,3.1v137.7c0,2.3,1.8,4.1,4.1,4.1h30.4
				c2.3,0,4.1-1.8,4.1-4.1v-20.6h25v20.6c0,2.3,1.8,4.1,4.1,4.1h30.4c2.3,0,4.1-1.8,4.1-4.1v-20.6h25v20.6c0,2.3,1.8,4.1,4.1,4.1
				h30.4c2.3,0,4.1-1.8,4.1-4.1v-20.6h25.2v-8.1h-25.4v-12.4h25.4v-8.4H356V68.3h25.2v-8.1h-25.4V47.8h25.4v-8.4h-24.9V39.5z
				 M220.4,43.7v109.5h-22V21.6l11.1-10.1l11.1,10L220.4,43.7z M253.7,128.6h-24.9v-12.4h25L253.7,128.6z M253.7,108h-24.9V68.4h25
				L253.7,108z M253.7,60.2h-24.9V47.8h25L253.7,60.2z M284.1,43.7v109.5h-22V21.6l11.1-10.1l11.1,10L284.1,43.7z M317.4,128.7
				h-24.8v-12.4h25L317.4,128.7z M317.4,108h-24.8V68.4h25L317.4,108z M317.4,60.3h-24.8V47.9h25L317.4,60.3z M347.8,43.8v109.4
				h-21.9V21.6L337,11.5l11.1,10L347.8,43.8z"/>
			<circle class="st3" cx="209.6" cy="54" r="5"/>
			<ellipse class="st3" cx="209.7" cy="122.4" rx="5" ry="5"/>
			<path class="st3" d="M268.2,54c0,2.8,2.3,5,5,5c2.8,0,5-2.3,5-5s-2.3-5-5-5C270.5,48.9,268.2,51.2,268.2,54z"/>
			<path class="st3" d="M273.3,117.3c-2.8,0-5,2.3-5,5s2.3,5,5,5c2.8,0,5-2.3,5-5S276,117.3,273.3,117.3z"/>
			<circle class="st3" cx="337" cy="54" r="5"/>
			<circle class="st3" cx="337" cy="122.4" r="5"/>
		</g>
	</g>
	<g>
		<g>
			<path class="st0" d="M34.5,112h33.3v20.6H34.5V112z"/>
			<path class="st0" d="M34.5,43.6h33.3v20.6H34.5V43.6z"/>
			<path class="st0" d="M4.1,157.3V19.8L19.3,6.1l15.2,13.7v137.5H4.1L4.1,157.3z"/>
			<path class="st0" d="M67.8,157.3V19.8L83,6l15.2,13.8v137.5H67.8L67.8,157.3z M83,121.5c-0.5,0-0.9,0.4-0.9,0.9s0.4,0.9,0.9,0.9
				s0.9-0.4,0.9-0.9C84,121.9,83.6,121.5,83,121.5L83,121.5z M83,53c-0.5,0-0.9,0.4-0.9,0.9s0.4,0.9,0.9,0.9s0.9-0.4,0.9-0.9
				S83.6,53,83,53L83,53z"/>
			<path class="st0" d="M98.3,112h33.3v20.6H98.3V112z"/>
			<path class="st0" d="M162,43.6h29v20.6h-29V43.6z"/>
			<path class="st0" d="M131.6,157.3V19.8l15.2-13.7L162,19.8v137.5H131.6L131.6,157.3z M146.8,121.5c-0.5,0-0.9,0.4-0.9,0.9
				s0.4,0.9,0.9,0.9s0.9-0.4,0.9-0.9C147.7,121.9,147.3,121.5,146.8,121.5L146.8,121.5L146.8,121.5L146.8,121.5z M146.8,53
				c-0.5,0-0.9,0.4-0.9,0.9s0.4,0.9,0.9,0.9s0.9-0.4,0.9-0.9C147.7,53.5,147.3,53,146.8,53L146.8,53L146.8,53z"/>
			<path class="st0" d="M162,112h29v20.6h-29V112z"/>
			<path class="st0" d="M98.3,43.6h33.3v20.6H98.3V43.6z"/>
		</g>
		<g>
			<path class="st1" d="M22.7,9.1l-3.4-2.2v150.4h15.2V19.8L22.7,9.1z"/>
			<path class="st1" d="M86.4,9.1L83,6.9v150.4h15.2V19.8L86.4,9.1z"/>
			<path class="st1" d="M150.2,9.1l-3.4-2.2v150.4H162V19.8L150.2,9.1z"/>
		</g>
		<g>
			<path class="st2" d="M8.3,21.6v131.6h22V43.7l0.2-22.2l-11.1-10L8.3,21.6z M19.3,127.4c-2.8,0-5-2.3-5-5s2.3-5,5-5s5,2.3,5,5
				C24.3,125.1,22.1,127.4,19.3,127.4z M24.4,54c0,2.8-2.3,5-5,5s-5-2.3-5-5s2.3-5,5-5S24.4,51.2,24.4,54z"/>
			<polygon class="st2" points="38.7,128.6 63.5,128.6 63.7,116.3 38.7,116.3 			"/>
			<polygon class="st2" points="38.7,108 63.5,108 63.7,68.4 38.7,68.4 			"/>
			<polygon class="st2" points="38.7,60.2 63.5,60.2 63.7,47.8 38.7,47.8 			"/>
			<rect x="165.9" y="116.3" class="st2" width="25.4" height="12.4"/>
			<path class="st2" d="M72,21.6v131.6h22V43.7l0.2-22.2l-11.1-10L72,21.6z M83,127.4c-2.8,0-5-2.3-5-5s2.3-5,5-5s5,2.3,5,5
				C88,125.1,85.8,127.4,83,127.4z M88.1,54c0,2.8-2.3,5-5,5s-5-2.3-5-5s2.3-5,5-5S88.1,51.2,88.1,54z"/>
			<rect x="166.1" y="68.4" class="st2" width="25.2" height="39.5"/>
			<rect x="165.9" y="47.9" class="st2" width="25.4" height="12.4"/>
			<path class="st2" d="M135.7,21.6v131.6h21.9V43.8l0.2-22.2l-11.1-10L135.7,21.6z M146.7,127.4c-2.8,0-5-2.3-5-5s2.3-5,5-5
				s5,2.3,5,5C151.7,125.1,149.5,127.4,146.7,127.4z M151.8,54c0,2.8-2.3,5-5,5s-5-2.3-5-5s2.3-5,5-5S151.8,51.2,151.8,54z"/>
			<polygon class="st2" points="102.4,108 127.2,108 127.4,68.4 102.4,68.4 			"/>
			<polygon class="st2" points="102.4,60.3 127.2,60.3 127.4,47.9 102.4,47.9 			"/>
			<polygon class="st2" points="102.4,128.7 127.2,128.7 127.4,116.3 102.4,116.3 			"/>
			<path class="st3" d="M166.1,39.5V19.7c0-1.2-0.5-2.3-1.4-3.1L149.5,2.8c-1.6-1.4-4-1.4-5.5,0l-15.2,13.8
				c-0.9,0.8-1.4,1.9-1.4,3.1v19.8h-25V19.7c0-1.2-0.5-2.3-1.4-3.1L85.8,2.8c-1.6-1.4-4-1.4-5.5,0L65.1,16.6
				c-0.9,0.8-1.4,1.9-1.4,3.1v19.8h-25V19.7c0-1.2-0.5-2.3-1.4-3.1L22.1,2.8c-1.6-1.4-4-1.4-5.5,0L1.4,16.5C0.5,17.3,0,18.4,0,19.6
				v137.7c0,2.3,1.8,4.1,4.1,4.1h30.4c2.3,0,4.1-1.8,4.1-4.1v-20.6h25v20.6c0,2.3,1.8,4.1,4.1,4.1h30.4c2.3,0,4.1-1.8,4.1-4.1v-20.6
				h25v20.6c0,2.3,1.8,4.1,4.1,4.1h30.4c2.3,0,4.1-1.8,4.1-4.1v-20.6H191v-8.1h-25.4v-12.4H191v-8.4h-25.2V68.3H191v-8.1h-25.4V47.8
				H191v-8.4h-24.9V39.5z M30.2,43.7v109.5h-22V21.6l11.1-10.1l11.1,10L30.2,43.7z M63.5,128.6H38.6v-12.4h25L63.5,128.6z M63.5,108
				H38.6V68.4h25L63.5,108z M63.5,60.2H38.6V47.8h25L63.5,60.2z M93.9,43.7v109.5h-22V21.6L83,11.5l11.1,10L93.9,43.7z M127.2,128.7
				h-24.8v-12.4h25L127.2,128.7z M127.2,108h-24.8V68.4h25L127.2,108z M127.2,60.3h-24.8V47.9h25L127.2,60.3z M157.6,43.8v109.4
				h-21.9V21.6l11.1-10.1l11.1,10L157.6,43.8z"/>
			<circle class="st3" cx="19.3" cy="54" r="5"/>
			<ellipse class="st3" cx="19.4" cy="122.5" rx="5" ry="5"/>
			<path class="st3" d="M78,54c0,2.8,2.3,5,5,5s5-2.3,5-5s-2.3-5-5-5S78,51.2,78,54z"/>
			<path class="st3" d="M83,117.3c-2.8,0-5,2.3-5,5s2.3,5,5,5s5-2.3,5-5S85.8,117.3,83,117.3z"/>
			<circle class="st3" cx="146.7" cy="54" r="5"/>
			<circle class="st3" cx="146.7" cy="122.4" r="5"/>
		</g>
	</g>
</g>
</svg>
