<?xml version="1.0" encoding="utf-8"?>
<!-- Generator: Adobe Illustrator 26.2.1, SVG Export Plug-In . SVG Version: 6.00 Build 0)  -->
<svg version="1.1" id="Calque_1" xmlns="http://www.w3.org/2000/svg" xmlns:xlink="http://www.w3.org/1999/xlink" x="0px" y="0px"
	 viewBox="0 0 275 293" style="enable-background:new 0 0 275 293;" xml:space="preserve">
<style type="text/css">
	.st0{fill:#D4BF9D;}
	.st1{fill:#826962;}
	.st2{fill:#9C7E76;}
	.st3{fill:#87635C;}
	.st4{fill:#4C4C4C;}
</style>
<g>
	<polygon class="st0" points="137.2,44.3 19.6,121.6 19.6,149.3 19.6,196 19.6,242.7 19.6,289.4 43.8,289.4 90.5,289.4 137.2,289.4 
		183.9,289.4 230.5,289.4 254.7,289.4 254.7,242.7 254.7,196 254.7,149.3 254.7,121.6 	"/>
	<polygon class="st1" points="4.2,131.7 137.2,44.3 270.1,131.7 270.1,95.6 137.2,4.9 4.2,95.7 	"/>
	<g>
		<polygon class="st2" points="204.3,137.3 204.3,162.6 115.8,251.2 77.5,289.4 70,289.4 70,256.2 188.9,137.3 		"/>
		<polygon class="st3" points="70,251.2 70,256.2 75,251.2 		"/>
		<polygon class="st2" points="77.5,289.4 204.3,289.4 204.3,251.2 115.8,251.2 		"/>
	</g>
	<g>
		<polygon class="st1" points="114.7,211.5 70,211.5 70,251.2 75,251.2 		"/>
		<polygon class="st1" points="115.8,251.2 204.3,251.2 204.3,211.5 155.5,211.5 		"/>
	</g>
	<g>
		<polygon class="st2" points="151.8,174.4 70,174.4 70,211.5 114.7,211.5 		"/>
		<polygon class="st2" points="155.5,211.5 204.3,211.5 204.3,174.4 192.5,174.4 		"/>
	</g>
	<polygon class="st1" points="188.9,137.3 70,137.3 70,174.4 151.8,174.4 	"/>
	<polygon class="st3" points="204.3,174.4 204.3,162.6 192.5,174.4 	"/>
	<g>
		<path class="st4" d="M49.3,158.5c-0.1-0.3-0.2-0.5-0.4-0.8c-0.2-0.2-0.3-0.5-0.5-0.7s-0.4-0.4-0.7-0.5c-0.2-0.2-0.5-0.3-0.8-0.4
			c-0.3-0.1-0.5-0.2-0.8-0.3s-0.6-0.1-0.9-0.1c-0.3,0-0.6,0-0.9,0.1c-0.3,0.1-0.6,0.1-0.8,0.2c-0.3,0.1-0.5,0.2-0.8,0.4
			c-0.2,0.2-0.5,0.3-0.7,0.5s-0.4,0.4-0.6,0.7c-0.1,0.2-0.3,0.5-0.4,0.7c-0.1,0.3-0.2,0.5-0.3,0.8s-0.1,0.6-0.1,0.9
			c0,0.3,0,0.6,0.1,0.9c0.1,0.3,0.1,0.6,0.3,0.8c0.1,0.3,0.2,0.5,0.4,0.8c0.2,0.2,0.3,0.5,0.5,0.6c0.2,0.2,0.4,0.4,0.7,0.6
			c0.2,0.2,0.5,0.3,0.8,0.4c0.3,0.1,0.5,0.2,0.8,0.3c0.6,0.1,1.1,0.1,1.7,0c0.3-0.1,0.6-0.1,0.8-0.3c0.3-0.1,0.5-0.2,0.8-0.4
			s0.5-0.4,0.6-0.5c0.2-0.2,0.4-0.4,0.6-0.7c0.2-0.2,0.3-0.5,0.4-0.8c0.1-0.3,0.2-0.5,0.3-0.8s0.1-0.6,0.1-0.9c0-0.3,0-0.6-0.1-0.9
			C49.5,159,49.4,158.7,49.3,158.5z"/>
		<path class="st4" d="M226,227.1c-0.2,0.2-0.4,0.4-0.5,0.7c-0.2,0.2-0.3,0.5-0.4,0.8c-0.1,0.3-0.2,0.5-0.3,0.8s-0.1,0.6-0.1,0.9
			c0,0.3,0,0.6,0.1,0.8c0.1,0.3,0.1,0.6,0.3,0.8c0.1,0.3,0.2,0.5,0.4,0.8c0.2,0.2,0.3,0.5,0.5,0.7s0.4,0.4,0.7,0.5
			c0.2,0.2,0.5,0.3,0.8,0.4c0.3,0.1,0.5,0.2,0.8,0.3c0.6,0.1,1.1,0.1,1.7,0c0.3-0.1,0.5-0.1,0.8-0.3c0.3-0.1,0.5-0.2,0.7-0.4
			s0.5-0.3,0.7-0.5s0.4-0.4,0.6-0.7c0.1-0.2,0.3-0.5,0.4-0.7c0.1-0.3,0.2-0.5,0.3-0.8s0.1-0.6,0.1-0.9c0-0.3,0-0.6-0.1-0.9
			c-0.1-0.3-0.1-0.5-0.3-0.8c-0.1-0.3-0.2-0.5-0.4-0.8s-0.3-0.5-0.5-0.7s-0.4-0.4-0.7-0.5c-0.2-0.2-0.5-0.3-0.8-0.4
			c-0.3-0.1-0.5-0.2-0.8-0.3s-0.6-0.1-0.8-0.1c-0.3,0-0.6,0-0.9,0.1c-0.3,0.1-0.6,0.1-0.8,0.3c-0.3,0.1-0.5,0.3-0.8,0.4
			S226.2,226.9,226,227.1z"/>
		<path class="st4" d="M272.6,92l-133-90.8c-1.5-1-3.5-1-5,0L1.7,92.1c-1.2,0.8-1.9,2.2-1.9,3.6v36c0,1.6,0.9,3.1,2.3,3.9
			c1.4,0.8,3.1,0.7,4.5-0.2l8.6-5.7v159.7c0,2.4,2,4.4,4.4,4.4h235.1c2.4,0,4.4-2,4.4-4.4V129.7l8.6,5.7c1.3,0.9,3.1,0.9,4.5,0.2
			c1.4-0.8,2.3-2.3,2.3-3.9V95.6C274.5,94.2,273.8,92.8,272.6,92z M141.2,178.8l-28.3,28.3H74.4v-28.3H141.2z M74.4,170v-28.3h103.9
			L150,170H74.4z M104.1,215.9l-29.7,29.7v-29.7H104.1z M190.7,141.7h9.2v19.1l-10.5,10.5l-115,115V258L190.7,141.7z M199.9,178.8
			v28.3h-33.8l28.3-28.3H199.9z M199.9,285H88.1l29.5-29.5h82.3V285z M199.9,246.8h-73.5l30.9-30.9h42.6V246.8z M250.3,285h-41.6
			V137.3c0-2.4-2-4.4-4.4-4.4H70c-2.4,0-4.4,2-4.4,4.4V285h-16V180.6c0-2.4-2-4.4-4.4-4.4s-4.4,2-4.4,4.4V285H24V123.9l113.2-74.3
			l87.5,57.5v102.6c0,2.4,2,4.4,4.4,4.4s4.4-2,4.4-4.4v-96.8l16.8,11.1L250.3,285L250.3,285z M139.6,40.6c-1.5-1-3.4-1-4.8,0
			L17.2,117.9l-0.2,0.2l-8.4,5.5V98l0.6-0.4l128-87.5l0.8,0.5l127.8,87.3v25.6L139.6,40.6z"/>
	</g>
</g>
</svg>
